<?xml version="1.0" encoding="utf-8"?>
<!-- Generator: Adobe Illustrator 23.0.5, SVG Export Plug-In . SVG Version: 6.00 Build 0)  -->
<svg version="1.1" id="ic_zsss" xmlns="http://www.w3.org/2000/svg" xmlns:xlink="http://www.w3.org/1999/xlink" x="0px" y="0px"
	 viewBox="0 0 24 24" style="enable-background:new 0 0 24 24;" xml:space="preserve">
<style type="text/css">
	.st0{fill:none;}
	.st1{fill:#865DA6;}
	.st2{fill:#28AAE1;}
</style>
<path id="Rectangle_4542" class="st0" d="M0,0h24v24H0V0z"/>
<g>
	<path class="st1" d="M5.1,8.1c0.8,0.9,2.1,1,3,0.2c0.9-0.8,1-2.1,0.2-3c-0.8-0.9-2.1-1-3-0.2C4.4,5.8,4.3,7.2,5.1,8.1"/>
	<path class="st1" d="M12.8,15.5c0.8,0.9,2.1,1,3,0.2c0.9-0.8,1-2.1,0.2-3c-0.8-0.9-2.1-1-3-0.2S12.1,14.6,12.8,15.5"/>
	<path class="st1" d="M5.6,18.7c0.8,0.9,2.1,1,3,0.2c0.9-0.8,1-2.1,0.2-3c-0.8-0.9-2.1-1-3-0.2C5,16.5,4.9,17.8,5.6,18.7"/>
	<path class="st1" d="M9.8,8.2c0.7,0.8,1.9,0.9,2.7,0.2c0.8-0.7,0.9-1.9,0.2-2.7C12,5,10.8,4.9,10,5.6C9.2,6.2,9.1,7.4,9.8,8.2"/>
	<path class="st1" d="M10,18.7c0.7,0.8,1.9,0.9,2.7,0.2c0.8-0.7,0.9-1.9,0.2-2.7c-0.7-0.8-1.9-0.9-2.7-0.2
		C9.4,16.7,9.3,17.9,10,18.7"/>
	<path class="st1" d="M7,11.8c0.7,0.8,1.9,0.9,2.7,0.2c0.8-0.7,0.9-1.9,0.2-2.7C9.2,8.5,8,8.4,7.2,9.1C6.4,9.8,6.3,11,7,11.8"/>
	<path class="st1" d="M11.3,11.7c0.6,0.7,1.7,0.8,2.4,0.2c0.7-0.6,0.8-1.7,0.2-2.4c-0.6-0.7-1.7-0.8-2.4-0.2
		C10.8,9.9,10.7,11,11.3,11.7"/>
	<path class="st1" d="M2.1,17.6c0.6,0.7,1.6,0.8,2.3,0.2c0.7-0.6,0.8-1.6,0.2-2.3c-0.6-0.7-1.6-0.8-2.3-0.2
		C1.5,15.9,1.5,16.9,2.1,17.6"/>
	<path class="st1" d="M8.9,15c0.6,0.7,1.6,0.8,2.3,0.2c0.7-0.6,0.8-1.6,0.2-2.3c-0.6-0.7-1.6-0.8-2.3-0.2C8.4,13.2,8.3,14.3,8.9,15"
		/>
	<path class="st1" d="M4.7,14.6c0.6,0.7,1.6,0.8,2.3,0.2c0.7-0.6,0.8-1.6,0.2-2.3c-0.6-0.7-1.6-0.8-2.3-0.2
		C4.2,12.8,4.1,13.9,4.7,14.6"/>
	<path class="st1" d="M3.2,11.4c0.6,0.7,1.6,0.8,2.3,0.2c0.7-0.6,0.8-1.6,0.2-2.3C5.1,8.5,4.1,8.5,3.4,9C2.7,9.6,2.6,10.7,3.2,11.4"
		/>
	<path class="st1" d="M1.2,14.2c0.5,0.6,1.5,0.7,2.1,0.2c0.6-0.5,0.7-1.5,0.2-2.1c-0.5-0.6-1.5-0.7-2.1-0.2
		C0.7,12.7,0.7,13.6,1.2,14.2"/>
	<path class="st2" d="M23.1,10.9c0-0.2,0-0.3,0-0.5c-0.1-0.3-0.2-0.7-0.4-1c-0.3-0.6-0.8-1.1-1.4-1.4c-0.2-0.1-0.5-0.2-0.7-0.2
		c0,0,0,0,0-0.1c0.1-0.1,0.2-0.3,0.2-0.4c0.2-0.4,0.2-0.8,0-1.2c-0.2-0.4-0.5-0.6-0.9-0.7c0,0,0,0,0,0c-0.4,0.8-1.2,1.6-2.4,2.2
		c-0.6,0.3-1.3,0.5-1.9,0.5c-0.4,0-0.9,0-1.3-0.1l0.5,0.4c0.5,0.5,0.8,1.2,0.9,1.9l0,0.7c0.3-0.6,0.7-1.1,1.4-1.6
		c0.6-0.4,1.3-0.8,2-1c0.1,0,0.2-0.1,0.3-0.1C20,8.3,20.7,8.7,21.2,9c0.5,0.3,1,0.8,1.3,1.3c-0.4-0.4-0.9-0.8-1.4-1.1
		c-0.5-0.3-1.1-0.5-1.7-0.5h0c0,0.2,0,0.4,0,0.5c0.2,0.8,0.8,1.5,1.5,1.7c0.7,0.3,1.6,0,2.3,0.4C23.1,11.3,23.1,11,23.1,10.9"/>
</g>
</svg>
