<?xml version="1.0" encoding="utf-8"?>
<!-- Generator: Adobe Illustrator 23.0.5, SVG Export Plug-In . SVG Version: 6.00 Build 0)  -->
<svg version="1.1" id="Layer_1" xmlns="http://www.w3.org/2000/svg" xmlns:xlink="http://www.w3.org/1999/xlink" x="0px" y="0px"
	 viewBox="0 0 18 17" style="enable-background:new 0 0 18 17;" xml:space="preserve">
<style type="text/css">
	.st0{fill:none;}
	.st1{opacity:0.6955;fill:#AD4DFD;enable-background:new    ;}
</style>
<title>ic-close-white</title>
<desc>Created with Sketch.</desc>
<g id="Page-1">
	<g id="ic-close-white" transform="translate(-1.000000, -2.000000)">
		<g id="ic_close">
			<polygon id="Rectangle_3745" class="st0" points="0,0 20,0 20,20 0,20 			"/>
			<path id="Path_18563" class="st1" d="M17.8,16.8L11.1,10l6.7-6.8l0.5-0.5l-0.5-0.5c-0.3-0.3-0.8-0.3-1.1,0L10,8.9L3.3,2.2
				C3,1.9,2.5,1.9,2.2,2.2L1.7,2.7l0.5,0.5L8.9,10l-6.7,6.8c-0.3,0.3-0.3,0.8,0,1.1l0.5,0.5l0.5-0.5l6.7-6.8l6.7,6.8l0.5,0.5
				l0.5-0.5C18.1,17.5,18.1,17,17.8,16.8z"/>
		</g>
	</g>
</g>
</svg>
