<?xml version="1.0" encoding="utf-8"?>
<!-- Generator: Adobe Illustrator 23.0.5, SVG Export Plug-In . SVG Version: 6.00 Build 0)  -->
<svg version="1.1" id="Layer_1" xmlns="http://www.w3.org/2000/svg" xmlns:xlink="http://www.w3.org/1999/xlink" x="0px" y="0px"
	 viewBox="0 0 24 24" style="enable-background:new 0 0 24 24;" xml:space="preserve">
<style type="text/css">
	.st0{opacity:0.6;}
	.st1{fill:#AD4DFD;}
	.st2{fill:none;}
</style>
<g id="ic-expand" class="st0">
	<g id="Group_8821">
		<path id="Path_18875" class="st1" d="M4,5.5l5.3,5.2l1.4-1.4L5.3,4H8V2H2v6h2V5.5z"/>
		<path id="Path_18876" class="st1" d="M20,18.6l-5.3-5.3l-1.4,1.4l5.3,5.3H16v2h6v-6h-2V18.6z"/>
		<path id="Path_18877" class="st1" d="M9.3,13.3L4,18.7V16H2v6h6v-2H5.5l5.2-5.3L9.3,13.3z"/>
		<path id="Path_18878" class="st1" d="M16,2v2h2.6l-5.3,5.3l1.4,1.4L20,5.4V8h2V2H16z"/>
	</g>
	<path id="Rectangle_4404" class="st2" d="M0,0h24v24H0V0z"/>
</g>
</svg>
