<?xml version="1.0" encoding="utf-8"?>
<!-- Generator: Adobe Illustrator 23.0.5, SVG Export Plug-In . SVG Version: 6.00 Build 0)  -->
<svg version="1.1" id="Layer_1" xmlns="http://www.w3.org/2000/svg" xmlns:xlink="http://www.w3.org/1999/xlink" x="0px" y="0px"
	 viewBox="0 0 24 40" style="enable-background:new 0 0 24 40;" xml:space="preserve">
<style type="text/css">
	.st0{fill:#AD4DFD;}
</style>
<title>Settings</title>
<desc>Created with Sketch.</desc>
<g id="Settings">
	<path id="Path_18871" class="st0" d="M14.9,35H9.1l-0.3-3.1l-0.1,0l-2.4,2l-4.1-4.1l2-2.4l0-0.1L1,26.9v-5.8l3.1-0.3l0-0.1l-2-2.4
		l4.1-4.1l2.4,2l0.1,0L9.1,13h5.8l0.3,3.1l0.1,0l2.4-2l4.1,4.1l-2,2.4l0,0.1l3.1,0.3v5.8l-3.1,0.3l0,0.1l2,2.4l-4.1,4.1l-2.4-2
		l-0.1,0L14.9,35z M10.9,33h2.2l0.3-2.6l0.6-0.2c0.3-0.1,0.7-0.2,1-0.4l0.6-0.3l2,1.7l1.5-1.5l-1.7-2l0.3-0.6c0.2-0.3,0.3-0.6,0.4-1
		l0.2-0.6l2.6-0.3v-2.2l-2.6-0.3L18.2,22c-0.1-0.3-0.2-0.7-0.4-1l-0.3-0.6l1.7-2l-1.5-1.5l-2,1.7L15,18.2c-0.3-0.2-0.6-0.3-1-0.4
		l-0.6-0.2L13.1,15h-2.2l-0.3,2.6L10,17.8c-0.3,0.1-0.7,0.2-1,0.4l-0.6,0.3l-2-1.7l-1.5,1.5l1.7,2L6.2,21c-0.2,0.3-0.3,0.6-0.4,1
		l-0.2,0.6L3,22.9v2.2l2.6,0.3L5.8,26c0.1,0.3,0.2,0.7,0.4,1l0.3,0.6l-1.7,2l1.5,1.5l2-1.7L9,29.8c0.3,0.2,0.6,0.3,1,0.4l0.6,0.2
		L10.9,33z"/>
	<path id="Path_18872" class="st0" d="M12,28c-2.2,0-4-1.8-4-4s1.8-4,4-4s4,1.8,4,4c0,1.1-0.4,2.1-1.2,2.8S13.1,28,12,28z M12,22
		c-1.1,0-2,0.9-2,2s0.9,2,2,2s2-0.9,2-2S13.1,22,12,22z"/>
</g>
</svg>
