<?xml version="1.0" encoding="utf-8"?>
<!-- Generator: Adobe Illustrator 23.0.5, SVG Export Plug-In . SVG Version: 6.00 Build 0)  -->
<svg version="1.1" id="Layer_1" xmlns="http://www.w3.org/2000/svg" xmlns:xlink="http://www.w3.org/1999/xlink" x="0px" y="0px"
	 viewBox="0 0 40 40" style="enable-background:new 0 0 40 40;" xml:space="preserve">
<style type="text/css">
	.st0{fill:#AD4DFD;}
</style>
<title>Governance</title>
<desc>Created with Sketch.</desc>
<g id="governance">
	<g transform="translate(8.500000, 19.000000)">
		<rect id="Rectangle" x="9.3" y="10.9" class="st0" width="4.5" height="2.3"/>
		<rect x="8.1" y="16.7" class="st0" width="2.2" height="2.3"/>
		<rect x="12.6" y="16.7" class="st0" width="2.2" height="2.3"/>
		<path id="Shape" class="st0" d="M17.1,19H23L20.3,5.1H16V2.8h6.7V0.5H0.3v2.3H7v2.3H2.7L0,19h5.9v-2.3H2.8l1.8-9.3h13.9l1.8,9.3
			h-3.1V19z M13.7,5.1H9.3V2.8h4.5V5.1z"/>
	</g>
	<path id="Stroke-61" class="st0" d="M21.6,6.3l-1.6-0.4l-1.6,0.4L15.7,4L14,7.4l0.6,2.6l0,3.1l2.7,3.2l2.8,0.8l2.8-0.8l2.7-3.2
		l0-3.1l0.6-2.6L24.4,4L21.6,6.3z M23.5,9.7l0,2.6l-1.8,2.2l-1.6,0.5l-1.6-0.5l-1.8-2.2l0-2.6l-0.5-2.1l0.3-0.5L18,8.5l2-0.5l2,0.5
		l1.7-1.4L24,7.6L23.5,9.7z"/>
</g>
</svg>
