<?xml version="1.0" encoding="utf-8"?>
<!-- Generator: Adobe Illustrator 23.0.5, SVG Export Plug-In . SVG Version: 6.00 Build 0)  -->
<svg version="1.1" id="Layer_1" xmlns="http://www.w3.org/2000/svg" xmlns:xlink="http://www.w3.org/1999/xlink" x="0px" y="0px"
	 viewBox="0 0 40 26" style="enable-background:new 0 0 40 26;" xml:space="preserve">
<style type="text/css">
	.st0{opacity:0.5;fill-rule:evenodd;clip-rule:evenodd;fill:#896AAD;enable-background:new    ;}
	.st1{fill:#483F51;}
</style>
<path id="switch_path" class="st0" d="M6,10.8c0-3.8,3.1-7,6.9-7c0,0,0.1,0,0.1,0h20c3.8,0,7,3.1,7,6.9c0,0,0,0.1,0,0.1
	c0,3.8-3.1,7-6.9,7c0,0-0.1,0-0.1,0H13C9.2,17.8,6,14.7,6,10.8C6,10.8,6,10.8,6,10.8z"/>
<g transform="rotate(180 20 10.5)">
	<path id="switch_button-2" class="st1" d="M27,0c5.5,0,10,4.5,10,10s-4.5,10-10,10s-10-4.5-10-10S21.5,0,27,0z"/>
</g>
</svg>
