<?xml version="1.0" encoding="utf-8"?>
<!-- Generator: Adobe Illustrator 23.0.5, SVG Export Plug-In . SVG Version: 6.00 Build 0)  -->
<svg version="1.1" id="Group_9077" xmlns="http://www.w3.org/2000/svg" xmlns:xlink="http://www.w3.org/1999/xlink" x="0px" y="0px"
	 viewBox="0 0 24 24" style="enable-background:new 0 0 24 24;" xml:space="preserve">
<style type="text/css">
	.st0{fill:#AD4DFD;}
	.st1{fill:none;}
</style>
<g id="Group_8292" transform="translate(8 8)">
	<path id="Path_18418" class="st0" d="M4,8C1.8,8,0,6.2,0,4s1.8-4,4-4s4,1.8,4,4C8,6.2,6.3,8,4,8C4.1,8,4,8,4,8z M4,1.6
		C2.7,1.6,1.6,2.7,1.6,4S2.7,6.4,4,6.4S6.4,5.3,6.4,4l0,0C6.4,2.7,5.4,1.6,4,1.6C4.1,1.6,4,1.6,4,1.6z"/>
</g>
<path id="Rectangle_3656" class="st1" d="M0,0h24v24H0V0z"/>
<g id="Group_8293" transform="translate(.95 4)">
	<path id="Path_18419" class="st0" d="M11.1,16c-4.6,0-8.3-2.6-10.9-7.6C0,8.2,0,7.8,0.1,7.6C2.7,2.6,6.5,0,11.1,0
		c4.6,0,8.3,2.6,10.9,7.6c0.2,0.3,0.2,0.6,0,0.9C19.4,13.4,15.6,16,11.1,16z M1.8,8c1.6,2.9,4.5,6.2,9.3,6.2s7.7-3.3,9.3-6.2
		c-1.6-2.9-4.5-6.2-9.3-6.2S3.3,5.1,1.8,8z"/>
</g>
</svg>
