<?xml version="1.0" standalone="no"?>
<!DOCTYPE svg PUBLIC "-//W3C//DTD SVG 20010904//EN"
 "http://www.w3.org/TR/2001/REC-SVG-20010904/DTD/svg10.dtd">
<svg version="1.0" xmlns="http://www.w3.org/2000/svg"
 width="300.000000pt" height="92.000000pt" viewBox="0 0 300.000000 92.000000"
 preserveAspectRatio="xMidYMid meet">
<metadata>
Created by potrace 1.16, written by Peter Selinger 2001-2019
</metadata>
<g transform="translate(0.000000,92.000000) scale(0.100000,-0.100000)"
fill="#000000" stroke="none">
<path d="M1394 840 c-23 -9 -74 -66 -74 -81 0 -6 -22 -139 -50 -296 -27 -158
-48 -289 -45 -291 2 -2 25 -1 51 3 34 5 57 16 79 38 29 29 34 43 55 170 l23
137 69 0 70 0 -6 -27 c-3 -16 -11 -58 -17 -95 l-11 -68 -54 0 -53 0 -7 -37
c-8 -48 -31 -92 -50 -100 -37 -14 -5 -23 84 -23 193 0 207 14 246 236 26 149
27 162 13 196 -25 59 -66 78 -170 78 -85 0 -87 1 -83 23 14 64 26 129 26 137
0 12 -67 12 -96 0z"/>
<path d="M122 663 c-46 -23 -60 -55 -88 -211 -30 -167 -30 -181 -1 -223 19
-29 90 -69 101 -58 2 2 16 69 30 149 15 80 29 157 32 173 5 26 8 27 72 27 106
0 159 38 176 128 l6 32 -148 0 c-115 0 -154 -4 -180 -17z"/>
<path d="M695 666 c-50 -22 -64 -56 -93 -227 l-27 -160 20 -37 c34 -62 66 -72
247 -72 l157 0 6 32 c3 18 23 133 44 256 l38 222 -34 0 c-47 0 -96 -22 -116
-53 -10 -15 -28 -86 -40 -159 l-23 -133 -67 -3 c-50 -2 -67 0 -67 10 0 7 13
86 29 176 l28 162 -36 0 c-20 -1 -50 -7 -66 -14z"/>
<path d="M2023 665 c-48 -21 -64 -54 -89 -198 -30 -166 -30 -206 -2 -242 37
-47 72 -55 241 -55 l154 0 42 243 c23 133 41 248 41 255 0 34 -117 1 -146 -43
-12 -18 -57 -222 -64 -292 0 -2 -29 -3 -65 -3 -56 0 -65 3 -65 18 0 10 11 81
25 158 32 179 32 174 -7 174 -18 -1 -47 -7 -65 -15z"/>
<path d="M2663 660 c-18 -10 -39 -32 -46 -47 -21 -40 -31 -136 -18 -161 6 -11
53 -43 103 -71 l93 -51 -70 0 c-52 0 -78 -5 -103 -20 -35 -21 -62 -72 -62
-115 l0 -25 143 0 c115 0 149 3 177 18 44 21 70 73 77 151 5 57 5 59 -28 83
-19 14 -63 41 -99 59 l-65 34 70 5 c39 4 79 11 91 18 30 16 52 54 60 101 l7
41 -149 0 c-130 0 -153 -3 -181 -20z"/>
</g>
</svg>
