<?xml version="1.0" encoding="utf-8"?>
<!-- Generator: Adobe Illustrator 23.0.5, SVG Export Plug-In . SVG Version: 6.00 Build 0)  -->
<svg version="1.1" id="Layer_1" xmlns="http://www.w3.org/2000/svg" xmlns:xlink="http://www.w3.org/1999/xlink" x="0px" y="0px"
	 viewBox="0 0 300 92" style="enable-background:new 0 0 300 92;" xml:space="preserve">
<style type="text/css">
	.st0{fill:#865DA6;}
</style>
<g transform="translate(0.000000,92.000000) scale(0.100000,-0.100000)">
	<path class="st0" d="M1394,840c-23-9-74-66-74-81c0-6-22-139-50-296c-27-158-48-289-45-291c2-2,25-1,51,3c34,5,57,16,79,38
		c29,29,34,43,55,170l23,137h69h70l-6-27c-3-16-11-58-17-95l-11-68h-54h-53l-7-37c-8-48-31-92-50-100c-37-14-5-23,84-23
		c193,0,207,14,246,236c26,149,27,162,13,196c-25,59-66,78-170,78c-85,0-87,1-83,23c14,64,26,129,26,137C1490,852,1423,852,1394,840
		z"/>
	<path class="st0" d="M122,663c-46-23-60-55-88-211C4,285,4,271,33,229c19-29,90-69,101-58c2,2,16,69,30,149c15,80,29,157,32,173
		c5,26,8,27,72,27c106,0,159,38,176,128l6,32H302C187,680,148,676,122,663z"/>
	<path class="st0" d="M695,666c-50-22-64-56-93-227l-27-160l20-37c34-62,66-72,247-72h157l6,32c3,18,23,133,44,256l38,222h-34
		c-47,0-96-22-116-53c-10-15-28-86-40-159l-23-133l-67-3c-50-2-67,0-67,10c0,7,13,86,29,176l28,162h-36C741,679,711,673,695,666z"/>
	<path class="st0" d="M2023,665c-48-21-64-54-89-198c-30-166-30-206-2-242c37-47,72-55,241-55h154l42,243c23,133,41,248,41,255
		c0,34-117,1-146-43c-12-18-57-222-64-292c0-2-29-3-65-3c-56,0-65,3-65,18c0,10,11,81,25,158c32,179,32,174-7,174
		C2070,679,2041,673,2023,665z"/>
	<path class="st0" d="M2663,660c-18-10-39-32-46-47c-21-40-31-136-18-161c6-11,53-43,103-71l93-51h-70c-52,0-78-5-103-20
		c-35-21-62-72-62-115v-25h143c115,0,149,3,177,18c44,21,70,73,77,151c5,57,5,59-28,83c-19,14-63,41-99,59l-65,34l70,5
		c39,4,79,11,91,18c30,16,52,54,60,101l7,41h-149C2714,680,2691,677,2663,660z"/>
</g>
</svg>
