<?xml version="1.0" encoding="UTF-8"?>
<svg width="24px" height="46px" viewBox="0 0 24 46" version="1.1" xmlns="http://www.w3.org/2000/svg" xmlns:xlink="http://www.w3.org/1999/xlink">
    <title>ic-nav-governance</title>
    <g id="Page-1" stroke="none" stroke-width="1" fill="none" fill-rule="evenodd">
        <g id="ic-nav-governance">
            <rect id="Rectangle-Copy-10" x="0" y="0" width="24" height="46"></rect>
            <g transform="translate(0.000000, 5.000000)" fill="#707070" fill-rule="nonzero">
                <g id="096-bitcoin-4" transform="translate(0.500000, 15.000000)">
                    <rect id="Rectangle" x="9.25609756" y="10.90625" width="4.48780488" height="2.3125"></rect>
                    <rect id="Rectangle" x="8.13414634" y="16.6875" width="2.24390244" height="2.3125"></rect>
                    <rect id="Rectangle" x="12.6219512" y="16.6875" width="2.24390244" height="2.3125"></rect>
                    <path d="M17.1097561,19 L22.9663415,19 L20.2736585,5.125 L15.9878049,5.125 L15.9878049,2.8125 L22.7195122,2.8125 L22.7195122,0.5 L0.280487805,0.5 L0.280487805,2.8125 L7.01219512,2.8125 L7.01219512,5.125 L2.72746341,5.125 L0.0336585366,19 L5.8902439,19 L5.8902439,16.6875 L2.77121951,16.6875 L4.56634146,7.4375 L18.4347805,7.4375 L20.2299024,16.6875 L17.1097561,16.6875 L17.1097561,19 Z M13.7439024,5.125 L9.25609756,5.125 L9.25609756,2.8125 L13.7439024,2.8125 L13.7439024,5.125 Z" id="Shape"></path>
                </g>
                <path d="M13.6153702,2.29344989 L12.060756,1.88287896 L10.5070842,2.29343023 L7.6868396,0.00025191 L6,3.41914541 L6.6372704,5.9814346 L6.6231851,9.0801933 L9.3105189,12.317344 L12.0608273,13.1488914 L14.8110224,12.3173783 L17.4995965,9.080164 L17.4844271,5.9812623 L18.1216546,3.41914541 L16.4346907,0 L13.6153702,2.29344989 Z M15.4832275,5.74110565 L15.4960581,8.362204 L13.6566322,10.5769897 L12.0608273,11.0594765 L10.4651357,10.577024 L8.6264695,8.3621746 L8.6383842,5.74093335 L8.1176546,3.64722254 L8.370815,3.13411604 L10.0345704,4.48693772 L12.0608986,3.95148899 L14.0882844,4.48691806 L15.7509639,3.13436795 L16.004,3.64722254 L15.4832275,5.74110565 Z" id="Stroke-61"></path>
            </g>
        </g>
    </g>
</svg>