<?xml version="1.0" encoding="UTF-8"?>
<svg width="24px" height="45px" viewBox="0 0 24 45" version="1.1" xmlns="http://www.w3.org/2000/svg" xmlns:xlink="http://www.w3.org/1999/xlink">
    <title>ic-nav-address</title>
    <g id="Page-1" stroke="none" stroke-width="1" fill="none" fill-rule="evenodd">
        <g id="ic-nav-address">
            <rect id="Rectangle-Copy-41" x="0" y="0" width="24" height="45"></rect>
            <g transform="translate(3.000000, 14.000000)" fill="#707070" fill-rule="nonzero">
                <path d="M4,0 L0,0 L0,22 L18,22 L18,0 L4,0 Z M2,20 L2,2 L3,2 L3,20 L2,20 Z M16,20 L5,20 L5,2 L16,2 L16,20 Z" id="Path_18863"></path>
                <path d="M15,4 L6,4 L6,10 L15,10 L15,4 Z M13,8 L8,8 L8,6 L13,6 L13,8 Z" id="Path_18864"></path>
            </g>
        </g>
    </g>
</svg>