<?xml version="1.0" encoding="UTF-8"?>
<svg width="300px" height="82px" viewBox="0 0 300 82" version="1.1" xmlns="http://www.w3.org/2000/svg" xmlns:xlink="http://www.w3.org/1999/xlink">
    <title>Group 2 Copy</title>
    <g id="Page-1" stroke="none" stroke-width="1" fill="none" fill-rule="evenodd">
        <g id="Group-2-Copy" fill-rule="nonzero">
            <path d="M99.0423781,33.6213919 L97.0693918,33.6213919 L97.0693918,51.7307025 L99.0990798,51.7307025 C104.559797,51.7307025 108.119272,48.1211749 108.119272,42.6760472 C108.119272,37.2802575 104.498466,33.6225132 99.0423781,33.6225132 L99.0423781,33.6213919 Z M99.060893,27.6178471 C103.819204,27.6178471 107.545313,29.4994213 110.129288,32.0515445 C112.835925,34.7572886 114.188664,38.3141142 114.188664,42.7231426 C114.188664,47.132171 112.834767,50.6766621 110.129288,53.3577371 C107.148401,56.3000796 103.458164,57.7723721 99.060893,57.7723721 L91,57.7723721 L91,27.6369095 L99.060893,27.6369095 L99.060893,27.6178471 Z M124.543081,36.1847284 C122.737886,38.0057513 121.836445,40.169898 121.836445,42.6771685 C121.836445,45.2079867 122.739043,47.3721334 124.543081,49.167366 C126.334391,50.9502641 128.507569,51.8428344 131.063772,51.8428344 C133.581789,51.8428344 135.749181,50.9513854 137.565948,49.167366 C139.382715,47.3844679 140.289942,45.2203212 140.289942,42.6760472 C140.289942,40.1575635 139.382715,37.9934168 137.565948,36.1847284 C135.760752,34.3894958 133.594518,33.4913188 131.062615,33.4913188 C128.49484,33.4913188 126.321662,34.3894958 124.543081,36.1847284 M141.925033,31.8833466 C144.945264,34.888483 146.454222,38.4991319 146.454222,42.714172 C146.454222,46.9415467 144.945264,50.5454677 141.925033,53.525935 C138.918688,56.4940679 135.297882,57.9775736 131.063772,57.9775736 C126.816934,57.9663604 123.196128,56.4817333 120.201354,53.525935 C117.195009,50.5320119 115.691837,46.9292122 115.691837,42.714172 C115.691837,38.5114664 117.196166,34.9008175 120.201354,31.8822253 C123.221585,28.8770889 126.841234,27.3745207 131.063772,27.3745207 C135.285153,27.3745207 138.905959,28.8770889 141.925033,31.8822253 M163.291143,27.431708 C167.968452,27.431708 171.696875,29.4814801 174.172076,31.9012877 L169.830349,36.2228532 C167.989281,34.4141648 165.821889,33.5103812 163.32933,33.5103812 C160.785856,33.5103812 158.618464,34.4141648 156.825997,36.2228532 C155.023116,38.0180858 154.120518,40.1811112 154.120518,42.714172 C154.120518,45.2449902 155.023116,47.4091369 156.827154,49.2054908 C158.605735,50.9996021 160.773127,51.8989004 163.32933,51.8989004 C167.266045,51.8989004 170.308263,49.4633943 171.634388,46.6230919 L162.990278,46.6230919 L162.990278,40.8426897 L178.550833,40.8426897 C178.983617,46.4784417 177.125191,50.5701367 174.133889,53.525935 C171.114815,56.5064024 167.494009,57.996636 163.272629,57.996636 C159.013061,57.996636 155.398041,56.5064024 152.429883,53.525935 C149.422381,50.5578022 147.919208,46.9538812 147.919208,42.714172 C147.919208,38.5114664 149.423538,34.9008175 152.428726,31.8822253 C155.41077,28.8770889 159.024633,27.3745207 163.271471,27.3745207 L163.291143,27.4305867 L163.291143,27.431708 Z M199.502674,27.54384 L199.502674,33.5855097 L187.325704,33.5855097 L187.325704,39.6641829 L196.458142,39.6641829 L196.458142,45.7069739 L187.325704,45.7069739 L187.325704,51.7867684 L199.502674,51.7867684 L199.502674,57.8093757 L181.23664,57.8093757 L181.23664,27.54384 L199.502674,27.54384 Z M216.359267,57.9786949 C212.124001,57.9663604 208.510138,56.4817333 205.516522,53.525935 C202.509019,50.5320119 201.005847,46.9292122 201.005847,42.7130507 C201.005847,38.5114664 202.509019,34.9008175 205.515364,31.8833466 C208.535596,28.8782102 212.149459,27.375642 216.35811,27.375642 L216.339595,27.4496491 C221.016904,27.4496491 224.73607,29.5173624 227.2402,31.9203501 L222.898473,36.2419156 C221.070134,34.4455617 218.894642,33.5473848 216.377782,33.5473848 C213.821579,33.5473848 211.654187,34.4455617 209.874449,36.2419156 C208.071568,38.0618173 207.16897,40.225964 207.16897,42.7321131 C207.16897,45.2640527 208.071568,47.4281994 209.875606,49.2245533 C211.666916,51.0074513 213.833151,51.8989004 216.377782,51.8989004 C218.932828,51.8989004 221.112949,51.0007234 222.915831,49.2054908 L227.258715,53.5248137 C224.773099,55.9771396 221.085177,57.9764523 216.359267,57.9764523 M244.752912,47.8397236 L241.990732,41.4605368 L239.190364,47.8397236 L244.752912,47.8397236 Z M241.97106,27 L255.802793,57.7723721 L249.206885,57.7723721 L247.158683,53.1895392 L236.785751,53.1895392 L234.737548,57.7723721 L228.158998,57.7723721 L241.97106,27 Z M265.371487,51.8361065 C267.052865,51.8361065 268.908976,50.4456703 268.908976,48.7726615 C268.908976,46.0187007 265.196753,45.6352094 263.102263,44.9130796 C259.408555,43.6594444 256.147631,40.6408522 256.147631,36.53458 C256.147631,31.4493959 260.290324,27.3520943 265.399259,27.3520943 C270.056895,27.3520943 273.91608,30.7911814 274.540955,35.2630037 L268.495864,36.53458 C268.495864,34.8795124 267.099152,33.4890762 265.435132,33.4890762 C263.745654,33.4890762 262.348941,34.8795124 262.348941,36.5525212 C262.348941,39.2694784 265.803114,39.9916082 267.906861,40.6139405 C271.729016,41.7117124 275.101029,44.6103234 275.101029,48.8085437 C275.101029,53.8937278 270.516295,58 265.417774,58 C260.731208,58 256.495942,54.5799754 255.806264,50.0890906 L261.852513,48.8085437 C261.852513,50.4916444 263.690109,51.8641395 265.399259,51.8641395 L265.371487,51.8361065 Z M283.80184,27.6178471 L283.80184,39.6832453 L293.930608,39.6832453 L293.930608,27.6178471 L300,27.6178471 L300,57.7723721 L293.930608,57.7723721 L293.930608,45.6879115 L283.80184,45.6879115 L283.80184,57.7723721 L277.731291,57.7723721 L277.731291,27.6178471 L283.80184,27.6178471 Z" id="Shape" fill="#FFFFFF"></path>
            <g id="grafana_icon-(1)">
                <g id="Group">
                    <polygon id="Path" fill="#CC8E58" points="76.05 1.20451977 72.0795181 0.185310734 66.4174699 3.12711864 56.8789157 10.5627119 56.8789157 10.5627119 52.0626506 9.17288136 46.846988 8.29265537 39 9.17288136 31.153012 8.29265537 25.9373494 9.17288136 21.1210843 10.5627119 21.1210843 10.5627119 11.5825301 3.12711864 5.92048193 0.185310734 1.95 1.20451977 0 4.1 0 11.0954802 0 15.1491525 1.38614458 19.7587571 1.52710843 24.3683616 4.60481928 30.4141243 4.81626506 36.7841808 3.40662651 43.9649718 2.7253012 52.7440678 6.20240964 58.3265537 11.6295181 62.8898305 12.8277108 63.8858757 17.1506024 72.7576271 23.8698795 77.459887 23.8698795 77.459887 26.360241 79.220339 39 81.8146893 39 81.8146893 39 81.8146893 39 81.8146893 39 81.8146893 51.639759 79.220339 54.1301205 77.459887 60.8493976 72.7576271 65.1722892 63.8858757 66.3704819 62.8898305 71.7975904 58.3265537 75.2746988 52.7440678 74.5933735 43.9649718 73.1837349 36.7841808 73.3951807 30.4141243 76.4728916 24.3683616 76.6138554 19.7587571 78 15.1491525 78 11.0954802 78 4.1"></polygon>
                    <polygon id="Path" fill="#CC8E58" points="55.1403614 25.8045198 51.4518072 25.2022599 49.9012048 18.9480226 39 30.8310734 31.153012 22.2836158 31.153012 22.2836158 28.0987952 18.9480226 26.5481928 25.2022599 22.8596386 25.8045198 19.9463855 28.8389831 21.496988 33.1706215 22.3662651 30.8542373 26.5012048 29.4180791 29.3204819 33.2864407 29.3909639 35.9734463 29.3909639 35.9734463 26.360241 45.7485876 24.8566265 53.4389831 32.7506024 45.2853107 36.8620482 43.9649718 39 30.8310734 41.1379518 43.9649718 45.2493976 45.2853107 53.1433735 53.4389831 51.639759 45.7485876 48.6090361 35.9734463 48.6090361 35.9734463 48.6795181 33.2864407 51.4987952 29.4180791 55.6337349 30.8542373 56.503012 33.1706215 58.0536145 28.8389831"></polygon>
                    <g id="Path">
                        <polygon fill="#2D2113" points="16.9391566 11.9988701 11.3006024 5.74463277 5.28614458 3.96101695 2.93674699 4.49378531 2.02048193 8.36214689 2.02048193 15.2881356 5.23915663 20.940113 10.8307229 24.3683616 16.3753012 19.619774"></polygon>
                        <polygon fill="#2C1800" points="39 29.4180791 37.5668675 15.6819209 39 15.9135593"></polygon>
                        <polygon fill="#A8633A" points="26.5012048 10.2847458 21.1210843 10.5627119 11.5825301 3.12711864 5.92048193 0.185310734 1.95 1.20451977 0 4.1 0 11.0954802 2.02048193 12.5548023 2.02048193 8.36214689 2.93674699 4.49378531 5.28614458 3.96101695 11.3006024 5.74463277 16.9391566 11.9988701 16.3753012 19.619774 10.8307229 24.3683616 7.18915663 35.9734463 14.0024096 38.5909605 19.5 32.7536723 21.496988 33.1706215 19.9463855 28.8389831 21.9433735 26.7542373 22.8596386 25.8045198 26.5481928 25.2022599 28.0987952 18.9480226 31.6933735 18.6700565 34.7240964 15.6819209 37.2614458 19.3418079 39 30.8310734 39 11.9988701"></polygon>
                        <polygon fill="#CC8E58" points="6.20240964 58.3265537 5.45060241 49.6864407 9.49156627 40.420904 14.0024096 38.5909605 7.18915663 35.9734463 24.363253 12.5548023 16.3753012 19.619774 10.8307229 24.3683616 4.60481928 30.4141243 3.40662651 43.9649718 2.7253012 52.7440678"></polygon>
                        <polygon fill="#A8633A" points="22.0373494 24.6463277 28.0987952 18.9480226 26.5481928 25.2022599 22.8596386 25.8045198 21.6379518 27.0785311"></polygon>
                        <polygon fill="#EBE8DB" points="26.360241 64.6734463 22.0373494 60.9903955 18.3957831 48.2271186 20.3692771 41.6254237 19.5 35.9734463 26.360241 45.7485876 31.153012 43.6175141 36.8620482 43.9649718 36.3921687 47.1847458 32.4216867 49.0378531 31.153012 52.1418079 31.7873494 54.8751412 32.9385542 56.1491525 30.1192771 63.0288136 26.8771084 63.0288136 24.363253 59.6932203 24.363253 62.1022599"></polygon>
                        <polygon fill="#5D2900" points="16.3753012 19.619774 16.9391566 11.9988701 21.496988 13.5045198 24.363253 12.5548023"></polygon>
                        <polygon fill="#5D2900" points="15.6939759 12.9485876 16.3753012 19.619774 16.9391566 11.9988701 13.7909639 8.59378531"></polygon>
                        <polygon fill="#A8633A" points="4.60481928 30.4141243 1.52710843 24.3683616 0 15.1491525 0 11.0954802 2.02048193 12.5548023 2.02048193 15.2881356 5.23915663 20.940113 10.8307229 24.3683616"></polygon>
                        <polygon fill="#A8633A" points="21.496988 33.1706215 21.496988 29.8813559 27.2295181 27.2870056 26.5012048 29.4180791 22.3662651 30.8542373"></polygon>
                        <polygon fill="#D6B795" points="26.6656627 36.7841808 23.2590361 35.8112994 21.496988 33.1706215 19.5 32.7536723 18.3957831 33.9118644 19.5 35.9734463 20.6277108 37.5717514 26.360241 45.7485876 29.3909639 35.9734463"></polygon>
                        <polygon fill="#DBD5C3" points="30.6361446 70.8581921 29.0620482 65.4146893 26.360241 64.6734463 22.0373494 60.9903955 20.7451807 56.4966102 15.3650602 63.0288136 12.8277108 63.8858757 17.1506024 72.7576271 23.8698795 77.459887 29.0620482 74.8655367 34.0192771 72.3870056"></polygon>
                    </g>
                    <polygon id="Path" fill="#2D2113" points="61.0608434 11.9988701 66.6993976 5.74463277 72.7138554 3.96101695 75.063253 4.49378531 75.9795181 8.36214689 75.9795181 15.2881356 72.7608434 20.940113 67.1692771 24.3683616 61.6246988 19.619774"></polygon>
                    <g transform="translate(48.632530, 29.418079)" id="Path">
                        <polygon fill="#2C1800" points="0.0469879518 6.55536723 0.0469879518 3.86836158 2.86626506 0 7.00120482 1.43615819 7.87048193 3.75254237 6.10843373 6.39322034 2.70180723 7.36610169"></polygon>
                        <g transform="translate(0.939759, 0.000000)">
                            <g>
                                <path d="M2.65481928,4.6559322 C3.94698795,4.6559322 5.02771084,3.77570621 5.30963855,2.59435028 C5.33313253,2.71016949 5.33313253,2.8259887 5.33313253,2.96497175 C5.33313253,4.49378531 4.15843373,5.72146893 2.70180723,5.72146893 C1.24518072,5.72146893 0.0704819277,4.49378531 0.0704819277,2.96497175 C0.0704819277,2.94180791 0.0704819277,2.91864407 0.0704819277,2.89548023 C0.469879518,3.91468927 1.48012048,4.6559322 2.65481928,4.6559322 Z" fill="#4D2F00"></path>
                                <path d="M2.65481928,4.6559322 C1.48012048,4.6559322 0.469879518,3.91468927 0.0704819277,2.89548023 C0.11746988,1.41299435 1.2686747,0.208474576 2.70180723,0.208474576 C4.04096386,0.208474576 5.14518072,1.25084746 5.30963855,2.59435028 C5.02771084,3.77570621 3.94698795,4.6559322 2.65481928,4.6559322 Z" fill="#2C1800"></path>
                            </g>
                            <path d="M3.8060241,3.03446328 L5.1686747,2.61751412 C5.1686747,2.61751412 4.65180723,1.22768362 2.60783133,1.52881356 C2.60783133,1.5519774 3.64156627,2.43220339 3.8060241,3.03446328 Z" fill="#ECD9CB"></path>
                        </g>
                    </g>
                    <polygon id="Path" fill="#2C1800" points="39 29.4180791 40.4331325 15.6819209 39 15.9135593"></polygon>
                    <polygon id="Path" fill="#262626" points="45.5783133 49.0378531 41.6078313 47.1847458 39 47.1847458 39 47.1847458 36.3921687 47.1847458 32.4216867 49.0378531 31.153012 52.1418079 31.7873494 54.8751412 35.076506 58.5350282 39 59.6932203 39 59.6932203 39 59.6932203 39 59.6932203 39 59.6932203 42.923494 58.5350282 46.2126506 54.8751412 46.846988 52.1418079"></polygon>
                    <polygon id="Path" fill="#000000" points="40.7385542 54.2033898 42.1246988 54.6666667 43.910241 54.6666667 45.2259036 52.3734463 42.6885542 50.5898305 39 49.8254237 39 49.8254237 39 49.8254237 39 49.8254237 39 49.8254237 35.3114458 50.5898305 32.7740964 52.3734463 34.089759 54.6666667 35.8753012 54.6666667 37.2614458 54.2033898 36.063253 55.7322034 32.9385542 56.1491525 35.076506 58.5350282 39 59.6932203 39 59.6932203 39 59.6932203 39 59.6932203 39 59.6932203 42.923494 58.5350282 45.0614458 56.1491525 41.936747 55.7322034"></polygon>
                    <polygon id="Path" fill="#000000" points="51.1228916 63.0288136 47.8807229 63.0288136 39 61.059887 39 61.059887 39 61.059887 39 61.059887 39 61.059887 30.1192771 63.0288136 26.8771084 63.0288136 24.363253 59.6932203 24.363253 62.1022599 26.360241 64.6734463 30.1192771 65.7158192 35.076506 63.4457627 39 64.580791 39 64.580791 39 64.580791 39 64.580791 39 64.580791 42.923494 63.4457627 47.8807229 65.7158192 51.639759 64.6734463 53.636747 62.1022599 53.636747 59.6932203"></polygon>
                    <polygon id="Path" fill="#918A85" points="47.8807229 65.7158192 42.923494 63.4457627 39 64.580791 35.076506 63.4457627 30.1192771 65.7158192 35.076506 68.3564972 39 69.120904 39 69.120904 39 69.120904 39 69.120904 39 69.120904 42.923494 68.3564972"></polygon>
                    <polygon id="Path" fill="#5C524A" points="47.8807229 63.0288136 45.0614458 56.1491525 42.923494 58.5350282 39 59.6932203 35.076506 58.5350282 32.9385542 56.1491525 30.1192771 63.0288136 39 61.059887"></polygon>
                    <polygon id="Path" fill="#EBE8DB" points="47.8807229 65.7158192 42.923494 68.3564972 39 69.120904 35.076506 68.3564972 30.1192771 65.7158192 29.0620482 65.4146893 30.6361446 70.8581921 35.8753012 73.2440678 39 74.0548023 39 74.0548023 39 74.0548023 39 74.0548023 39 74.0548023 42.1246988 73.2440678 47.3638554 70.8581921 48.9379518 65.4146893"></polygon>
                    <polygon id="Path" fill="#A8633A" points="51.4987952 10.2847458 56.8789157 10.5627119 66.4174699 3.12711864 72.0795181 0.185310734 76.05 1.20451977 78 4.1 78 11.0954802 75.9795181 12.5548023 75.9795181 8.36214689 75.063253 4.49378531 72.7138554 3.96101695 66.6993976 5.74463277 61.0608434 11.9988701 61.6246988 19.619774 67.1692771 24.3683616 70.8108434 35.9734463 63.9975904 38.5909605 58.5 32.7536723 56.503012 33.1706215 58.0536145 28.8389831 56.0566265 26.7542373 55.1403614 25.8045198 51.4518072 25.2022599 49.9012048 18.9480226 46.3066265 18.6700565 43.2759036 15.6819209 40.7385542 19.3418079 39 30.8310734 39 11.9988701"></polygon>
                    <polygon id="Path" fill="#CC8E58" points="71.7975904 58.3265537 72.5493976 49.6864407 68.5084337 40.420904 63.9975904 38.5909605 70.8108434 35.9734463 53.636747 12.5548023 61.6246988 19.619774 67.1692771 24.3683616 73.3951807 30.4141243 74.5933735 43.9649718 75.2746988 52.7440678"></polygon>
                    <polygon id="Path" fill="#A8633A" points="56.8789157 10.5627119 52.0626506 9.17288136 46.846988 8.29265537 39 9.17288136 31.153012 8.29265537 25.9373494 9.17288136 21.1210843 10.5627119 26.5012048 10.2847458 39 11.9988701 39 11.9988701 39 11.9988701 39 11.9988701 39 11.9988701 51.4987952 10.2847458"></polygon>
                    <polygon id="Path" fill="#A8633A" points="55.9626506 24.6463277 49.9012048 18.9480226 51.4518072 25.2022599 55.1403614 25.8045198 56.3620482 27.0785311"></polygon>
                    <polygon id="Path" fill="#EBE8DB" points="51.639759 64.6734463 55.9626506 60.9903955 59.6042169 48.2271186 57.6307229 41.6254237 58.5 35.9734463 51.639759 45.7485876 46.846988 43.6175141 41.1379518 43.9649718 41.6078313 47.1847458 45.5783133 49.0378531 46.846988 52.1418079 46.2126506 54.8751412 45.0614458 56.1491525 47.8807229 63.0288136 51.1228916 63.0288136 53.636747 59.6932203 53.636747 62.1022599"></polygon>
                    <polygon id="Path" fill="#A8633A" points="39 30.8310734 49.9012048 18.9480226 46.3066265 18.6700565 43.2759036 15.6819209 43.839759 13.2960452 39 11.9988701 39 11.9988701 39 11.9988701 39 11.9988701 39 11.9988701 34.160241 13.2960452 34.7240964 15.6819209 31.6933735 18.6700565 28.0987952 18.9480226 39 30.8310734 39 30.8310734 39 30.8310734"></polygon>
                    <polygon id="Path" fill="#5D2900" points="61.6246988 19.619774 61.0608434 11.9988701 56.503012 13.5045198 53.636747 12.5548023"></polygon>
                    <polygon id="Path" fill="#5D2900" points="62.3060241 12.9485876 61.6246988 19.619774 61.0608434 11.9988701 64.2090361 8.59378531"></polygon>
                    <polygon id="Path" fill="#A8633A" points="73.3951807 30.4141243 76.4728916 24.3683616 78 15.1491525 78 11.0954802 75.9795181 12.5548023 75.9795181 15.2881356 72.7608434 20.940113 67.1692771 24.3683616"></polygon>
                    <polygon id="Path" fill="#A8633A" points="56.503012 33.1706215 56.503012 29.8813559 50.7704819 27.2870056 51.4987952 29.4180791 55.6337349 30.8542373"></polygon>
                    <polygon id="Path" fill="#CC8E58" points="45.1789157 33.7033898 46.846988 22.2836158 39 30.8310734"></polygon>
                    <polygon id="Path" fill="#807664" points="54.1301205 77.459887 43.9807229 72.3870056 42.1246988 73.2440678 39 74.0548023 35.8753012 73.2440678 34.0192771 72.3870056 23.8698795 77.459887 26.360241 79.220339 39 81.8146893 39 81.8146893 39 81.8146893 39 81.8146893 39 81.8146893 51.639759 79.220339"></polygon>
                    <g transform="translate(5.403614, 35.440678)" fill="#DBD5C3" id="Path">
                        <polygon points="10.4313253 1.20451977 8.59879518 3.15028249 4.08795181 4.98022599 0.0469879518 14.2457627 0.798795181 22.8858757 6.22590361 27.4491525 6.22590361 21.5655367 8.08192771 16.3073446 11.7939759 9.49717514 11.5355422 0"></polygon>
                        <polygon points="63.1048193 4.98022599 58.5939759 3.15028249 56.7614458 1.20451977 55.6572289 0 55.3987952 9.49717514 59.1108434 16.3073446 60.9668675 21.5655367 60.9668675 27.4491525 66.3939759 22.8858757 67.1457831 14.2457627"></polygon>
                    </g>
                    <polygon id="Path" fill="#D6B795" points="58.5 32.7536723 56.503012 33.1706215 54.7409639 35.8112994 51.3343373 36.7841808 48.6090361 35.9734463 51.639759 45.7485876 57.3722892 37.5717514 58.5 35.9734463 59.6042169 33.9118644"></polygon>
                    <polygon id="Path" fill="#CFC7AF" points="61.0608434 35.440678 59.6042169 33.9118644 58.5 35.9734463 57.6307229 41.6254237 59.6042169 48.2271186 57.2548193 56.4966102 62.6349398 63.0288136 65.1722892 63.8858757 70.153012 59.6932203"></polygon>
                    <polygon id="Path" fill="#DBD5C3" points="62.6349398 63.0288136 57.2548193 56.4966102 55.9626506 60.9903955 51.639759 64.6734463 48.9379518 65.4146893 47.3638554 70.8581921 43.9807229 72.3870056 48.9379518 74.8655367 54.1301205 77.459887 60.8493976 72.7576271 65.1722892 63.8858757"></polygon>
                    <polygon id="Path" fill="#CFC7AF" points="16.9391566 35.440678 18.3957831 33.9118644 19.5 35.9734463 20.3692771 41.6254237 18.3957831 48.2271186 20.7451807 56.4966102 15.3650602 63.0288136 12.8277108 63.8858757 7.84698795 59.6932203"></polygon>
                    <g transform="translate(21.379518, 29.418079)" id="Path">
                        <polygon fill="#2C1800" points="7.94096386 6.55536723 7.94096386 3.86836158 5.12168675 0 0.986746988 1.43615819 0.11746988 3.75254237 1.87951807 6.39322034 5.28614458 7.36610169"></polygon>
                        <g transform="translate(1.644578, 0.000000)">
                            <g>
                                <path d="M2.74879518,4.6559322 C1.45662651,4.6559322 0.375903614,3.77570621 0.0939759036,2.59435028 C0.0704819277,2.71016949 0.0704819277,2.8259887 0.0704819277,2.96497175 C0.0704819277,4.49378531 1.24518072,5.72146893 2.70180723,5.72146893 C4.15843373,5.72146893 5.33313253,4.49378531 5.33313253,2.96497175 C5.33313253,2.94180791 5.33313253,2.91864407 5.33313253,2.89548023 C4.93373494,3.91468927 3.92349398,4.6559322 2.74879518,4.6559322 Z" fill="#4D2F00"></path>
                                <path d="M2.74879518,4.6559322 C3.92349398,4.6559322 4.93373494,3.91468927 5.33313253,2.89548023 C5.28614458,1.41299435 4.13493976,0.208474576 2.70180723,0.208474576 C1.3626506,0.208474576 0.258433735,1.25084746 0.0939759036,2.59435028 C0.375903614,3.77570621 1.45662651,4.6559322 2.74879518,4.6559322 Z" fill="#2C1800"></path>
                            </g>
                            <path d="M1.59759036,3.03446328 L0.234939759,2.61751412 C0.234939759,2.61751412 0.751807229,1.22768362 2.79578313,1.52881356 C2.79578313,1.5519774 1.76204819,2.43220339 1.59759036,3.03446328 Z" fill="#ECD9CB"></path>
                        </g>
                    </g>
                    <polygon id="Path" fill="#D9AA8B" points="39 30.8310734 39 30.8310734 36.3921687 47.1847458 39 47.1847458 39 47.1847458 41.6078313 47.1847458"></polygon>
                </g>
                <g id="Group" transform="translate(66.000000, 64.109091)" fill="#CC8E58">
                    <g transform="translate(1.142857, 2.087273)" id="Path">
                        <path d="M0.257142857,0.447272727 C0.257142857,0.298181818 0.257142857,0.178909091 0.257142857,0.0298181818 L1.54285714,0.0298181818 C1.54285714,0.178909091 1.54285714,0.298181818 1.54285714,0.447272727 L1.11428571,0.447272727 L1.11428571,1.81890909 C0.971428571,1.81890909 0.828571429,1.81890909 0.685714286,1.81890909 L0.685714286,0.447272727 L0.257142857,0.447272727 Z"></path>
                        <path d="M3.31428571,0.0298181818 L3.45714286,0.0298181818 L3.45714286,1.81890909 C3.31428571,1.81890909 3.17142857,1.81890909 3,1.81890909 L3,1.01381818 L2.62857143,1.40145455 L2.57142857,1.40145455 L2.2,1.01381818 L2.2,1.81890909 C2.05714286,1.81890909 1.91428571,1.81890909 1.74285714,1.81890909 L1.74285714,0.0298181818 L1.91428571,0.0298181818 L2.57142857,0.805090909 L3.31428571,0.0298181818 Z"></path>
                    </g>
                    <path d="M3,5.93381818 C1.45714286,5.93381818 0.2,4.62181818 0.2,3.01163636 C0.2,1.40145455 1.45714286,0.0894545455 3,0.0894545455 C4.54285714,0.0894545455 5.8,1.40145455 5.8,3.01163636 C5.8,4.62181818 4.54285714,5.93381818 3,5.93381818 Z M3,0.417454545 C1.62857143,0.417454545 0.542857143,1.58036364 0.542857143,2.98181818 C0.542857143,4.41309091 1.65714286,5.54618182 3,5.54618182 C4.37142857,5.54618182 5.45714286,4.38327273 5.45714286,2.98181818 C5.45714286,1.58036364 4.37142857,0.417454545 3,0.417454545 Z" id="Shape"></path>
                </g>
            </g>
        </g>
    </g>
</svg>