<?xml version="1.0" encoding="UTF-8"?>
<svg width="302px" height="100px" viewBox="0 0 302 100" version="1.1" xmlns="http://www.w3.org/2000/svg" xmlns:xlink="http://www.w3.org/1999/xlink">
    <title>Group 5</title>
    <g id="Page-1" stroke="none" stroke-width="1" fill="none" fill-rule="evenodd">
        <g id="Group-5" transform="translate(0.824891, 0.000000)">
            <g id="Group-2-Copy-2" transform="translate(17.175109, 15.000000)" fill-rule="nonzero">
                <path d="M88.1573317,29.980612 L86.4014683,29.980612 L86.4014683,46.3374087 L88.2077935,46.3374087 C93.0675703,46.3374087 96.2353332,43.0771902 96.2353332,38.1590103 C96.2353332,33.2853939 93.0129892,29.9816248 88.1573317,29.9816248 L88.1573317,29.980612 Z M88.173809,24.5580554 C92.4084778,24.5580554 95.7245366,26.2575418 98.0241512,28.5626854 C100.432928,31.0065832 101.636802,34.2191999 101.636802,38.2015481 C101.636802,42.1838964 100.431898,45.3853722 98.0241512,47.8069884 C95.3713042,50.464588 92.0871703,51.7944006 88.173809,51.7944006 L81,51.7944006 L81,24.5752731 L88.173809,24.5752731 L88.173809,24.5580554 Z M110.851737,32.2958837 C109.2452,33.9406786 108.442961,35.8953917 108.442961,38.1600231 C108.442961,40.4459235 109.246229,42.4006366 110.851737,44.022137 C112.445917,45.6324966 114.379942,46.4386891 116.65484,46.4386891 C118.895754,46.4386891 120.82463,45.6335094 122.441466,44.022137 C124.058302,42.4117775 124.86569,40.4570643 124.86569,38.1590103 C124.86569,35.8842509 124.058302,33.9295377 122.441466,32.2958837 C120.834928,30.6743833 118.907083,29.8631267 116.65381,29.8631267 C114.368613,29.8631267 112.434589,30.6743833 110.851737,32.2958837 M126.320842,28.4107647 C129.008704,31.1250814 130.351605,34.3863127 130.351605,38.1934457 C130.351605,42.0117196 129.008704,45.2668741 126.320842,47.9589091 C123.645339,50.6398032 120.422995,51.9797439 116.65484,51.9797439 C112.875357,51.9696159 109.653013,50.6286624 106.987808,47.9589091 C104.312305,45.2547204 102.974553,42.0005787 102.974553,38.1934457 C102.974553,34.3974535 104.313335,31.1362222 106.987808,28.4097519 C109.675669,25.6954351 112.896984,24.3382768 116.65484,24.3382768 C120.411667,24.3382768 123.634011,25.6954351 126.320842,28.4097519 M145.335659,24.3899298 C149.498239,24.3899298 152.816358,26.2413369 155.019168,28.4269695 L151.155239,32.330319 C149.516776,30.696665 147.587901,29.8803444 145.369643,29.8803444 C143.106073,29.8803444 141.177198,30.696665 139.581988,32.330319 C137.97751,33.9518194 137.174241,35.9055198 137.174241,38.1934457 C137.174241,40.479346 137.97751,42.4340592 139.583018,44.0565724 C141.165869,45.67706 143.094745,46.4893294 145.369643,46.4893294 C148.873131,46.4893294 151.580559,44.2895175 152.760747,41.724083 L145.067902,41.724083 L145.067902,36.5030746 L158.916052,36.5030746 C159.301209,41.5934312 157.647299,45.2891558 154.985184,47.9589091 C152.298352,50.6509441 149.076008,51.9969616 145.319181,51.9969616 C141.52837,51.9969616 138.311175,50.6509441 135.669657,47.9589091 C132.993123,45.2780149 131.655372,42.0228604 131.655372,38.1934457 C131.655372,34.3974535 132.994153,31.1362222 135.668627,28.4097519 C138.322503,25.6954351 141.538669,24.3382768 145.318152,24.3382768 L145.335659,24.388917 L145.335659,24.3899298 Z M177.562189,24.4912103 L177.562189,29.9482023 L166.725267,29.9482023 L166.725267,35.4386168 L174.852701,35.4386168 L174.852701,40.8966216 L166.725267,40.8966216 L166.725267,46.3880489 L177.562189,46.3880489 L177.562189,51.8278232 L161.306292,51.8278232 L161.306292,24.4912103 L177.562189,24.4912103 Z M192.56375,51.9807567 C188.794565,51.9696159 185.5784,50.6286624 182.914225,47.9589091 C180.237692,45.2547204 178.89994,42.0005787 178.89994,38.1924329 C178.89994,34.3974535 180.237692,31.1362222 182.913195,28.4107647 C185.601056,25.6964479 188.817221,24.3392896 192.56272,24.3392896 L192.546243,24.4061347 C196.708823,24.4061347 200.018703,26.2737467 202.247259,28.4441872 L198.38333,32.3475367 C196.756196,30.7250235 194.820112,29.9137669 192.580227,29.9137669 C190.305329,29.9137669 188.376453,30.7250235 186.792572,32.3475367 C185.188094,33.9913188 184.384825,35.946032 184.384825,38.2096506 C184.384825,40.4965637 185.188094,42.4512769 186.793602,44.0737901 C188.387782,45.6841496 190.315627,46.4893294 192.580227,46.4893294 C194.854096,46.4893294 196.794299,45.6780728 198.398777,44.0565724 L202.263737,47.9578963 C200.051658,50.1729002 196.769583,51.9787311 192.56375,51.9787311 M217.832735,42.8229762 L215.374527,37.06113 L212.882333,42.8229762 L217.832735,42.8229762 Z M215.357019,24 L227.6666,51.7944006 L221.796558,51.7944006 L219.973756,47.6550676 L210.742343,47.6550676 L208.91954,51.7944006 L203.064946,51.7944006 L215.357019,24 Z M236.18228,46.4326123 C237.678626,46.4326123 239.330476,45.1767344 239.330476,43.6656297 C239.330476,41.1781813 236.026776,40.8318021 234.16278,40.1795558 C230.875556,39.0472401 227.97349,36.3207697 227.97349,32.6118788 C227.97349,28.0188092 231.660288,24.3180207 236.206996,24.3180207 C240.35207,24.3180207 243.786559,27.4242928 244.342668,31.4633582 L238.962826,32.6118788 C238.962826,31.1169789 237.719819,29.8611011 236.238921,29.8611011 C234.735366,29.8611011 233.492359,31.1169789 233.492359,32.6280836 C233.492359,35.0821095 236.566408,35.7343558 238.438642,36.2964624 C241.840177,37.2879983 244.841107,39.9060985 244.841107,43.6980395 C244.841107,48.291109 240.760913,52 236.223474,52 C232.052654,52 228.28347,48.9109455 227.66969,44.8546625 L233.050561,43.6980395 C233.050561,45.2182594 234.685934,46.4579324 236.206996,46.4579324 L236.18228,46.4326123 Z M252.584413,24.5580554 L252.584413,35.4558345 L261.598532,35.4558345 L261.598532,24.5580554 L267,24.5580554 L267,51.7944006 L261.598532,51.7944006 L261.598532,40.8794039 L252.584413,40.8794039 L252.584413,51.7944006 L247.181915,51.7944006 L247.181915,24.5580554 L252.584413,24.5580554 Z" id="Shape" fill="#FFFFFF"></path>
                <g id="grafana_icon-(1)">
                    <g id="Group">
                        <polygon id="Path" fill="#CC8E58" points="67.275 1.07231638 63.7626506 0.164971751 58.7539157 2.78389831 50.3159639 9.40338983 50.3159639 9.40338983 46.0554217 8.16610169 41.4415663 7.38248588 34.5 8.16610169 27.5584337 7.38248588 22.9445783 8.16610169 18.6840361 9.40338983 18.6840361 9.40338983 10.2460843 2.78389831 5.2373494 0.164971751 1.725 1.07231638 0 3.65 0 9.87768362 0 13.4864407 1.22620482 17.590113 1.35090361 21.6937853 4.07349398 27.0759887 4.26054217 32.7468927 3.01355422 39.139548 2.41084337 46.9550847 5.48674699 51.9248588 10.2876506 55.9872881 11.3475904 56.8740113 15.1716867 64.7720339 21.1156627 68.9581921 21.1156627 68.9581921 23.3186747 70.5254237 34.5 72.8350282 34.5 72.8350282 34.5 72.8350282 34.5 72.8350282 34.5 72.8350282 45.6813253 70.5254237 47.8843373 68.9581921 53.8283133 64.7720339 57.6524096 56.8740113 58.7123494 55.9872881 63.513253 51.9248588 66.5891566 46.9550847 65.9864458 39.139548 64.7394578 32.7468927 64.926506 27.0759887 67.6490964 21.6937853 67.7737952 17.590113 69 13.4864407 69 9.87768362 69 3.65"></polygon>
                        <polygon id="Path" fill="#CC8E58" points="48.778012 22.9723164 45.5150602 22.4361582 44.1433735 16.8683616 34.5 27.4471751 27.5584337 19.8378531 27.5584337 19.8378531 24.8566265 16.8683616 23.4849398 22.4361582 20.221988 22.9723164 17.6448795 25.6737288 19.0165663 29.5299435 19.7855422 27.4677966 23.4433735 26.1892655 25.9373494 29.6330508 25.9996988 32.0251412 25.9996988 32.0251412 23.3186747 40.7274011 21.9885542 47.5737288 28.9716867 40.3149718 32.6087349 39.139548 34.5 27.4471751 36.3912651 39.139548 40.0283133 40.3149718 47.0114458 47.5737288 45.6813253 40.7274011 43.0003012 32.0251412 43.0003012 32.0251412 43.0626506 29.6330508 45.5566265 26.1892655 49.2144578 27.4677966 49.9834337 29.5299435 51.3551205 25.6737288"></polygon>
                        <g id="Path">
                            <polygon fill="#2D2113" points="14.9846386 10.6819209 9.99668675 5.11412429 4.67620482 3.52627119 2.59789157 4.00056497 1.7873494 7.44435028 1.7873494 13.6101695 4.63463855 18.6418079 9.5810241 21.6937853 14.4858434 17.4663842"></polygon>
                            <polygon fill="#2C1800" points="34.5 26.1892655 33.2322289 13.9607345 34.5 14.1669492"></polygon>
                            <polygon fill="#A8633A" points="23.4433735 9.1559322 18.6840361 9.40338983 10.2460843 2.78389831 5.2373494 0.164971751 1.725 1.07231638 0 3.65 0 9.87768362 1.7873494 11.1768362 1.7873494 7.44435028 2.59789157 4.00056497 4.67620482 3.52627119 9.99668675 5.11412429 14.9846386 10.6819209 14.4858434 17.4663842 9.5810241 21.6937853 6.35963855 32.0251412 12.386747 34.3553672 17.25 29.1587571 19.0165663 29.5299435 17.6448795 25.6737288 19.4114458 23.8177966 20.221988 22.9723164 23.4849398 22.4361582 24.8566265 16.8683616 28.0364458 16.620904 30.7174699 13.9607345 32.9620482 17.2189266 34.5 27.4471751 34.5 10.6819209"></polygon>
                            <polygon fill="#CC8E58" points="5.48674699 51.9248588 4.82168675 44.2330508 8.39638554 35.9844633 12.386747 34.3553672 6.35963855 32.0251412 21.5521084 11.1768362 14.4858434 17.4663842 9.5810241 21.6937853 4.07349398 27.0759887 3.01355422 39.139548 2.41084337 46.9550847"></polygon>
                            <polygon fill="#A8633A" points="19.4945783 21.9412429 24.8566265 16.8683616 23.4849398 22.4361582 20.221988 22.9723164 19.1412651 24.1064972"></polygon>
                            <polygon fill="#EBE8DB" points="23.3186747 57.5751412 19.4945783 54.2963277 16.2731928 42.9338983 18.0189759 37.0567797 17.25 32.0251412 23.3186747 40.7274011 27.5584337 38.830226 32.6087349 39.139548 32.1930723 42.0059322 28.6807229 43.6556497 27.5584337 46.4189266 28.1195783 48.8522599 29.1379518 49.9864407 26.6439759 56.1110169 23.7759036 56.1110169 21.5521084 53.1415254 21.5521084 55.2861582"></polygon>
                            <polygon fill="#5D2900" points="14.4858434 17.4663842 14.9846386 10.6819209 19.0165663 12.0223164 21.5521084 11.1768362"></polygon>
                            <polygon fill="#5D2900" points="13.8831325 11.5274011 14.4858434 17.4663842 14.9846386 10.6819209 12.1996988 7.65056497"></polygon>
                            <polygon fill="#A8633A" points="4.07349398 27.0759887 1.35090361 21.6937853 0 13.4864407 0 9.87768362 1.7873494 11.1768362 1.7873494 13.6101695 4.63463855 18.6418079 9.5810241 21.6937853"></polygon>
                            <polygon fill="#A8633A" points="19.0165663 29.5299435 19.0165663 26.6016949 24.0876506 24.2920904 23.4433735 26.1892655 19.7855422 27.4677966"></polygon>
                            <polygon fill="#D6B795" points="23.5888554 32.7468927 20.5753012 31.880791 19.0165663 29.5299435 17.25 29.1587571 16.2731928 30.1898305 17.25 32.0251412 18.2475904 33.4480226 23.3186747 40.7274011 25.9996988 32.0251412"></polygon>
                            <polygon fill="#DBD5C3" points="27.1012048 63.0810734 25.7087349 58.2350282 23.3186747 57.5751412 19.4945783 54.2963277 18.351506 50.2957627 13.5921687 56.1110169 11.3475904 56.8740113 15.1716867 64.7720339 21.1156627 68.9581921 25.7087349 66.6485876 30.0939759 64.4420904"></polygon>
                        </g>
                        <polygon id="Path" fill="#2D2113" points="54.0153614 10.6819209 59.0033133 5.11412429 64.3237952 3.52627119 66.4021084 4.00056497 67.2126506 7.44435028 67.2126506 13.6101695 64.3653614 18.6418079 59.4189759 21.6937853 54.5141566 17.4663842"></polygon>
                        <g transform="translate(43.021084, 26.189266)" id="Path">
                            <polygon fill="#2C1800" points="0.0415662651 5.83587571 0.0415662651 3.44378531 2.53554217 0 6.19337349 1.27853107 6.9623494 3.34067797 5.40361446 5.69152542 2.39006024 6.55762712"></polygon>
                            <g transform="translate(0.831325, 0.000000)">
                                <g>
                                    <path d="M2.34849398,4.14491525 C3.49156627,4.14491525 4.44759036,3.36129944 4.69698795,2.30960452 C4.71777108,2.41271186 4.71777108,2.51581921 4.71777108,2.63954802 C4.71777108,4.00056497 3.67861446,5.09350282 2.39006024,5.09350282 C1.10150602,5.09350282 0.0623493976,4.00056497 0.0623493976,2.63954802 C0.0623493976,2.61892655 0.0623493976,2.59830508 0.0623493976,2.57768362 C0.415662651,3.48502825 1.30933735,4.14491525 2.34849398,4.14491525 Z" fill="#4D2F00"></path>
                                    <path d="M2.34849398,4.14491525 C1.30933735,4.14491525 0.415662651,3.48502825 0.0623493976,2.57768362 C0.103915663,1.2579096 1.12228916,0.18559322 2.39006024,0.18559322 C3.5746988,0.18559322 4.55150602,1.11355932 4.69698795,2.30960452 C4.44759036,3.36129944 3.49156627,4.14491525 2.34849398,4.14491525 Z" fill="#2C1800"></path>
                                </g>
                                <path d="M3.36686747,2.70141243 L4.57228916,2.33022599 C4.57228916,2.33022599 4.11506024,1.09293785 2.30692771,1.36101695 C2.30692771,1.38163842 3.22138554,2.16525424 3.36686747,2.70141243 Z" fill="#ECD9CB"></path>
                            </g>
                        </g>
                        <polygon id="Path" fill="#2C1800" points="34.5 26.1892655 35.7677711 13.9607345 34.5 14.1669492"></polygon>
                        <polygon id="Path" fill="#262626" points="40.3192771 43.6556497 36.8069277 42.0059322 34.5 42.0059322 34.5 42.0059322 32.1930723 42.0059322 28.6807229 43.6556497 27.5584337 46.4189266 28.1195783 48.8522599 31.0292169 52.110452 34.5 53.1415254 34.5 53.1415254 34.5 53.1415254 34.5 53.1415254 34.5 53.1415254 37.9707831 52.110452 40.8804217 48.8522599 41.4415663 46.4189266"></polygon>
                        <polygon id="Path" fill="#000000" points="36.0379518 48.2542373 37.2641566 48.6666667 38.8436747 48.6666667 40.0075301 46.6251412 37.7629518 45.0372881 34.5 44.3567797 34.5 44.3567797 34.5 44.3567797 34.5 44.3567797 34.5 44.3567797 31.2370482 45.0372881 28.9924699 46.6251412 30.1563253 48.6666667 31.7358434 48.6666667 32.9620482 48.2542373 31.9021084 49.6152542 29.1379518 49.9864407 31.0292169 52.110452 34.5 53.1415254 34.5 53.1415254 34.5 53.1415254 34.5 53.1415254 34.5 53.1415254 37.9707831 52.110452 39.8620482 49.9864407 37.0978916 49.6152542"></polygon>
                        <polygon id="Path" fill="#000000" points="45.2240964 56.1110169 42.3560241 56.1110169 34.5 54.3581921 34.5 54.3581921 34.5 54.3581921 34.5 54.3581921 34.5 54.3581921 26.6439759 56.1110169 23.7759036 56.1110169 21.5521084 53.1415254 21.5521084 55.2861582 23.3186747 57.5751412 26.6439759 58.5031073 31.0292169 56.4822034 34.5 57.4926554 34.5 57.4926554 34.5 57.4926554 34.5 57.4926554 34.5 57.4926554 37.9707831 56.4822034 42.3560241 58.5031073 45.6813253 57.5751412 47.4478916 55.2861582 47.4478916 53.1415254"></polygon>
                        <polygon id="Path" fill="#918A85" points="42.3560241 58.5031073 37.9707831 56.4822034 34.5 57.4926554 31.0292169 56.4822034 26.6439759 58.5031073 31.0292169 60.8539548 34.5 61.5344633 34.5 61.5344633 34.5 61.5344633 34.5 61.5344633 34.5 61.5344633 37.9707831 60.8539548"></polygon>
                        <polygon id="Path" fill="#5C524A" points="42.3560241 56.1110169 39.8620482 49.9864407 37.9707831 52.110452 34.5 53.1415254 31.0292169 52.110452 29.1379518 49.9864407 26.6439759 56.1110169 34.5 54.3581921"></polygon>
                        <polygon id="Path" fill="#EBE8DB" points="42.3560241 58.5031073 37.9707831 60.8539548 34.5 61.5344633 31.0292169 60.8539548 26.6439759 58.5031073 25.7087349 58.2350282 27.1012048 63.0810734 31.7358434 65.2050847 34.5 65.9268362 34.5 65.9268362 34.5 65.9268362 34.5 65.9268362 34.5 65.9268362 37.2641566 65.2050847 41.8987952 63.0810734 43.2912651 58.2350282"></polygon>
                        <polygon id="Path" fill="#A8633A" points="45.5566265 9.1559322 50.3159639 9.40338983 58.7539157 2.78389831 63.7626506 0.164971751 67.275 1.07231638 69 3.65 69 9.87768362 67.2126506 11.1768362 67.2126506 7.44435028 66.4021084 4.00056497 64.3237952 3.52627119 59.0033133 5.11412429 54.0153614 10.6819209 54.5141566 17.4663842 59.4189759 21.6937853 62.6403614 32.0251412 56.613253 34.3553672 51.75 29.1587571 49.9834337 29.5299435 51.3551205 25.6737288 49.5885542 23.8177966 48.778012 22.9723164 45.5150602 22.4361582 44.1433735 16.8683616 40.9635542 16.620904 38.2825301 13.9607345 36.0379518 17.2189266 34.5 27.4471751 34.5 10.6819209"></polygon>
                        <polygon id="Path" fill="#CC8E58" points="63.513253 51.9248588 64.1783133 44.2330508 60.6036145 35.9844633 56.613253 34.3553672 62.6403614 32.0251412 47.4478916 11.1768362 54.5141566 17.4663842 59.4189759 21.6937853 64.926506 27.0759887 65.9864458 39.139548 66.5891566 46.9550847"></polygon>
                        <polygon id="Path" fill="#A8633A" points="50.3159639 9.40338983 46.0554217 8.16610169 41.4415663 7.38248588 34.5 8.16610169 27.5584337 7.38248588 22.9445783 8.16610169 18.6840361 9.40338983 23.4433735 9.1559322 34.5 10.6819209 34.5 10.6819209 34.5 10.6819209 34.5 10.6819209 34.5 10.6819209 45.5566265 9.1559322"></polygon>
                        <polygon id="Path" fill="#A8633A" points="49.5054217 21.9412429 44.1433735 16.8683616 45.5150602 22.4361582 48.778012 22.9723164 49.8587349 24.1064972"></polygon>
                        <polygon id="Path" fill="#EBE8DB" points="45.6813253 57.5751412 49.5054217 54.2963277 52.7268072 42.9338983 50.9810241 37.0567797 51.75 32.0251412 45.6813253 40.7274011 41.4415663 38.830226 36.3912651 39.139548 36.8069277 42.0059322 40.3192771 43.6556497 41.4415663 46.4189266 40.8804217 48.8522599 39.8620482 49.9864407 42.3560241 56.1110169 45.2240964 56.1110169 47.4478916 53.1415254 47.4478916 55.2861582"></polygon>
                        <polygon id="Path" fill="#A8633A" points="34.5 27.4471751 44.1433735 16.8683616 40.9635542 16.620904 38.2825301 13.9607345 38.7813253 11.8367232 34.5 10.6819209 34.5 10.6819209 34.5 10.6819209 34.5 10.6819209 34.5 10.6819209 30.2186747 11.8367232 30.7174699 13.9607345 28.0364458 16.620904 24.8566265 16.8683616 34.5 27.4471751 34.5 27.4471751 34.5 27.4471751"></polygon>
                        <polygon id="Path" fill="#5D2900" points="54.5141566 17.4663842 54.0153614 10.6819209 49.9834337 12.0223164 47.4478916 11.1768362"></polygon>
                        <polygon id="Path" fill="#5D2900" points="55.1168675 11.5274011 54.5141566 17.4663842 54.0153614 10.6819209 56.8003012 7.65056497"></polygon>
                        <polygon id="Path" fill="#A8633A" points="64.926506 27.0759887 67.6490964 21.6937853 69 13.4864407 69 9.87768362 67.2126506 11.1768362 67.2126506 13.6101695 64.3653614 18.6418079 59.4189759 21.6937853"></polygon>
                        <polygon id="Path" fill="#A8633A" points="49.9834337 29.5299435 49.9834337 26.6016949 44.9123494 24.2920904 45.5566265 26.1892655 49.2144578 27.4677966"></polygon>
                        <polygon id="Path" fill="#CC8E58" points="39.9659639 30.0042373 41.4415663 19.8378531 34.5 27.4471751"></polygon>
                        <polygon id="Path" fill="#807664" points="47.8843373 68.9581921 38.9060241 64.4420904 37.2641566 65.2050847 34.5 65.9268362 31.7358434 65.2050847 30.0939759 64.4420904 21.1156627 68.9581921 23.3186747 70.5254237 34.5 72.8350282 34.5 72.8350282 34.5 72.8350282 34.5 72.8350282 34.5 72.8350282 45.6813253 70.5254237"></polygon>
                        <g transform="translate(4.780120, 31.550847)" fill="#DBD5C3" id="Path">
                            <polygon points="9.22771084 1.07231638 7.60662651 2.80451977 3.61626506 4.43361582 0.0415662651 12.6822034 0.706626506 20.3740113 5.50753012 24.4364407 5.50753012 19.1985876 7.14939759 14.5175141 10.4331325 8.45480226 10.2045181 0"></polygon>
                            <polygon points="55.823494 4.43361582 51.8331325 2.80451977 50.2120482 1.07231638 49.235241 0 49.0066265 8.45480226 52.2903614 14.5175141 53.9322289 19.1985876 53.9322289 24.4364407 58.7331325 20.3740113 59.3981928 12.6822034"></polygon>
                        </g>
                        <polygon id="Path" fill="#D6B795" points="51.75 29.1587571 49.9834337 29.5299435 48.4246988 31.880791 45.4111446 32.7468927 43.0003012 32.0251412 45.6813253 40.7274011 50.7524096 33.4480226 51.75 32.0251412 52.7268072 30.1898305"></polygon>
                        <polygon id="Path" fill="#CFC7AF" points="54.0153614 31.5508475 52.7268072 30.1898305 51.75 32.0251412 50.9810241 37.0567797 52.7268072 42.9338983 50.648494 50.2957627 55.4078313 56.1110169 57.6524096 56.8740113 62.0584337 53.1415254"></polygon>
                        <polygon id="Path" fill="#DBD5C3" points="55.4078313 56.1110169 50.648494 50.2957627 49.5054217 54.2963277 45.6813253 57.5751412 43.2912651 58.2350282 41.8987952 63.0810734 38.9060241 64.4420904 43.2912651 66.6485876 47.8843373 68.9581921 53.8283133 64.7720339 57.6524096 56.8740113"></polygon>
                        <polygon id="Path" fill="#CFC7AF" points="14.9846386 31.5508475 16.2731928 30.1898305 17.25 32.0251412 18.0189759 37.0567797 16.2731928 42.9338983 18.351506 50.2957627 13.5921687 56.1110169 11.3475904 56.8740113 6.94156627 53.1415254"></polygon>
                        <g transform="translate(18.912651, 26.189266)" id="Path">
                            <polygon fill="#2C1800" points="7.0246988 5.83587571 7.0246988 3.44378531 4.53072289 0 0.872891566 1.27853107 0.103915663 3.34067797 1.6626506 5.69152542 4.67620482 6.55762712"></polygon>
                            <g transform="translate(1.454819, 0.000000)">
                                <g>
                                    <path d="M2.43162651,4.14491525 C1.28855422,4.14491525 0.33253012,3.36129944 0.0831325301,2.30960452 C0.0623493976,2.41271186 0.0623493976,2.51581921 0.0623493976,2.63954802 C0.0623493976,4.00056497 1.10150602,5.09350282 2.39006024,5.09350282 C3.67861446,5.09350282 4.71777108,4.00056497 4.71777108,2.63954802 C4.71777108,2.61892655 4.71777108,2.59830508 4.71777108,2.57768362 C4.36445783,3.48502825 3.47078313,4.14491525 2.43162651,4.14491525 Z" fill="#4D2F00"></path>
                                    <path d="M2.43162651,4.14491525 C3.47078313,4.14491525 4.36445783,3.48502825 4.71777108,2.57768362 C4.67620482,1.2579096 3.65783133,0.18559322 2.39006024,0.18559322 C1.20542169,0.18559322 0.228614458,1.11355932 0.0831325301,2.30960452 C0.33253012,3.36129944 1.28855422,4.14491525 2.43162651,4.14491525 Z" fill="#2C1800"></path>
                                </g>
                                <path d="M1.41325301,2.70141243 L0.207831325,2.33022599 C0.207831325,2.33022599 0.665060241,1.09293785 2.47319277,1.36101695 C2.47319277,1.38163842 1.55873494,2.16525424 1.41325301,2.70141243 Z" fill="#ECD9CB"></path>
                            </g>
                        </g>
                        <polygon id="Path" fill="#D9AA8B" points="34.5 27.4471751 34.5 27.4471751 32.1930723 42.0059322 34.5 42.0059322 34.5 42.0059322 36.8069277 42.0059322"></polygon>
                    </g>
                    <g id="Group" transform="translate(58.384615, 57.072727)" fill="#CC8E58">
                        <g transform="translate(1.010989, 1.858182)" id="Path">
                            <path d="M0.227472527,0.398181818 C0.227472527,0.265454545 0.227472527,0.159272727 0.227472527,0.0265454545 L1.36483516,0.0265454545 C1.36483516,0.159272727 1.36483516,0.265454545 1.36483516,0.398181818 L0.985714286,0.398181818 L0.985714286,1.61927273 C0.859340659,1.61927273 0.732967033,1.61927273 0.606593407,1.61927273 L0.606593407,0.398181818 L0.227472527,0.398181818 Z"></path>
                            <path d="M2.93186813,0.0265454545 L3.05824176,0.0265454545 L3.05824176,1.61927273 C2.93186813,1.61927273 2.80549451,1.61927273 2.65384615,1.61927273 L2.65384615,0.902545455 L2.32527473,1.24763636 L2.27472527,1.24763636 L1.94615385,0.902545455 L1.94615385,1.61927273 C1.81978022,1.61927273 1.69340659,1.61927273 1.54175824,1.61927273 L1.54175824,0.0265454545 L1.69340659,0.0265454545 L2.27472527,0.716727273 L2.93186813,0.0265454545 Z"></path>
                        </g>
                        <path d="M2.65384615,5.28254545 C1.28901099,5.28254545 0.176923077,4.11454545 0.176923077,2.68109091 C0.176923077,1.24763636 1.28901099,0.0796363636 2.65384615,0.0796363636 C4.01868132,0.0796363636 5.13076923,1.24763636 5.13076923,2.68109091 C5.13076923,4.11454545 4.01868132,5.28254545 2.65384615,5.28254545 Z M2.65384615,0.371636364 C1.44065934,0.371636364 0.48021978,1.40690909 0.48021978,2.65454545 C0.48021978,3.92872727 1.46593407,4.93745455 2.65384615,4.93745455 C3.86703297,4.93745455 4.82747253,3.90218182 4.82747253,2.65454545 C4.82747253,1.40690909 3.86703297,0.371636364 2.65384615,0.371636364 Z" id="Shape"></path>
                    </g>
                </g>
            </g>
            <rect id="Rectangle" x="0.17510915" y="0" width="300" height="100"></rect>
        </g>
    </g>
</svg>