<?xml version="1.0" encoding="utf-8"?>
<!-- Generator: Adobe Illustrator 24.0.1, SVG Export Plug-In . SVG Version: 6.00 Build 0)  -->
<svg version="1.1" id="ic-transaction-mint" xmlns="http://www.w3.org/2000/svg" xmlns:xlink="http://www.w3.org/1999/xlink"
	 x="0px" y="0px" viewBox="0 0 24 24" style="enable-background:new 0 0 24 24;" xml:space="preserve">
<style type="text/css">
	.st0{fill:none;}
	.st1{fill:#FDFDFD;}
</style>
<title>ic-transaction-mint</title>
<path id="Rectangle_4408" class="st0" d="M0,0h24v24H0V0z"/>
<g id="_x38_823">
	<path class="st1" d="M11.5,22.3c-0.2-0.1-0.4-0.1-0.6-0.1c-1.9-0.2-3.6-1-5.1-2.2c-1.9-1.6-3.1-3.6-3.6-6C1.2,8.8,4.5,3.6,9.7,2.3
		C15,1,20.3,4.1,21.9,9.3c0.2,0.7,0.3,1.5,0.4,2.2c0,0,0,0.1,0,0.1c0,0,0,0.1,0,0.1c0,0.2,0,0.5,0,0.7c0,0.1,0,0.1,0,0.2
		c0,0,0,0.1,0,0.1c0,0.3,0,0.6-0.1,0.9c-0.3,1.9-1,3.6-2.3,5.1c-1.8,2.1-4,3.3-6.8,3.5c-0.1,0-0.2,0-0.4,0
		C12.3,22.3,11.9,22.3,11.5,22.3z M12.1,21.4c5.1,0,9.3-4.2,9.3-9.3c0-5.1-4.2-9.3-9.3-9.3C7,2.8,2.8,7,2.8,12.1
		C2.8,17.2,7,21.4,12.1,21.4z"/>
	<path class="st1" d="M22.3,12.5c0-0.2,0-0.5,0-0.7C22.3,12,22.3,12.2,22.3,12.5z"/>
	<path class="st1" d="M12.2,20.5c-4.6,0-8.4-3.7-8.4-8.3c0-4.6,3.7-8.4,8.4-8.4c4.6,0,8.3,3.7,8.3,8.4
		C20.5,16.7,16.8,20.5,12.2,20.5z M6.1,15.5C6,15.5,6,15.5,6.1,15.5c0-0.1,0-0.1,0.1-0.1c3-3,6-6,9-8.9c0.1-0.1,0.2-0.3,0.4-0.4
		c0,0,0,0,0,0c0.1,1.2,0.3,2.5,0.4,3.7c0,0,0,0,0.1,0c0.8-0.6,1.6-1.1,2.4-1.7c0.1-0.1,0-0.1,0-0.2c-1.7-2.6-5-3.9-8-3.2
		c-4.2,1-6.7,5.2-5.5,9.4C6,18,10,20.4,13.8,19.4c3-0.7,4.9-2.7,5.7-5.7c0.1-0.3,0.1-0.6,0.1-1c-2.4,1.6-4.8,3.2-7.2,4.8
		c0.1-1.7,0.3-3.4,0.4-5.1c-0.1,0-0.1,0-0.1,0.1c-1.3,0.6-2.6,1.2-3.8,1.8C7.9,14.7,7,15.1,6.1,15.5z M9.2,13.3
		C9.2,13.3,9.2,13.3,9.2,13.3c1.5-0.6,2.9-1.3,4.4-2c-0.1,1.6-0.2,3.2-0.4,4.9c0,0,0.1,0,0.1-0.1c2.1-1.4,4.2-2.8,6.3-4.1
		c0.1,0,0.1-0.1,0.1-0.2c-0.1-1.1-0.3-2.1-0.8-3c-0.1-0.1-0.1-0.1-0.2,0c-1.1,0.8-2.1,1.5-3.2,2.2c0,0-0.1,0.1-0.1,0.1
		c-0.1-1.1-0.2-2.3-0.4-3.5C13.1,9.5,11.2,11.4,9.2,13.3z"/>
	<path class="st1" d="M6.1,15.5C6,15.5,6,15.6,6.1,15.5C6,15.5,6,15.5,6.1,15.5C6,15.5,6,15.5,6.1,15.5z"/>
</g>
</svg>
