<?xml version="1.0" encoding="utf-8"?>
<!-- Generator: Adobe Illustrator 24.0.1, SVG Export Plug-In . SVG Version: 6.00 Build 0)  -->
<svg version="1.1" id="ic-transaction-received" xmlns="http://www.w3.org/2000/svg" xmlns:xlink="http://www.w3.org/1999/xlink"
	 x="0px" y="0px" viewBox="0 0 24.3199997 24" style="enable-background:new 0 0 24.3199997 24;" xml:space="preserve">
<style type="text/css">
	.st0{fill:none;}
	.st1{fill:#FFFFFF;}
</style>
<title>ic-transaction-received</title>
<path id="Rectangle_4413" class="st0" d="M0,0h24v24H0V0z"/>
<path id="Rectangle_4408" class="st0" d="M0.32,0h24v24h-24V0z"/>
<g id="Group_8834">
	<path class="st1" d="M1.0688081,14.3816776c0.0738133,0.5375996,0.1658969,1.0673246,0.3331226,1.579998
		c0.3480041,0.9442291,0.8627356,1.8153076,1.5186473,2.5699997c0.7850549,0.9023037,1.7163596,1.6600227,2.753161,2.2399998
		c1.0633221,0.6063919,2.2091432,1.0478935,3.3998113,1.3100014c0.472291,0.1083946,0.949749,0.1918392,1.4304686,0.25
		c0.2547407,0,0.5094814,0.0499992,0.7740202,0.0599995l0,0h1.2639065c1.781127-0.0815353,3.5276003-0.5305691,5.1340075-1.3199997
		c1.0452175-0.5083408,2.004364-1.1834774,2.841341-2c0.6867371-0.6596127,1.2626705-1.429863,1.7048035-2.2800007
		c0.3407631-0.6618137,0.5787449-1.3736305,0.7054367-2.1099997c0.0601883-0.3733969,0.1171207-0.7529364,0.1090755-1.1312637
		l-0.0012989-0.148737c-0.037878-0.5522852-0.5072441-0.9686594-1.048357-0.9299994
		c-0.5411148,0.0386591-0.9255486,0.5226355-0.930109,1.0718279c-0.0273609,0.1846151-0.0425606,0.383193-0.0547199,0.5631542
		c-0.0572605,0.4674311-0.1022568,0.9098883-0.2790775,1.3450174c-0.3476448,0.8240585-0.8579426,1.5661583-1.499054,2.1800003
		c-0.6804981,0.6632538-1.4612579,1.2102661-2.3122616,1.6200008c-2.1428776,1.0756073-4.5659389,1.4259033-6.9171944,1
		c-0.7679253-0.136797-1.5198536-0.3546314-2.2436795-0.6499996c-0.9745932-0.3913631-1.8785453-0.9456081-2.6747794-1.6400013
		c-0.5828528-0.5152817-1.0763938-1.1271954-1.4598615-1.8099995c-0.4469535-0.7756929-0.5593224-1.6726847-0.676043-2.5599995
		c0.0046916-0.0432014-0.0275395-0.2130575-0.0322313-0.256259c-0.0998898-0.5427933-0.5797558-0.7739058-1.1115694-0.6719542
		c-0.3282349,0.0629253-0.7590015,0.3634272-0.7495582,0.7357149C1.0147617,13.4651308,1.0751034,14.2943392,1.0688081,14.3816776"
		/>
	<path class="st1" d="M14.1659012,3.1689947L13.244915,2.2289951l-0.5192795-0.54
		c-0.1702528-0.1731119-0.3969059-0.2763214-0.6368513-0.29c-0.2820911-0.0156879-0.5570869,0.0936651-0.754425,0.3000002
		l-0.9797726,1L7.7679877,5.3489952C7.5376525,5.5542917,7.414443,5.8575802,7.4348631,6.1689949
		c-0.0009346,0.5296774,0.4029565,0.9682198,0.9209862,1c0.2833662,0.0242329,0.5618114-0.0864916,0.7544241-0.3000002l1.8713665-2
		l0.0685835-0.0600004c0.0049782,0.0331402,0.0049782,0.0668602,0,0.1000004c0,1,0,2.0699997,0,3.0999994s0,2.0600004,0,3.1000004
		c0,0.5,0,1,0,1.5199995c-0.0096493,0.0696535-0.0096493,0.1403465,0,0.21
		c0.037878,0.5522852,0.5072441,0.9686604,1.048357,0.9300003c0.5411139-0.03866,0.9490662-0.5177155,0.9111881-1.0699997
		c0-0.25,0-0.4900007,0-0.7400007c0-2.3466663,0-4.7033329,0-7.0699997V4.7889938l0.0685844,0.0600004l1.8321753,1.8900003
		c0.3807898,0.3923883,1.0011406,0.3954182,1.3855915,0.0067673c0.1098175-0.1110153,0.1923409-0.2469749,0.2408314-0.3967676
		c0.1206608-0.3533802,0.0244541-0.7461481-0.2449436-1C15.5865717,4.6089945,14.8713379,3.8889949,14.1659012,3.1689947z"/>
</g>
</svg>
