<?xml version="1.0" encoding="utf-8"?>
<!-- Generator: Adobe Illustrator 24.0.1, SVG Export Plug-In . SVG Version: 6.00 Build 0)  -->
<svg version="1.1" id="Layer_1" xmlns="http://www.w3.org/2000/svg" xmlns:xlink="http://www.w3.org/1999/xlink" x="0px" y="0px"
	 viewBox="0 0 70 40" style="enable-background:new 0 0 70 40;" xml:space="preserve">
<style type="text/css">
	.st0{fill:#FFFFFF;}
</style>
<title>Address Book Send</title>
<desc>Created with Sketch.</desc>
<g id="group_8927">
	<path class="st0" d="M27,15.6c0-3.4-2.8-6.1-6.2-6c-3.2,0.1-5.8,2.7-5.8,5.9c0,2.1,1,3.9,2.6,5c-1.5,0.5-2.8,1.3-4,2.5
		c-1.8,1.8-2.8,4-3,6.5c0,0.5,0.3,0.9,0.8,0.9l0,0c0.4,0,0.8-0.3,0.8-0.7c0.4-4.5,4.2-8.1,8.8-8.1C24.3,21.6,27,18.9,27,15.6
		L27,15.6z M21,20c-2.4,0-4.4-2-4.4-4.4s2-4.4,4.4-4.4s4.4,2,4.4,4.4S23.4,20,21,20L21,20z M24.5,25.5h6.1c0.4,0,0.8,0.4,0.8,0.8
		l0,0c0,0.4-0.4,0.8-0.8,0.8h-6.1c-0.4,0-0.8-0.4-0.8-0.8l0,0C23.7,25.9,24,25.5,24.5,25.5z M31.4,23.1L31.4,23.1
		c0,0.4-0.4,0.8-0.8,0.8h-6.1c-0.4,0-0.8-0.4-0.8-0.8l0,0c0-0.4,0.4-0.8,0.8-0.8h6.1C31,22.3,31.4,22.6,31.4,23.1z M24.5,28.8h6.1
		c0.4,0,0.8,0.4,0.8,0.8l0,0c0,0.4-0.4,0.8-0.8,0.8h-6.1c-0.4,0-0.8-0.4-0.8-0.8l0,0C23.7,29.2,24,28.8,24.5,28.8z"/>
</g>
</svg>
