<?xml version="1.0" encoding="utf-8"?>
<!-- Generator: Adobe Illustrator 24.0.1, SVG Export Plug-In . SVG Version: 6.00 Build 0)  -->
<svg version="1.1" id="Layer_1" xmlns="http://www.w3.org/2000/svg" xmlns:xlink="http://www.w3.org/1999/xlink" x="0px" y="0px"
	 viewBox="0 0 24 24" style="enable-background:new 0 0 24 24;" xml:space="preserve">
<style type="text/css">
	.st0{fill:none;}
	.st1{fill:#FFC038;}
</style>
<title>Artboard</title>
<desc>Created with Sketch.</desc>
<g id="Artboard">
	<g id="ic-arrow-right">
		<g id="ic_chevron_right" transform="translate(12.000000, 12.000000) rotate(-90.000000) translate(-12.000000, -12.000000) ">
			<g id="Group_8822" transform="translate(4.000000, 7.000000)">
			</g>
			<polygon id="Rectangle_4407" class="st0" points="0,0 24,0 24,24 0,24 			"/>
			<path id="Path_18879" class="st1" d="M11.6,8.1l-6.8,6.3c-0.2,0.2-0.3,0.6,0,0.8l0.5,0.6c0.2,0.2,0.6,0.3,0.8,0l5.5-5.1
				c0.2-0.2,0.6-0.2,0.8,0l5.5,5.1c0.2,0.2,0.6,0.2,0.8,0l0.5-0.6c0.2-0.2,0.2-0.6,0-0.8l-6.8-6.3C12.2,7.9,11.8,7.9,11.6,8.1z"/>
		</g>
	</g>
</g>
</svg>
