<?xml version="1.0" encoding="utf-8"?>
<!-- Generator: Adobe Illustrator 24.0.1, SVG Export Plug-In . SVG Version: 6.00 Build 0)  -->
<svg version="1.1" id="Layer_1" xmlns="http://www.w3.org/2000/svg" xmlns:xlink="http://www.w3.org/1999/xlink" x="0px" y="0px"
	 viewBox="0 0 40 40" style="enable-background:new 0 0 40 40;" xml:space="preserve">
<style type="text/css">
	.st0{fill-rule:evenodd;clip-rule:evenodd;fill:#FFC038;}
	.st1{fill:none;}
</style>
<title>ComboBox</title>
<desc>Created with Sketch.</desc>
<g id="ComboBox">
	<g id="ic-arrow-drop-down" transform="translate(0.000000, 8.000000)">
		<g id="Group_8822" transform="translate(4.319000, 7.767000)">
			<path id="Path_18879" class="st0" d="M7.3,8.2L0.4,1.9C0.2,1.6,0.2,1.3,0.4,1L1,0.4c0.2-0.2,0.6-0.3,0.8,0l5.5,5.1
				c0.2,0.2,0.6,0.2,0.8,0l5.5-5.1c0.2-0.2,0.6-0.2,0.8,0L15,1c0.2,0.2,0.2,0.6,0,0.8L8.1,8.2C7.9,8.4,7.5,8.4,7.3,8.2z"/>
		</g>
		<polygon id="Rectangle_4407" class="st1" points="0,0 24,0 24,24 0,24 		"/>
	</g>
</g>
</svg>
