<?xml version="1.0" encoding="utf-8"?>
<!-- Generator: Adobe Illustrator 24.0.1, SVG Export Plug-In . SVG Version: 6.00 Build 0)  -->
<svg version="1.1" id="Layer_1" xmlns="http://www.w3.org/2000/svg" xmlns:xlink="http://www.w3.org/1999/xlink" x="0px" y="0px"
	 viewBox="0 0 26 26" style="enable-background:new 0 0 26 26;" xml:space="preserve">
<style type="text/css">
	.st0{fill:none;}
	.st1{fill:#808080;}
</style>
<path id="Rectangle_4535" class="st0" d="M1,1h24v24H1V1z"/>
<g id="group_8927">
	<path class="st1" d="M19,8.6c0-3.4-2.8-6.1-6.2-6C9.6,2.7,7,5.3,7,8.5c0,2.1,1,3.9,2.6,5c-1.5,0.5-2.8,1.3-4,2.5
		c-1.8,1.8-2.8,4-3,6.5c0,0.5,0.3,0.9,0.8,0.9l0,0c0.4,0,0.8-0.3,0.8-0.7c0.4-4.5,4.2-8.1,8.8-8.1C16.3,14.6,19,11.9,19,8.6L19,8.6z
		 M13,13c-2.4,0-4.4-2-4.4-4.4s2-4.4,4.4-4.4s4.4,2,4.4,4.4S15.4,13,13,13L13,13z M16.5,18.5h6.1c0.4,0,0.8,0.4,0.8,0.8l0,0
		c0,0.4-0.4,0.8-0.8,0.8h-6.1c-0.4,0-0.8-0.4-0.8-0.8l0,0C15.7,18.9,16,18.5,16.5,18.5z M23.4,16.1L23.4,16.1c0,0.4-0.4,0.8-0.8,0.8
		h-6.1c-0.4,0-0.8-0.4-0.8-0.8l0,0c0-0.4,0.4-0.8,0.8-0.8h6.1C23,15.3,23.4,15.6,23.4,16.1z M16.5,21.8h6.1c0.4,0,0.8,0.4,0.8,0.8
		l0,0c0,0.4-0.4,0.8-0.8,0.8h-6.1c-0.4,0-0.8-0.4-0.8-0.8l0,0C15.7,22.2,16,21.8,16.5,21.8z"/>
</g>
</svg>
