<?xml version="1.0" encoding="utf-8"?>
<!-- Generator: Adobe Illustrator 24.0.1, SVG Export Plug-In . SVG Version: 6.00 Build 0)  -->
<svg version="1.1" id="ic-add" xmlns="http://www.w3.org/2000/svg" xmlns:xlink="http://www.w3.org/1999/xlink" x="0px" y="0px"
	 viewBox="0 0 20 20" style="enable-background:new 0 0 20 20;" xml:space="preserve">
<style type="text/css">
	.st0{fill:#FFC038;}
	.st1{fill:none;}
</style>
<path id="Path_18916" class="st0" d="M17.4,9h-5.8C11.3,9,11,8.7,11,8.4V2.6C11,2.3,10.7,2,10.4,2H9.6C9.3,2,9,2.3,9,2.6v5.8
	C9,8.7,8.7,9,8.4,9H2.6C2.3,9,2,9.3,2,9.6v0.8C2,10.7,2.3,11,2.6,11h5.8C8.7,11,9,11.3,9,11.6v5.8C9,17.7,9.3,18,9.6,18h0.8
	c0.3,0,0.6-0.3,0.6-0.6v-5.8c0-0.3,0.3-0.6,0.6-0.6h5.8c0.3,0,0.6-0.3,0.6-0.6V9.6C18,9.3,17.7,9,17.4,9z"/>
<path id="Rectangle_4529" class="st1" d="M0,0h20v20H0V0z"/>
</svg>
