<?xml version="1.0" encoding="utf-8"?>
<!-- Generator: Adobe Illustrator 24.0.1, SVG Export Plug-In . SVG Version: 6.00 Build 0)  -->
<svg version="1.1" id="ic-add_label" xmlns="http://www.w3.org/2000/svg" xmlns:xlink="http://www.w3.org/1999/xlink" x="0px"
	 y="0px" viewBox="0 0 24 24" style="enable-background:new 0 0 24 24;" xml:space="preserve">
<style type="text/css">
	.st0{fill:#FFC038;}
	.st1{fill:none;}
	.st2{fill:#FFFFFF;}
</style>
<g id="Group_8927">
	<path id="Path_18922" class="st0" d="M14.4,6.9h-1.7c-0.2,0-0.3-0.1-0.3-0.3V4.9c0-0.2-0.1-0.3-0.3-0.3h-0.5
		c-0.2,0-0.3,0.1-0.3,0.3v1.7c0,0.2-0.1,0.3-0.3,0.3H9.3C9.1,6.9,9,7,9,7.2v0.5C9,7.9,9.1,8,9.3,8H11c0.2,0,0.3,0.1,0.3,0.3V10
		c0,0.2,0.1,0.3,0.3,0.3h0.5c0.2,0,0.3-0.1,0.3-0.3V8.3c0-0.2,0.1-0.3,0.3-0.3h1.7c0.2,0,0.3-0.1,0.3-0.3V7.2
		C14.7,7,14.5,6.9,14.4,6.9z"/>
</g>
<path id="Rectangle_4535" class="st1" d="M0,0h24v24H0V0z"/>
<g id="group_8927">
	<path class="st2" d="M18,7.6c0-3.4-2.8-6.1-6.2-6C8.6,1.7,6,4.3,6,7.5c0,2.1,1,3.9,2.6,5c-1.5,0.5-2.8,1.3-4,2.5
		c-1.8,1.8-2.8,4-3,6.5c0,0.5,0.3,0.9,0.8,0.9l0,0c0.4,0,0.8-0.3,0.8-0.7c0.4-4.5,4.2-8.1,8.8-8.1C15.3,13.6,18,10.9,18,7.6L18,7.6z
		 M12,12c-2.4,0-4.4-2-4.4-4.4s2-4.4,4.4-4.4s4.4,2,4.4,4.4S14.4,12,12,12L12,12z M15.5,17.5h6.1c0.4,0,0.8,0.4,0.8,0.8l0,0
		c0,0.4-0.4,0.8-0.8,0.8h-6.1c-0.4,0-0.8-0.4-0.8-0.8l0,0C14.7,17.9,15,17.5,15.5,17.5z M22.4,15.1L22.4,15.1c0,0.4-0.4,0.8-0.8,0.8
		h-6.1c-0.4,0-0.8-0.4-0.8-0.8l0,0c0-0.4,0.4-0.8,0.8-0.8h6.1C22,14.3,22.4,14.6,22.4,15.1z M15.5,20.8h6.1c0.4,0,0.8,0.4,0.8,0.8
		l0,0c0,0.4-0.4,0.8-0.8,0.8h-6.1c-0.4,0-0.8-0.4-0.8-0.8l0,0C14.7,21.2,15,20.8,15.5,20.8z"/>
</g>
</svg>
