<?xml version="1.0" encoding="utf-8"?>
<!-- Generator: Adobe Illustrator 24.0.1, SVG Export Plug-In . SVG Version: 6.00 Build 0)  -->
<svg version="1.1" id="Layer_1" xmlns="http://www.w3.org/2000/svg" xmlns:xlink="http://www.w3.org/1999/xlink" x="0px" y="0px"
	 viewBox="0 0 50 50" style="enable-background:new 0 0 50 50;" xml:space="preserve">
<style type="text/css">
	.st0{fill:#FFC038;}
	.st1{fill:none;}
</style>
<g id="ic_chevron_left" transform="rotate(-90 26 26)">
	<g id="Group_8822" transform="translate(16.266 19)">
		<path id="Path_18879" class="st0" d="M10.3,11.6L0.4,2.5c-0.2-0.2-0.3-0.6,0-0.8l1.1-1.2c0.2-0.2,0.6-0.3,0.8,0l8,7.4
			c0.2,0.2,0.6,0.2,0.8,0l8-7.4c0.2-0.2,0.6-0.2,0.8,0L21,1.6c0.2,0.2,0.2,0.6,0,0.8l-9.9,9.2C10.9,11.8,10.5,11.8,10.3,11.6z"/>
	</g>
	<path id="Rectangle_4407" class="st1" d="M2,0h50v50H2V0z"/>
</g>
</svg>
