<?xml version="1.0" encoding="utf-8"?>
<!-- Generator: Adobe Illustrator 24.0.1, SVG Export Plug-In . SVG Version: 6.00 Build 0)  -->
<svg version="1.1" id="Layer_1" xmlns="http://www.w3.org/2000/svg" xmlns:xlink="http://www.w3.org/1999/xlink" x="0px" y="0px"
	 viewBox="0 0 22 22" style="enable-background:new 0 0 22 22;" xml:space="preserve">
<style type="text/css">
	.st0{fill-rule:evenodd;clip-rule:evenodd;fill:#5AD88C;}
	.st1{fill:none;}
</style>
<title>ic-check-active</title>
<desc>Created with Sketch.</desc>
<g id="Page-1">
	<g id="ic-check-active" transform="translate(-1.000000, -1.000000)">
		<g id="Group_8199" transform="translate(1.000000, 1.000000)">
			<path id="check_on_light" class="st0" d="M19.6,0H2.4C1.1,0,0,1.1,0,2.4v17.1C0,20.9,1.1,22,2.4,22h17.1c1.3,0,2.4-1.1,2.4-2.4
				V2.4C22,1.1,20.9,0,19.6,0z M3.6,10h14.8c0.3,0,0.6,0.3,0.6,0.6v1.8c0,0.3-0.3,0.6-0.6,0.6H3.6C3.3,13,3,12.7,3,12.4v-1.8
				C3,10.3,3.3,10,3.6,10z"/>
		</g>
		<polygon id="Rectangle_4538" class="st1" points="0,0 24,0 24,24 0,24 		"/>
	</g>
</g>
</svg>
