<?xml version="1.0" encoding="utf-8"?>
<!-- Generator: Adobe Illustrator 24.0.1, SVG Export Plug-In . SVG Version: 6.00 Build 0)  -->
<svg version="1.1" id="Layer_1" xmlns="http://www.w3.org/2000/svg" xmlns:xlink="http://www.w3.org/1999/xlink" x="0px" y="0px"
	 viewBox="0 0 30 22" style="enable-background:new 0 0 30 22;" xml:space="preserve">
<style type="text/css">
	.st0{fill-rule:evenodd;clip-rule:evenodd;fill:#FFC038;}
	.st1{fill:none;}
</style>
<title>Clear Purple</title>
<desc>Created with Sketch.</desc>
<g id="Clear-Purple">
	<g id="ic-clear-purple" transform="translate(5.000000, 3.000000)">
		<path id="Path_18950" class="st0" d="M13.3,3.3l-0.6-0.6c-0.2-0.2-0.6-0.2-0.8,0L8.4,6.2c-0.2,0.2-0.6,0.2-0.8,0L4.1,2.7
			c-0.2-0.2-0.6-0.2-0.8,0L2.7,3.3c-0.2,0.2-0.2,0.6,0,0.8l3.4,3.4c0.2,0.2,0.2,0.6,0,0.8l-3.4,3.4c-0.2,0.2-0.2,0.6,0,0.8l0.6,0.6
			c0.2,0.2,0.6,0.2,0.8,0l3.4-3.4c0.2-0.2,0.6-0.2,0.8,0l3.4,3.4c0.2,0.2,0.6,0.2,0.8,0l0.6-0.6c0.2-0.2,0.2-0.6,0-0.8L9.8,8.4
			c-0.2-0.2-0.2-0.6,0-0.8l3.4-3.4C13.5,3.9,13.5,3.5,13.3,3.3z"/>
		<polygon id="Rectangle_4602" class="st1" points="0,0 16,0 16,16 0,16 		"/>
	</g>
</g>
</svg>
