<?xml version="1.0" encoding="utf-8"?>
<!-- Generator: Adobe Illustrator 24.0.1, SVG Export Plug-In . SVG Version: 6.00 Build 0)  -->
<svg version="1.1" id="Layer_1" shape-rendering="geometricPrecision"
	 xmlns="http://www.w3.org/2000/svg" xmlns:xlink="http://www.w3.org/1999/xlink" x="0px" y="0px" viewBox="0 0 24 24"
	 style="enable-background:new 0 0 24 24;" xml:space="preserve">
<style type="text/css">
	.st0{fill:#5AD88C;}
</style>
<title>Top Bar Sync</title>
<desc>Created with Sketch.</desc>
<g id="Top-Bar-Sync">
	<g id="Group" transform="translate(3.000000, 2.000000)">
		<path id="Path_18901" class="st0" d="M9,17c-2.3,0-4.4-1.1-5.7-3h2.1C5.7,14,6,13.7,6,13.4v-0.8C6,12.3,5.7,12,5.4,12H0.6
			C0.3,12,0,12.3,0,12.6v4.8C0,17.7,0.3,18,0.6,18h0.8C1.7,18,2,17.7,2,17.4v-1.8c2.4,3,6.4,4.1,10,2.9c3.4-1.2,5.7-4.3,6-7.9
			c0-0.3-0.3-0.6-0.6-0.6h-0.8c-0.3,0-0.6,0.3-0.6,0.6C15.7,14.2,12.7,17,9,17z"/>
		<path id="Path_18902" class="st0" d="M16.6,2C16.3,2,16,2.3,16,2.6v1.8c-2.4-3-6.4-4.1-10-2.9C2.6,2.7,0.3,5.8,0,9.4
			C0,9.7,0.3,10,0.6,10h0.8C1.7,10,2,9.7,2,9.4c0.2-2.8,2.1-5.2,4.9-6.1C9.8,2.4,13,3.5,14.7,6h-2.1C12.3,6,12,6.3,12,6.6v0.8
			C12,7.7,12.3,8,12.6,8h4.8C17.7,8,18,7.7,18,7.4V2.6C18,2.3,17.7,2,17.4,2H16.6z"/>
	</g>
</g>
</svg>
