<?xml version="1.0" encoding="utf-8"?>
<!-- Generator: Adobe Illustrator 24.0.1, SVG Export Plug-In . SVG Version: 6.00 Build 0)  -->
<svg version="1.1" id="ic_piv" xmlns="http://www.w3.org/2000/svg" xmlns:xlink="http://www.w3.org/1999/xlink" x="0px" y="0px"
	 viewBox="0 0 24 24" style="enable-background:new 0 0 24 24;" xml:space="preserve">
<style type="text/css">
	.st0{fill:#FFFFFF;}
	.st1{fill:none;}
	.st2{display:none;}
	.st3{display:inline;fill:#010101;}
	.st4{fill:#010101;}
</style>
<g id="Group_8935">
	<g id="Group_8934">
		<path id="Path_18928" class="st0" d="M11.8,2.2C6.4,2.2,2,6.6,2,12s4.4,9.8,9.8,9.8s9.8-4.4,9.8-9.8S17.2,2.2,11.8,2.2z"/>
	</g>
</g>
<path id="Rectangle_4543" class="st1" d="M0,0h24v24H0V0z"/>
<g class="st2">
	<path class="st3" d="M12.1,2c5.6,0,10.1,4.5,10.1,10.1c0,5.8-4.8,10.2-10.3,10.1C6.3,22,2,17.4,2,12C2.1,6.5,6.6,2,12.1,2z
		 M12.1,2.9C7.1,2.9,3,7,3,12.1c0,5,4.1,9.1,9,9.1c5,0,9.1-4,9.2-9C21.3,7.4,17.4,3,12.1,2.9z"/>
	<path class="st3" d="M12.1,15.8c-1.1,0-2.2,0-3.4,0c-1.7-0.1-3-0.8-3.8-2.3c-1-1.8-0.2-4,1.7-5C7.4,8.1,8.1,7.9,9,7.9
		c2.1,0,4.3,0,6.4,0c1.4,0,2.7,0.6,3.5,1.7c1.3,1.7,0.9,4.1-0.9,5.3c-0.9,0.6-1.8,0.8-2.9,0.8C14.1,15.8,13.1,15.8,12.1,15.8
		L12.1,15.8z M9.1,11.8v0.1c-0.2,0.5-0.1,0.9,0.2,1.3c0.3,0.3,0.7,0.4,1.1,0.2c0.5-0.2,0.7-0.6,0.7-1.1c0-0.2,0.1-0.1,0.2-0.1
		c0.5,0.2,0.9,0.1,1.4,0c0.1,0,0.2-0.1,0.3,0c0,0.5,0.1,0.9,0.6,1.1c0.4,0.2,0.8,0.2,1.2-0.1c0.5-0.4,0.5-0.9,0.3-1.5
		c0.6-0.1,1.3-0.2,1.9-0.4c0.3-0.1,0.4-0.2,0.4-0.5c0-0.2-0.2-0.3-0.5-0.3c-0.1,0-0.1,0-0.2,0c-1.2,0.2-2.3,0.5-3.5,0.7
		c-0.6,0.1-1.1,0.2-1.7,0.1c-1.3-0.3-2.7-0.5-4-0.8C7.2,10.4,7,10.6,7,10.8c0,0.3,0.1,0.4,0.4,0.5C7.9,11.6,8.5,11.7,9.1,11.8z"/>
</g>
<g>
	<path class="st4" d="M22,12c0,5.5-4.5,10.1-10.3,10c-5.3-0.2-9.8-4.6-9.6-10.3C2.2,6.6,6.3,2,12,2C17.5,2,22,6.5,22,12z M12,2.9
		c-4.9,0-9,4-9.1,8.8c0,5.3,4.2,9.2,8.9,9.3c5.2,0.1,9.3-4.3,9.2-9.3C20.9,7,17,2.9,12,2.9z"/>
	<path class="st4" d="M11.9,8.4c1.8,0,3.6,0,5.4,0c0.8,0,1.6,0.2,2.4,0.3c0.2,0,0.2,0.1,0.2,0.3c0.1,0.3,0,0.6-0.1,0.9
		c-0.3,1.1-0.5,2.3-0.9,3.4c-0.2,0.5-0.5,0.9-1,1c-1.1,0.3-2.2,0.4-3.4,0.1c-0.4-0.1-0.7-0.4-0.9-0.8c-0.3-0.8-0.7-1.6-1-2.5
		c0-0.1-0.1-0.1-0.1-0.2c-0.1-0.3-0.4-0.4-0.7-0.4c-0.3,0-0.5,0.2-0.6,0.4c-0.3,0.7-0.6,1.4-0.8,2.1c-0.3,1-0.9,1.5-2,1.5
		c-0.9,0-1.7-0.1-2.6-0.3c-0.5-0.1-0.9-0.4-1-0.9C4.5,12,4.2,10.7,3.9,9.4V9.3c0-0.5,0-0.6,0.5-0.7c1-0.1,1.7-0.2,2.4-0.2
		C8.5,8.4,10.2,8.4,11.9,8.4L11.9,8.4z M8.5,9.3c-1-0.1-1.9-0.1-2.9,0c-0.2,0-0.2,0.2-0.2,0.3c0,1,0.2,2,0.4,3
		c0.2,0.6,0.3,0.6,0.9,0.6c-0.2-0.1-0.5-0.1-0.5-0.4C6,12,5.8,11.1,5.9,10.2C6,9.8,6.1,9.6,6.6,9.5C7.2,9.4,7.9,9.4,8.5,9.3z
		 M17.1,9.3c-0.9,0-1.8-0.1-2.7,0c-0.2,0-0.4,0.1-0.4,0.3c0,1.1,0.2,2.3,0.6,3.3c0.1,0.2,0.5,0.3,0.7,0.2c-0.1-0.1-0.4-0.1-0.4-0.4
		c-0.2-0.8-0.3-1.6-0.3-2.5c0.1-0.6,0.2-0.7,0.8-0.8C16,9.4,16.5,9.3,17.1,9.3z"/>
</g>
</svg>
