<?xml version="1.0" encoding="utf-8"?>
<!-- Generator: Adobe Illustrator 24.0.1, SVG Export Plug-In . SVG Version: 6.00 Build 0)  -->
<svg version="1.1" id="ic_peers_connection" shape-rendering="geometricPrecision"
	 xmlns="http://www.w3.org/2000/svg" xmlns:xlink="http://www.w3.org/1999/xlink" x="0px" y="0px" viewBox="0 0 24 24"
	 style="enable-background:new 0 0 24 24;" xml:space="preserve">
<style type="text/css">
	.st0{fill:#FFFFFF;}
	.st1{fill:none;}
</style>
<path id="Path_18890" class="st0" d="M16.27136,14.9l-2.91457-2.2c-0.201-0.1-0.201-0.3-0.201-0.5V9.6
	c-0.1005-0.3,0.201-0.6,0.50251-0.6h1.30653c0.30151,0,0.60301-0.3,0.60301-0.6V2.6c0-0.3-0.30151-0.6-0.60301-0.6H9.13568
	C8.83417,2,8.53266,2.3,8.53266,2.6v5.8c0,0.3,0.30151,0.6,0.60302,0.6h1.30653c0.30151,0,0.60301,0.3,0.60301,0.6v2.6
	c0,0.2-0.1005,0.4-0.201,0.5l-2.91457,2.2C7.72864,15,7.62814,15,7.52764,15H2.60301C2.30151,15,2,15.3,2,15.6v5.8
	C2,21.7,2.30151,22,2.60301,22h5.82915c0.30151,0,0.60301-0.3,0.60301-0.6v-4.6c0-0.2,0.1005-0.4,0.201-0.5l2.41206-1.8
	c0.201-0.2,0.50251-0.2,0.70352,0l2.41206,1.8c0.201,0.1,0.201,0.3,0.201,0.5v4.6c0,0.3,0.30151,0.6,0.60301,0.6h5.82915
	C21.69849,22,22,21.7,22,21.4v-5.8c0-0.3-0.30151-0.6-0.60302-0.6h-4.92462C16.47236,15,16.37186,15,16.27136,14.9z M11.14573,4
	h1.80905c0.30151,0,0.60301,0.3,0.60301,0.6v1.8c0,0.3-0.30151,0.6-0.60301,0.6h-1.80905c-0.30151,0-0.60301-0.3-0.60301-0.6V4.6
	C10.54271,4.3,10.84422,4,11.14573,4z M6.42211,20H4.61307c-0.30151,0-0.60301-0.3-0.60301-0.6v-1.8c0-0.3,0.30151-0.6,0.60301-0.6
	h1.80904c0.30151,0,0.60302,0.3,0.60302,0.6v1.8C7.02513,19.7,6.72362,20,6.42211,20z M19.48744,20h-1.80905
	c-0.30151,0-0.60301-0.3-0.60301-0.6v-1.8c0-0.3,0.30151-0.6,0.60301-0.6h1.80905c0.30151,0,0.60301,0.3,0.60301,0.6v1.8
	C20.09045,19.7,19.78894,20,19.48744,20z"/>
<path id="Rectangle_4410" class="st1" d="M0,0h24v24H0V0z"/>
</svg>
