<?xml version="1.0" encoding="utf-8"?>
<!-- Generator: Adobe Illustrator 24.0.1, SVG Export Plug-In . SVG Version: 6.00 Build 0)  -->
<svg version="1.1" id="ic-transaction-staked" xmlns="http://www.w3.org/2000/svg" xmlns:xlink="http://www.w3.org/1999/xlink"
	 x="0px" y="0px" viewBox="0 0 24 24" style="enable-background:new 0 0 24 24;" xml:space="preserve">
<style type="text/css">
	.st0{fill:#FFFFFF;}
	.st1{fill:none;}
	.st2{fill:#5AD88C;}
</style>
<g>
	<path class="st0" d="M18.3,13L18.3,13L18.3,13z"/>
</g>
<path class="st1" d="M10.2,5.8l-0.6-1C9.5,4.5,9.2,4.2,8.9,4.1C8.8,4.1,8.6,4,8.5,4C8.3,4,8.1,4,8,4.1C7.3,4.5,7,5.2,7.3,5.8H10.2z"
	/>
<path class="st1" d="M16.9,4.9c-0.1-0.3-0.4-0.6-0.7-0.7C16,4.1,15.6,4,15.3,4.1s-0.6,0.3-0.8,0.6l-0.6,1h2.9
	C17,5.5,17,5.2,16.9,4.9z"/>
<rect x="5.9" y="10.1" class="st1" width="12.3" height="9.6"/>
<rect x="3.6" y="7.1" class="st1" width="17" height="1.6"/>
<g id="Path18914">
	<path class="st0" d="M19.3,12.2h-5.8V22h5.8c0.4,0,0.8-0.3,0.8-0.8v-8.3C20,12.5,19.7,12.2,19.3,12.2z"/>
	<path class="st0" d="M4,12.9v8.3C4,21.6,4.3,22,4.8,22l0,0c2.9,0,5.8,0,8.7,0c0-3.3,0-6.5,0-9.8c-2.9,0-5.8,0-8.7,0
		C4.3,12.2,4,12.5,4,12.9z"/>
	<path class="st0" d="M2.9,8.1v2.4c0,0.4,0.3,0.8,0.8,0.8h6.9v-4H3.7C3.3,7.3,2.9,7.7,2.9,8.1z"/>
	<path class="st0" d="M20.3,7.3h-6.9v3.9h6.9c0.4,0,0.8-0.3,0.8-0.8V8.1C21.1,7.7,20.7,7.3,20.3,7.3z"/>
	<path class="st0" d="M6.1,6.5c0.2,0.1,0.4,0.1,0.6,0.1h10.4c0.3,0,0.5,0,0.7-0.1C18.6,5.9,19.1,5,19,4.1c0-0.8-0.3-1.5-0.7-2.2
		c-0.5-0.7-1.4-1.2-2.3-1.2h-0.2c-2.4,0.2-3.4,2.5-3.8,4c-0.4-1.5-1.4-3.8-3.8-4H8c-0.9,0-1.8,0.4-2.3,1.2C5.2,2.6,5,3.3,5,4.1
		C4.9,5,5.4,5.9,6.1,6.5z M15.9,2.1H16c0.5,0,0.9,0.2,1.2,0.6c0.3,0.4,0.4,0.9,0.4,1.4c0,0.4-0.1,1.2-0.7,1.2h-3.6
		C13.5,4.2,14.2,2.3,15.9,2.1z M6.8,2.7C7.1,2.3,7.5,2.1,8,2.1h0.1c1.7,0.1,2.4,2.1,2.6,3.2H7.1c-0.6,0-0.7-0.8-0.7-1.2
		C6.4,3.6,6.5,3.1,6.8,2.7z"/>
</g>
<path class="st2" d="M15.5,18.4l-1.1-0.6l1-0.2c0.2,0,0.3-0.2,0.2-0.4c0-0.2-0.2-0.3-0.4-0.2l-1.6,0.4l-1.1-0.6l1.1-0.6l1.6,0.4h0.1
	c0.1,0,0.3-0.1,0.3-0.2c0-0.2-0.1-0.3-0.2-0.4l-1-0.2l1.1-0.6c0.2-0.1,0.2-0.3,0.1-0.4c-0.1-0.1-0.3-0.2-0.4-0.1l-1.1,0.6l0.3-0.9
	c0-0.2-0.1-0.3-0.2-0.4c-0.2,0-0.4,0.1-0.4,0.2l-0.4,1.5l-1.1,0.6v-1.2l1.2-1.1c0.1-0.1,0.1-0.3,0-0.4c-0.1-0.1-0.3-0.1-0.5,0
	l-0.7,0.7v-1.2c0-0.2-0.1-0.3-0.3-0.3s-0.3,0.1-0.3,0.3v1.2l-0.8-0.8c-0.1-0.1-0.3-0.1-0.5,0c-0.1,0.1-0.1,0.3,0,0.4l1.2,1.1v1.2
	l-1.1-0.6l-0.4-1.5c0-0.2-0.2-0.3-0.4-0.2c-0.2,0-0.3,0.2-0.2,0.4l0.3,0.9l-1.1-0.6c-0.2-0.1-0.4,0-0.4,0.1c-0.1,0.1,0,0.3,0.1,0.4
	l1.1,0.6l-1,0.2c-0.2,0-0.3,0.2-0.2,0.4c0,0.1,0.2,0.2,0.3,0.2h0.1l1.6-0.4l1.1,0.6l-1.1,0.6l-1.6-0.4c-0.2,0-0.4,0.1-0.4,0.2
	c0,0.2,0.1,0.3,0.2,0.4l1,0.2l-1.1,0.6c-0.2,0.1-0.2,0.3-0.1,0.4c0.1,0.1,0.2,0.2,0.3,0.2s0.1,0,0.2,0l1-0.6l-0.3,1
	c0,0.2,0.1,0.3,0.2,0.4h0.1c0.1,0,0.3-0.1,0.3-0.2l0.4-1.5l1.1-0.6v1.2l-1.2,1.1c-0.1,0.1-0.1,0.3,0,0.4s0.3,0.1,0.5,0l0.7-0.7v1.2
	c0,0.2,0.1,0.3,0.3,0.3s0.3-0.1,0.3-0.3v-1.2l0.7,0.7c0.1,0.1,0.1,0.1,0.2,0.1c0.1,0,0.2,0,0.2-0.1c0.1-0.1,0.1-0.3,0-0.4l-1.2-1.1
	v-1.3l1.1,0.6l0.4,1.5c0,0.1,0.2,0.2,0.3,0.2H14c0.2,0,0.3-0.2,0.2-0.4v-0.9l1.1,0.6c0.1,0,0.1,0,0.2,0c0.1,0,0.2-0.1,0.3-0.2
	C15.8,18.7,15.7,18.5,15.5,18.4z"/>
</svg>
