<?xml version="1.0" encoding="utf-8"?>
<!-- Generator: Adobe Illustrator 24.0.1, SVG Export Plug-In . SVG Version: 6.00 Build 0)  -->
<svg version="1.1" id="ic-transaction-staked" xmlns="http://www.w3.org/2000/svg" xmlns:xlink="http://www.w3.org/1999/xlink"
	 x="0px" y="0px" viewBox="0 0 24 24" style="enable-background:new 0 0 24 24;" xml:space="preserve">
<style type="text/css">
	.st0{fill:none;}
	.st1{fill:#FFFFFF;}
</style>
<path id="Rectangle_4527" class="st0" d="M0,0h24v24H0V0z"/>
<g>
	<g>
		<path class="st1" d="M17.36445,12.15207c-0.74744-0.6083-1.70844-1.11521-2.66944-1.62212
			c-0.42711-0.20276-1.70844-1.21659-1.28133-2.63594l-0.961-0.10138c1.28133-1.92627,3.09655-3.95392,5.2321-5.7788
			c-1.70844,0.50691-3.09655,1.31797-4.2711,2.83871C14.05435,3.53456,15.12212,2.31797,16.29667,1
			c-1.60166,1.01382-2.98977,2.3318-3.84399,3.95392l0.64067-2.3318c-0.961,1.52074-1.60166,3.14286-1.81522,4.76498
			l-1.17456-0.81106L9.89002,6.7788c1.06777,1.92627,0.53389,2.94009,0,3.24424c-1.06778,0.70968-2.77622,1.62212-3.52366,2.43318
			c-1.60166,1.52074-2.02877,2.94009-1.81522,4.86636c0.10678,2.43318,2.02877,4.46083,4.48466,5.27189
			C10.10358,22.89862,11.17135,23,12.23913,23c1.81522,0,3.63044-0.50691,5.01854-1.52074
			C18.64578,20.36406,19.5,18.64055,19.5,16.81567C19.5,15.09217,18.75256,13.36866,17.36445,12.15207z M10.31713,7.08295
			L10.31713,7.08295L10.31713,7.08295L10.31713,7.08295z M14.2679,20.97235c-0.32033,0.70968-0.961,1.41935-1.38811,1.7235
			c-0.21355,0-0.53389,0-0.74744,0c-0.64067,0-1.38811-0.10138-2.02877-0.20277c-0.74744-0.20277-1.28133-0.50691-1.70844-1.01382
			l-0.10678-0.10138c-0.74744-0.81106-1.60166-2.12903-2.02877-3.34562c-0.10678-0.40553-0.21355-0.81106,0-1.31797
			c0.64067-2.02765,1.922-2.73733,3.20333-3.64977c0.32033-0.20276,0.64067-0.30415,0.961-0.50691
			c0.53389-0.40553,0.85422-1.52074,1.17455-2.43318c-0.10678,0.70968-0.32033,2.12903-1.06778,2.63595
			c-0.32033,0.20277-0.64067,0.40553-0.961,0.6083c-1.28133,0.81106-2.56266,1.52073-3.09655,3.447
			c-0.10678,0.40553,0,0.81106,0.10678,1.21659c0.32033,1.21659,1.17455,2.43318,1.922,3.14286l0.10678,0.10138
			c0.42711,0.50691,0.64067,0.70968,1.70844,1.01382c-0.21356-0.10138-0.42711-0.20276-0.64067-0.40553
			c-1.17455-0.81106-1.81522-1.82488-1.922-3.24424c-0.10678-1.11521,0.64067-2.3318,2.13555-3.04148
			c0.961-0.50691,1.28133-1.21659,1.60166-2.12903c-0.21355,1.01382-0.42711,1.7235-1.49489,2.23041
			c-1.17455,0.70968-2.13555,2.02765-2.02877,2.94009c0.10678,1.11521,0.961,2.33179,1.81522,3.14286
			c0.42711,0.40553,1.17455,0.6083,1.922,0.70968l0,0c-0.21356-0.10138-0.53389-0.30415-0.74744-0.6083
			c-0.21355-0.20277-0.32033-0.6083-0.42711-0.91244c-0.10678-0.40553-0.32033-0.70968-0.32033-1.01383
			c0-0.70968,0.10678-1.52074,0.64067-2.12903c0.42711-0.50691,0.64067-0.6083,0.85422-1.11521c0-1.7235,0-3.24424,0-4.56221
			c0-1.41935,0-2.53456,0-3.24424c0-0.70968,0-1.11521,0-1.11521h0.10678c0,0.20276,0,0.70968,0,1.52074s0,1.92627,0,3.34562
			s0,3.04147,0,4.76498c0,1.21659,0,2.43318,0,3.75115c0,0.40553,0,0.81106,0,1.11521l0,0
			c0.32033-0.50691,0.42711-1.52074,0.53389-2.12903c0-0.50691,0.10678-1.01382,0-1.62212
			c-0.10678-0.70968-0.32033-1.52074-0.32033-2.02765c0.10678,0.50691,0.42711,1.31797,0.53389,2.02765
			c0.10678,0.6083,0.10678,1.11521,0.10678,1.62212s-0.10678,0.91244-0.10678,1.31797
			c-0.10678,0.30415-0.32033,0.70968-0.64067,1.01382l0,0l0,0l0,0l0,0l0,0l0,0c0.64067-0.40553,1.06778-1.11521,1.17455-1.92627
			c0.21355-1.01382,0.21355-1.92627,0.21355-2.43318c0-0.40553-0.21355-1.11521-0.42711-1.7235
			c-0.10678-0.50691-0.64067-1.01382-0.74744-1.31797c-0.21356-0.6083-0.10678-1.01382-0.10678-1.92627
			c0.10678,0.81106,0.10678,1.41935,0.32033,1.7235c0.21356,0.30415,0.42711,0.70968,0.64067,1.21659
			c0.32033,0.81106,0.53389,1.7235,0.53389,2.12903c0,0.70968-0.10678,1.82488-0.32033,2.63595
			c-0.10678,0.30415-0.21356,0.50691-0.32033,0.81106c0.21356-0.40553,0.42711-0.91244,0.53389-1.31797
			c0.32033-1.52074,0.64067-3.04148,0.42711-3.95392c0-0.20276-0.10678-0.91244-0.42711-1.7235
			c-0.42711-1.11521-1.06778-2.02765-1.17455-2.23042c-0.21356-0.6083-0.32033-2.23041-0.32033-3.04147
			c0,1.01382,0.21356,2.53456,0.42711,2.83871c0.10678,0.20276,0.74744,1.21659,1.28133,2.3318
			c0.32033,0.70968,0.42711,1.41935,0.42711,1.62212c0.21355,2.02765,0,2.83871-0.53389,4.6636
			c-0.10678,0.40553-0.42711,0.81106-0.64067,1.21659c0.53389-0.50691,0.961-1.21659,1.06778-1.7235
			c0.53389-2.23042,0.74744-5.17051,0-7.40092c-0.42711-1.11521-1.38811-2.12903-1.60166-2.83871
			c-0.21355-0.6083-0.10678-0.91244-0.10678-1.82488c0,1.01382,0.32033,1.7235,0.42711,2.12903
			c0.10678,0.20277,0.961,1.21659,1.38811,2.3318c0.32033,0.70968,0.64067,2.53456,0.64067,2.63594
			C15.01534,17.42397,14.90857,19.35023,14.2679,20.97235z"/>
		<path class="st1" d="M11.70524,16.71429c-0.10678,0.6083-0.21356,0.70968-0.64067,1.21659
			c-0.53389,0.81106-0.64067,1.52074-0.53389,2.02765c0,0.30415,0.21356,0.6083,0.32033,0.81106
			c0.10678,0.30415,0.32033,0.6083,0.53389,0.91244c0.10678,0.20277,0.21356,0.30415,0.42711,0.40553c0-1.7235,0-3.54839,0-5.17051
			C11.70524,16.91705,11.70524,16.81567,11.70524,16.71429z"/>
	</g>
</g>
</svg>
