<?xml version="1.0" encoding="utf-8"?>
<!-- Generator: Adobe Illustrator 24.0.1, SVG Export Plug-In . SVG Version: 6.00 Build 0)  -->
<svg version="1.1" id="Layer_1" xmlns="http://www.w3.org/2000/svg" xmlns:xlink="http://www.w3.org/1999/xlink" x="0px" y="0px"
	 viewBox="0 0 24 24" style="enable-background:new 0 0 24 24;" xml:space="preserve">
<style type="text/css">
	.st0{fill:#FFFFFF;}
</style>
<title>Artboard</title>
<desc>Created with Sketch.</desc>
<g>
	<g id="Artboard">
		<path id="_x3F_" class="st0" d="M13.2,18.6H12c-0.3,0-0.6,0.3-0.6,0.6v1.2c0,0.3,0.3,0.6,0.6,0.6h1.2c0.3,0,0.6-0.3,0.6-0.6v-1.2
			C13.8,18.9,13.5,18.6,13.2,18.6z"/>
		<path class="st0" d="M11.7,16.2c0,0.3,0.2,0.6,0.6,0.6h0.6c0.3,0,0.6-0.3,0.6-0.6c0.1-0.6,0.1-1,0.2-1.3c0.1-0.4,0.3-0.8,0.5-1
			c0.2-0.2,0.6-0.7,1.3-1.3c1.1-0.9,1.8-1.6,2.1-2.3c0.3-0.7,0.5-1.3,0.5-2.1c0-1.3-0.5-2.4-1.5-3.3c-1-0.9-2.3-1.4-4-1.4
			c-1.6,0-2.8,0.4-3.8,1.3C8,5.5,7.4,6.6,7.2,7.9C7.1,8.2,7.4,8.6,7.7,8.6l1,0.1c0.3,0,0.6-0.2,0.6-0.5c0.2-0.9,0.6-1.6,1-2.1
			c0.7-0.5,1.4-0.8,2.3-0.8c1,0,1.7,0.2,2.4,0.9s1,1.4,1,2.2c0,0.4-0.2,0.9-0.4,1.2c-0.2,0.3-0.7,0.8-1.4,1.5l-1.5,1.5
			c-0.4,0.5-0.6,0.9-0.8,1.4c-0.2,0.5-0.2,1.2-0.2,1.9L11.7,16.2z"/>
	</g>
</g>
</svg>
