<?xml version="1.0" encoding="utf-8"?>
<!-- Generator: Adobe Illustrator 24.0.1, SVG Export Plug-In . SVG Version: 6.00 Build 0)  -->
<svg version="1.1" id="Layer_1" xmlns="http://www.w3.org/2000/svg" xmlns:xlink="http://www.w3.org/1999/xlink" x="0px" y="0px"
	 viewBox="0 0 24 24" style="enable-background:new 0 0 24 24;" xml:space="preserve">
<style type="text/css">
	.st0{fill:#FFC038;}
	.st1{fill:none;}
</style>
<title>Artboard</title>
<desc>Created with Sketch.</desc>
<g id="Artboard">
	<g id="ic-copy" transform="translate(2.000000, 2.000000)">
		<g id="Group_8993" transform="translate(3.000000, 2.000000)">
			<path id="Path_18959" class="st0" d="M1.9,13H1.1c-0.3,0-0.6-0.3-0.6-0.6V0.6C0.5,0.3,0.8,0,1.1,0h8.8c0.3,0,0.6,0.3,0.6,0.6v0.8
				c0,0.3-0.3,0.6-0.6,0.6H3.1C2.8,2,2.5,2.3,2.5,2.6v9.8C2.5,12.7,2.2,13,1.9,13z"/>
		</g>
		<polygon id="Rectangle_4640" class="st1" points="0,0 20,0 20,20 0,20 		"/>
		<g id="Group_8994" transform="translate(6.000000, 5.000000)">
			<path id="Path_18960" class="st0" d="M9.9,13H1.1c-0.3,0-0.6-0.3-0.6-0.6V0.6C0.5,0.3,0.8,0,1.1,0h8.8c0.3,0,0.6,0.3,0.6,0.6
				v11.8C10.5,12.7,10.2,13,9.9,13z M3.1,11h4.8c0.3,0,0.6-0.3,0.6-0.6V2.6C8.5,2.3,8.2,2,7.9,2H3.1C2.8,2,2.5,2.3,2.5,2.6v7.8
				C2.5,10.7,2.8,11,3.1,11z"/>
		</g>
	</g>
</g>
</svg>
