<?xml version="1.0" encoding="utf-8"?>
<!-- Generator: Adobe Illustrator 24.0.1, SVG Export Plug-In . SVG Version: 6.00 Build 0)  -->
<svg version="1.1" id="ic_unlocked" shape-rendering="geometricPrecision"
	 xmlns="http://www.w3.org/2000/svg" xmlns:xlink="http://www.w3.org/1999/xlink" x="0px" y="0px" viewBox="0 0 24 24"
	 style="enable-background:new 0 0 24 24;" xml:space="preserve">
<style type="text/css">
	.st0{fill:none;}
	.st1{fill:#00D888;}
</style>
<path id="Rectangle_4444" class="st0" d="M0,0h24v24H0V0z"/>
<g>
	<path class="st1" d="M9.9,4.9c2.7-1.7,5.5,0.2,5.5,2.8h2.7c0-4.4-4.7-7.7-9.3-5.3C7,3.4,5.9,5.3,5.9,7.3v2.6H4.7
		c-0.6,0-1.2,0.5-1.2,1.2v9.2h16.9v-9.2c0-0.6-0.5-1.2-1.2-1.2H18h-2.7H8.6V7.3C8.6,6.3,9.1,5.4,9.9,4.9z M10.8,14.1
		c0.1-0.1,0.1-0.2,0.2-0.2c1.2-0.8,2.4,0.1,2.4,1.2c0,0.5-0.3,1-0.7,1.3v1.5h-1.6v-1.5C10.6,15.9,10.2,15,10.8,14.1z"/>
	<path class="st1" d="M5.4,22.4h13.2c0.9,0,1.6-0.6,1.8-1.4H3.6C3.8,21.8,4.6,22.4,5.4,22.4z"/>
</g>
</svg>
