<?xml version="1.0" encoding="utf-8"?>
<!-- Generator: Adobe Illustrator 24.0.1, SVG Export Plug-In . SVG Version: 6.00 Build 0)  -->
<svg version="1.1" id="ic_light_theme" shape-rendering="geometricPrecision"
	 xmlns="http://www.w3.org/2000/svg" xmlns:xlink="http://www.w3.org/1999/xlink" x="0px" y="0px" viewBox="0 0 24 24"
	 style="enable-background:new 0 0 24 24;" xml:space="preserve">
<style type="text/css">
	.st0{fill:#FFFFFF;}
	.st1{fill:none;}
</style>
<g id="Group_8846">
	<path id="Path_18900" class="st0" d="M12.8,7.1c-3.4-0.5-6.2,2.4-5.7,5.7c0.3,2.1,2,3.8,4.1,4.1c3.4,0.5,6.2-2.4,5.7-5.7
		C16.6,9.1,14.9,7.4,12.8,7.1z M12,15c-1.7,0-3-1.3-3-3s1.3-3,3-3s3,1.3,3,3S13.7,15,12,15z"/>
	<path id="Rectangle_4418" class="st0" d="M11.6,2h0.8C12.7,2,13,2.3,13,2.6v2.8C13,5.7,12.7,6,12.4,6h-0.8C11.3,6,11,5.7,11,5.4
		V2.6C11,2.3,11.3,2,11.6,2z"/>
	<path id="Rectangle_4419" class="st0" d="M11.6,18h0.8c0.3,0,0.6,0.3,0.6,0.6v2.8c0,0.3-0.3,0.6-0.6,0.6h-0.8
		c-0.3,0-0.6-0.3-0.6-0.6v-2.8C11,18.3,11.3,18,11.6,18z"/>
	<path id="Rectangle_4420" class="st0" d="M2.6,11h2.8C5.7,11,6,11.3,6,11.6v0.8C6,12.7,5.7,13,5.4,13H2.6C2.3,13,2,12.7,2,12.4
		v-0.8C2,11.3,2.3,11,2.6,11z"/>
	<path id="Rectangle_4421" class="st0" d="M18.6,11h2.8c0.3,0,0.6,0.3,0.6,0.6v0.8c0,0.3-0.3,0.6-0.6,0.6h-2.8
		c-0.3,0-0.6-0.3-0.6-0.6v-0.8C18,11.3,18.3,11,18.6,11z"/>
	<path id="Rectangle_4422" class="st0" d="M4.6,5.2l0.6-0.6c0.2-0.2,0.6-0.2,0.8,0l2,2c0.2,0.2,0.2,0.6,0,0.8L7.5,8
		C7.2,8.3,6.9,8.3,6.6,8l-2-2C4.4,5.8,4.4,5.4,4.6,5.2z"/>
	<path id="Rectangle_4423" class="st0" d="M16,16.5l0.6-0.6c0.2-0.2,0.6-0.2,0.8,0l2,2c0.2,0.2,0.2,0.6,0,0.8l-0.6,0.6
		c-0.2,0.2-0.6,0.2-0.8,0l-2-2C15.7,17.1,15.7,16.8,16,16.5z"/>
	<path id="Rectangle_4424" class="st0" d="M4.6,17.9l2-2c0.2-0.2,0.6-0.2,0.8,0L8,16.5c0.2,0.2,0.2,0.6,0,0.8l-2,2
		c-0.2,0.2-0.6,0.2-0.8,0l-0.6-0.6C4.4,18.6,4.4,18.2,4.6,17.9z"/>
	<path id="Rectangle_4425" class="st0" d="M16,6.6l2-2c0.2-0.2,0.6-0.2,0.8,0l0.6,0.6c0.2,0.2,0.2,0.6,0,0.8l-2,2
		c-0.2,0.2-0.6,0.2-0.8,0L16,7.5C15.7,7.2,15.7,6.9,16,6.6z"/>
</g>
<path id="Rectangle_4426" class="st1" d="M0,0h24v24H0V0z"/>
</svg>
