<?xml version="1.0" encoding="utf-8"?>
<!-- Generator: Adobe Illustrator 24.0.1, SVG Export Plug-In . SVG Version: 6.00 Build 0)  -->
<svg version="1.1" id="Layer_1" xmlns="http://www.w3.org/2000/svg" xmlns:xlink="http://www.w3.org/1999/xlink" x="0px" y="0px"
	 viewBox="0 0 40 40" style="enable-background:new 0 0 40 40;" xml:space="preserve">
<style type="text/css">
	.st0{fill-rule:evenodd;clip-rule:evenodd;fill:#FFC038;}
	.st1{fill:none;}
</style>
<title>ComboBox</title>
<desc>Created with Sketch.</desc>
<g id="ComboBox">
	<g id="Group" transform="translate(5.000000, 0.000000)">
		<g id="ic-arrow-drop-down" transform="translate(0.000000, 16.000000)">
			<g id="Group_8822" transform="translate(4.000000, 7.000000)">
				<path id="Path_18879" class="st0" d="M7.6,9L0.8,2.6C0.5,2.4,0.5,2,0.7,1.8l0.5-0.6C1.4,1,1.8,0.9,2,1.2l5.5,5.1
					c0.2,0.2,0.6,0.2,0.8,0l5.5-5.1C14,1,14.4,1,14.6,1.2l0.5,0.6c0.2,0.2,0.2,0.6,0,0.8L8.4,9C8.2,9.2,7.8,9.2,7.6,9z"/>
			</g>
			<polygon id="Rectangle_4407" class="st1" points="0,0 24,0 24,24 0,24 			"/>
		</g>
		<g id="ic-arrow-drop-up">
			
				<g id="ic_arrow_drop_up" transform="translate(12.000000, 12.000000) rotate(180.000000) translate(-12.000000, -12.000000) translate(-0.000000, 0.000000)">
				<g id="Group_8822_1_" transform="translate(4.000000, 7.000000)">
					<path id="Path_18879_1_" class="st0" d="M7.6,9L0.8,2.6C0.5,2.4,0.5,2,0.7,1.8l0.5-0.6C1.4,1,1.8,0.9,2,1.2l5.5,5.1
						c0.2,0.2,0.6,0.2,0.8,0l5.5-5.1C14,1,14.4,1,14.6,1.2l0.5,0.6c0.2,0.2,0.2,0.6,0,0.8L8.4,9C8.2,9.2,7.8,9.2,7.6,9z"/>
				</g>
				<polygon id="Rectangle_4407_1_" class="st1" points="0,0 24,0 24,24 0,24 				"/>
			</g>
		</g>
	</g>
</g>
</svg>
