<?xml version="1.0" encoding="utf-8"?>
<!-- Generator: Adobe Illustrator 24.0.1, SVG Export Plug-In . SVG Version: 6.00 Build 0)  -->
<svg version="1.1" id="ic-transaction-staked" xmlns="http://www.w3.org/2000/svg" xmlns:xlink="http://www.w3.org/1999/xlink"
	 x="0px" y="0px" viewBox="0 0 24 24" style="enable-background:new 0 0 24 24;" xml:space="preserve">
<style type="text/css">
	.st0{fill:none;}
	.st1{fill:#FFFFFF;}
</style>
<path id="Rectangle_4527" class="st0" d="M0,0h24v24H0V0z"/>
<path class="st1" d="M21.4,16.3l-2.8-1.5l2.5-0.6c0.5-0.1,0.7-0.6,0.6-1s-0.6-0.7-1-0.6l-4.2,1.1l-2.7-1.5l2.7-1.5l4.2,1.1
	c0.1,0,0.1,0,0.2,0c0.4,0,0.7-0.2,0.8-0.6c0.1-0.4-0.1-0.9-0.6-1l-2.5-0.6l2.8-1.5c0.4-0.2,0.5-0.7,0.3-1.1s-0.8-0.5-1.2-0.3L17.8,8
	l0.7-2.4c0.1-0.4-0.1-0.9-0.6-1s-0.9,0.1-1,0.6l-1.1,4l-2.7,1.5v-3L16,4.8c0.3-0.3,0.3-0.8,0-1.2c-0.3-0.3-0.9-0.3-1.2,0L13,5.4V2.3
	c0-0.5-0.4-0.8-0.9-0.8s-0.9,0.4-0.9,0.8v3.1L9.4,3.6C9,3.3,8.5,3.3,8.2,3.6s-0.3,0.8,0,1.2l3.1,2.9v3L8.5,9.2l-1.1-4
	c-0.1-0.4-0.6-0.7-1-0.6c-0.5,0.1-0.7,0.6-0.6,1L6.4,8L3.6,6.5C3.2,6.3,2.7,6.4,2.4,6.8C2.2,7.2,2.3,7.7,2.7,7.9l2.8,1.5L3,10.1
	c-0.5,0.1-0.7,0.6-0.6,1c0.1,0.4,0.4,0.6,0.8,0.6c0.1,0,0.1,0,0.2,0l4.2-1.1l2.7,1.5l-2.7,1.5l-4.2-1.1c-0.5-0.1-0.9,0.1-1,0.6
	c-0.1,0.4,0.1,0.9,0.6,1l2.5,0.6l-2.8,1.5c-0.4,0.2-0.5,0.7-0.3,1.1c0.2,0.3,0.4,0.4,0.7,0.4c0.1,0,0.3,0,0.4-0.1l2.8-1.5l-0.7,2.4
	c-0.1,0.4,0.1,0.9,0.6,1c0.1,0,0.1,0,0.2,0c0.4,0,0.7-0.2,0.8-0.6l1.1-4l2.7-1.5v3l-3.1,2.9c-0.3,0.3-0.3,0.8,0,1.2
	c0.3,0.3,0.9,0.3,1.2,0l1.8-1.8v3.1c0,0.5,0.4,0.8,0.9,0.8s0.9-0.4,0.9-0.8v-3.1l1.8,1.8c0.2,0.2,0.4,0.2,0.6,0.2
	c0.2,0,0.4-0.1,0.6-0.2c0.3-0.3,0.3-0.8,0-1.2l-3.1-2.9v-3l2.7,1.5l1.1,4c0.1,0.4,0.4,0.6,0.8,0.6c0.1,0,0.1,0,0.2,0
	c0.5-0.1,0.7-0.6,0.6-1l-0.7-2.4l2.8,1.5c0.1,0.1,0.3,0.1,0.4,0.1c0.3,0,0.6-0.1,0.7-0.4C22,17,21.8,16.5,21.4,16.3z"/>
<g id="Path18914">
	<path class="st1" d="M43.4,12.9h-5.8v9.8h5.8c0.4,0,0.8-0.3,0.8-0.8l0,0v-8.3C44.1,13.2,43.8,12.9,43.4,12.9z"/>
	<path class="st1" d="M28.1,13.6v8.3c0,0.4,0.3,0.8,0.8,0.8l0,0h5.8v-9.8h-5.9C28.4,12.9,28.1,13.2,28.1,13.6z"/>
	<path class="st1" d="M27,8.8v2.4c0,0.4,0.3,0.8,0.8,0.8h6.9V8h-6.9C27.4,8,27,8.4,27,8.8z"/>
	<path class="st1" d="M44.4,8h-6.9v4h6.9c0.4,0,0.8-0.3,0.8-0.8V8.8C45.2,8.4,44.8,8,44.4,8z"/>
	<path class="st1" d="M30.2,7.1c0.2,0.1,0.3,0.1,0.6,0.1h10.4c0.3,0,0.5,0,0.7-0.1c0.8-0.5,1.2-1.4,1.1-2.4c0-0.8-0.3-1.5-0.7-2.2
		c-0.5-0.7-1.4-1.2-2.3-1.2h-0.2c-2.4,0.2-3.4,2.5-3.8,4c-0.4-1.5-1.4-3.8-3.8-4H32c-0.9,0-1.8,0.4-2.3,1.2C29.3,3.1,29,3.9,29,4.7
		C29,5.7,29.5,6.6,30.2,7.1z M40,2.8L40,2.8c0.6,0,1,0.2,1.3,0.6s0.4,0.9,0.4,1.4C41.7,5.2,41.6,6,41,6h-3.6
		C37.6,4.9,38.3,2.9,40,2.8z M30.9,3.4c0.3-0.4,0.7-0.6,1.2-0.6h0.1c1.7,0.1,2.4,2.1,2.6,3.2h-3.7c-0.6,0-0.7-0.8-0.7-1.2
		C30.5,4.3,30.6,3.8,30.9,3.4z"/>
</g>
</svg>
