<?xml version="1.0" encoding="utf-8"?>
<!-- Generator: Adobe Illustrator 24.0.1, SVG Export Plug-In . SVG Version: 6.00 Build 0)  -->
<svg version="1.1" id="ic_piv" xmlns="http://www.w3.org/2000/svg" xmlns:xlink="http://www.w3.org/1999/xlink" x="0px" y="0px"
	 viewBox="0 0 24 24" style="enable-background:new 0 0 24 24;" xml:space="preserve">
<style type="text/css">
	.st0{fill:#FFFFFF;}
	.st1{fill:none;}
	.st2{fill:#010101;}
</style>
<g id="Group_8935">
	<g id="Group_8934">
		<path id="Path_18928" class="st0" d="M12,2.2c-5.4,0-9.8,4.4-9.8,9.8s4.4,9.8,9.8,9.8s9.8-4.4,9.8-9.8S17.4,2.2,12,2.2z"/>
	</g>
</g>
<path id="Rectangle_4543" class="st1" d="M0,0h24v24H0V0z"/>
<g>
	<path class="st2" d="M12,2c5.54455,0,10,4.45508,10,9.99917c0,5.7421-4.75247,10.09817-10.19802,9.99917
		C6.25743,21.80034,2,17.24626,2,11.90017C2.09901,6.45508,6.55446,2,12,2z M12,2.89102c-4.9505,0-9.0099,4.05907-9.0099,9.10816
		c0,4.95009,4.05941,9.00916,8.91089,9.00916c4.95049,0,9.0099-3.96007,9.10891-8.91015
		C21.10891,7.34609,17.24752,2.99002,12,2.89102z"/>
	<path class="st2" d="M12,15.66224c-1.08911,0-2.17822,0-3.36634,0c-1.68317-0.099-2.9703-0.79201-3.76238-2.27704
		c-0.9901-1.78203-0.19802-3.96007,1.68317-4.95009C7.34653,8.0391,8.0396,7.8411,8.93069,7.8411c2.07921,0,4.25743,0,6.33663,0
		c1.38614,0,2.67327,0.59401,3.46535,1.68303c1.28713,1.68303,0.89109,4.05907-0.89109,5.24709
		c-0.89109,0.59401-1.78218,0.79201-2.87129,0.79201C13.9802,15.66224,12.9901,15.66224,12,15.66224L12,15.66224z M9.0297,11.70217
		v0.099c-0.19802,0.49501-0.09901,0.89102,0.19802,1.28702c0.29703,0.29701,0.69307,0.39601,1.08911,0.198
		c0.49505-0.198,0.69307-0.59401,0.69307-1.08902c0-0.198,0.09901-0.099,0.19802-0.099c0.49505,0.198,0.89109,0.099,1.38614,0
		c0.09901,0,0.19802-0.099,0.29703,0c0,0.49501,0.09901,0.89102,0.59406,1.08902c0.39604,0.198,0.79208,0.198,1.18812-0.099
		c0.49505-0.39601,0.49505-0.89102,0.29703-1.48503c0.59406-0.099,1.28713-0.198,1.88119-0.39601
		c0.29703-0.099,0.39604-0.198,0.39604-0.49501c0-0.198-0.19802-0.29701-0.49505-0.29701c-0.09901,0-0.09901,0-0.19802,0
		c-1.18812,0.198-2.27723,0.49501-3.46535,0.69301c-0.59406,0.099-1.08911,0.198-1.68317,0.099
		c-1.28713-0.29701-2.67327-0.49501-3.9604-0.79201c-0.29703-0.099-0.49505,0.099-0.49505,0.29701
		c0,0.29701,0.09901,0.39601,0.39604,0.49501C7.84158,11.50416,8.43564,11.60317,9.0297,11.70217z"/>
</g>
</svg>
