<?xml version="1.0" encoding="utf-8"?>
<!-- Generator: Adobe Illustrator 24.0.1, SVG Export Plug-In . SVG Version: 6.00 Build 0)  -->
<svg version="1.1" id="Layer_1" shape-rendering="crispEdges"
	 xmlns="http://www.w3.org/2000/svg" xmlns:xlink="http://www.w3.org/1999/xlink" x="0px" y="0px" viewBox="0 0 24 24"
	 style="enable-background:new 0 0 24 24;" xml:space="preserve">
<style type="text/css">
	.st0{fill-rule:evenodd;clip-rule:evenodd;fill:#5AD88C;}
</style>
<title>Top BarTheme</title>
<desc>Created with Sketch.</desc>
<g id="Top-BarTheme">
	<g id="Group-3" transform="translate(4.000000, 2.000000)">
		<g id="Clip-2">
		</g>
		<path id="Fill-1" class="st0" d="M9.57965,2.12121c0.30089,0,0.50148,0,0.80236,0
			C7.47345,3.71324,5.56785,6.7978,5.56785,10.08137s1.80531,6.36812,4.81416,7.96016c-0.30089,0-0.50148,0-0.80236,0
			c-4.41298,0-8.0236-3.58207-8.0236-7.96016S5.16667,2.12121,9.57965,2.12121 M13.73905,18.96332l0.65476-0.32479
			c0.80236-0.39801,1.40413-0.89552,2.10619-1.49253l-2.60767-0.0995c-3.51032-0.39801-6.31858-3.38307-6.31858-6.96514
			s2.70796-6.56713,6.31858-6.96514L16.5,2.81773c-0.60177-0.59701-1.30383-1.09452-2.1062-1.49253l-0.20059-0.0995
			c-0.30089-0.199-0.70207-0.39801-1.00295-0.49751c-0.20059-0.0995,0,0-0.20059-0.0995
			c-0.30089-0.0995-0.50148-0.199-0.80236-0.29851c-0.14108-0.04965-0.22039-0.09324-0.31846-0.11217l-1.08567-0.18634
			C5.66814-0.36634,0.65339,3.01673-0.34956,8.48934c-0.20059,0.99502-0.20059,2.08954,0,3.08456
			c1.00295,5.57211,6.0177,8.95517,11.13274,8.35816c0,0,0.46251-0.0393,1.30383-0.2985
			c0.32098-0.06497,0.59639-0.15758,0.90265-0.29851L13.73905,18.96332z"/>
	</g>
</g>
<path class="st0" d="M17.32967,3.33516"/>
</svg>
