<?xml version="1.0" encoding="utf-8"?>
<!-- Generator: Adobe Illustrator 24.0.1, SVG Export Plug-In . SVG Version: 6.00 Build 0)  -->
<svg version="1.1" id="Layer_1" xmlns="http://www.w3.org/2000/svg" xmlns:xlink="http://www.w3.org/1999/xlink" x="0px" y="0px"
	 viewBox="0 0 24 24" style="enable-background:new 0 0 24 24;" xml:space="preserve">
<style type="text/css">
	.st0{opacity:0.7;}
	.st1{fill:#FFFFFF;}
</style>
<title>Artboard</title>
<desc>Created with Sketch.</desc>
<g id="Artboard" class="st0">
	<g id="ic-copy" transform="translate(3.000000, 3.000000)">
		<g id="Group_8993">
			<path id="Path_18959" class="st1" d="M2.4,15H1.2c-0.3,0-0.6-0.3-0.6-0.6V0.6C0.6,0.3,0.9,0,1.2,0h10.6c0.3,0,0.6,0.3,0.6,0.6
				v1.1c0,0.3-0.3,0.6-0.6,0.6H3.6C3.2,2.3,3,2.6,3,2.9v11.5C3,14.7,2.7,15,2.4,15z"/>
		</g>
		<g id="Group_8994" transform="translate(4.000000, 4.000000)">
			<path id="Path_18960" class="st1" d="M11.8,15H1.2c-0.3,0-0.6-0.3-0.6-0.6V0.6C0.6,0.3,0.9,0,1.2,0h10.6c0.3,0,0.6,0.3,0.6,0.6
				v13.8C12.4,14.7,12.1,15,11.8,15z M3.6,12.7h5.9c0.3,0,0.6-0.3,0.6-0.6V2.9c0-0.3-0.3-0.6-0.6-0.6H3.6C3.2,2.3,3,2.6,3,2.9v9.2
				C3,12.4,3.2,12.7,3.6,12.7z"/>
		</g>
	</g>
</g>
</svg>
