<?xml version="1.0" encoding="utf-8"?>
<!-- Generator: Adobe Illustrator 24.0.1, SVG Export Plug-In . SVG Version: 6.00 Build 0)  -->
<svg version="1.1" id="ic_locked" xmlns="http://www.w3.org/2000/svg" xmlns:xlink="http://www.w3.org/1999/xlink" x="0px" y="0px"
	 viewBox="0 0 24 24" style="enable-background:new 0 0 24 24;" xml:space="preserve">
<style type="text/css">
	.st0{fill:none;}
	.st1{fill:#FFFFFF;}
</style>
<path id="Rectangle_4417" class="st0" d="M0,0h24v24H0V0z"/>
<g>
	<path class="st0" d="M9.81138,4.87153C8.99701,5.38102,8.48802,6.29811,8.48802,7.3171v2.64936h6.82036V7.3171
		C15.10479,4.87153,12.35629,3.24115,9.81138,4.87153z"/>
	<path class="st1" d="M5.33233,22.5h13.23353c0.91617,0,1.62874-0.61139,1.83233-1.42658H3.5
		C3.70359,21.88861,4.41617,22.5,5.33233,22.5z"/>
	<path class="st1" d="M18.05688,7.6228c0-4.38164-4.68263-7.7443-9.36527-5.29873c-1.73054,1.01899-2.8503,2.95506-2.8503,4.99303
		v2.64936H4.61976C4.00898,9.96646,3.5,10.47596,3.5,11.08735v9.27278h17v-9.27278c0-0.61139-0.50898-1.12089-1.11976-1.12089
		h-1.32335l0,0V7.6228L18.05688,7.6228z M12.76347,16.38608v1.42658h-1.52695v-1.42658
		c-0.71257-0.40759-1.01796-1.32468-0.40719-2.24177c0.1018-0.1019,0.1018-0.2038,0.20359-0.2038
		c1.22156-0.81519,2.44311,0,2.44311,1.22278C13.47605,15.57089,13.17066,16.08038,12.76347,16.38608z M15.30838,9.96646H8.48802
		V7.3171c0-1.01899,0.50898-1.83418,1.32335-2.44557c2.54491-1.63038,5.29341,0,5.49701,2.34367
		C15.30838,7.2152,15.30838,9.96646,15.30838,9.96646z"/>
</g>
</svg>
