<?xml version="1.0" encoding="utf-8"?>
<!-- Generator: Adobe Illustrator 24.0.1, SVG Export Plug-In . SVG Version: 6.00 Build 0)  -->
<svg version="1.1" id="Layer_1" xmlns="http://www.w3.org/2000/svg" xmlns:xlink="http://www.w3.org/1999/xlink" x="0px" y="0px"
	 viewBox="0 0 18 17" style="enable-background:new 0 0 18 17;" xml:space="preserve">
<style type="text/css">
	.st0{fill:none;}
	.st1{fill:#FFC038;}
</style>
<title>ic-close-white</title>
<desc>Created with Sketch.</desc>
<g id="Page-1">
	<g id="ic-close-white" transform="translate(-1.000000, -2.000000)">
		<g id="ic_close">
			<polygon id="Rectangle_3745" class="st0" points="0,0 20,0 20,20 0,20 			"/>
		</g>
	</g>
</g>
<path id="Path_18917" class="st1" d="M16.3,1.3l-0.6-0.6c-0.2-0.2-0.6-0.2-0.8,0L9.4,6.2c-0.2,0.2-0.6,0.2-0.8,0L3.1,0.7
	c-0.2-0.2-0.6-0.2-0.8,0L1.7,1.3c-0.2,0.2-0.2,0.6,0,0.8l5.4,5.4c0.2,0.2,0.2,0.6,0,0.8l-5.4,5.4c-0.2,0.2-0.2,0.6,0,0.8l0.6,0.6
	c0.2,0.2,0.6,0.2,0.8,0l5.4-5.4c0.2-0.2,0.6-0.2,0.8,0l5.4,5.4c0.2,0.2,0.6,0.2,0.8,0l0.6-0.6c0.2-0.2,0.2-0.6,0-0.8l-5.4-5.4
	c-0.2-0.2-0.2-0.6,0-0.8l5.4-5.4C16.5,1.9,16.5,1.5,16.3,1.3z"/>
</svg>
