<?xml version="1.0" encoding="utf-8"?>
<!-- Generator: Adobe Illustrator 24.0.1, SVG Export Plug-In . SVG Version: 6.00 Build 0)  -->
<svg version="1.1" id="Layer_1" xmlns="http://www.w3.org/2000/svg" xmlns:xlink="http://www.w3.org/1999/xlink" x="0px" y="0px"
	 viewBox="0 0 16 16" style="enable-background:new 0 0 16 16;" xml:space="preserve">
<style type="text/css">
	.st0{fill-rule:evenodd;clip-rule:evenodd;fill:#FFC038;}
	.st1{fill:none;}
</style>
<title>ic-clear-liliac</title>
<g id="Clear-Purple">
	<g id="ic-clear-purple">
		<path id="Path_18950" class="st0" d="M13.3,3.3l-0.6-0.6c-0.2-0.2-0.6-0.2-0.8,0c0,0,0,0,0,0L8.4,6.2c-0.2,0.2-0.6,0.2-0.8,0
			c0,0,0,0,0,0L4.1,2.7c-0.2-0.2-0.6-0.2-0.8,0c0,0,0,0,0,0L2.7,3.3c-0.2,0.2-0.2,0.6,0,0.8c0,0,0,0,0,0l3.4,3.5
			c0.2,0.2,0.2,0.6,0,0.8c0,0,0,0,0,0l-3.4,3.4c-0.2,0.2-0.2,0.6,0,0.8c0,0,0,0,0,0l0.6,0.6c0.2,0.2,0.6,0.2,0.8,0c0,0,0,0,0,0
			l3.4-3.4c0.2-0.2,0.6-0.2,0.8,0c0,0,0,0,0,0l3.5,3.4c0.2,0.2,0.6,0.2,0.8,0c0,0,0,0,0,0l0.6-0.6c0.2-0.2,0.2-0.6,0-0.8
			c0,0,0,0,0,0L9.8,8.4c-0.2-0.2-0.2-0.6,0-0.8c0,0,0,0,0,0l3.4-3.4C13.5,3.9,13.5,3.5,13.3,3.3C13.3,3.3,13.3,3.3,13.3,3.3z"/>
		<polygon id="Rectangle_4602" class="st1" points="0,0 16,0 16,16 0,16 		"/>
	</g>
</g>
</svg>
