<?xml version="1.0" encoding="utf-8"?>
<!-- Generator: Adobe Illustrator 24.0.1, SVG Export Plug-In . SVG Version: 6.00 Build 0)  -->
<svg version="1.1" id="Layer_1" xmlns="http://www.w3.org/2000/svg" xmlns:xlink="http://www.w3.org/1999/xlink" x="0px" y="0px"
	 viewBox="0 0 24 24" style="enable-background:new 0 0 24 24;" xml:space="preserve">
<style type="text/css">
	.st0{fill:#FFC038;}
	.st1{fill:none;}
</style>
<g id="ic_chevron_left" transform="rotate(90 12 12)">
	<g id="Group_8822">
		<path id="Path_18879" class="st0" d="M11.6,16L4.8,9.6C4.5,9.4,4.5,9,4.7,8.8l0.5-0.6C5.4,8,5.8,7.9,6,8.2l5.5,5.1
			c0.2,0.2,0.6,0.2,0.8,0l5.5-5.1C18,8,18.4,8,18.6,8.2l0.5,0.6c0.2,0.2,0.2,0.6,0,0.8L12.4,16C12.2,16.2,11.8,16.2,11.6,16z"/>
	</g>
	<path id="Rectangle_4407" class="st1" d="M0.6,0h22.8C23.7,0,24,0.3,24,0.6v22.8c0,0.3-0.3,0.6-0.6,0.6H0.6C0.3,24,0,23.7,0,23.4
		V0.6C0,0.3,0.3,0,0.6,0z"/>
</g>
</svg>
