<?xml version="1.0" encoding="utf-8"?>
<!-- Generator: Adobe Illustrator 24.0.1, SVG Export Plug-In . SVG Version: 6.00 Build 0)  -->
<svg version="1.1" id="Layer_1" shape-rendering="geometricPrecision"
	 xmlns="http://www.w3.org/2000/svg" xmlns:xlink="http://www.w3.org/1999/xlink" x="0px" y="0px" viewBox="0 0 24 24"
	 style="enable-background:new 0 0 24 24;" xml:space="preserve">
<style type="text/css">
	.st0{fill-rule:evenodd;clip-rule:evenodd;fill:#5AD88C;}
	.st1{fill:none;}
</style>
<g id="check_active" transform="translate(-290 -244)">
	<g id="Group_8199" transform="translate(291 245)">
		<path id="check_on_light" class="st0" d="M19.6,0H2.4C1.1,0,0,1.1,0,2.4v17.1C0,20.9,1.1,22,2.4,22h17.1c1.3,0,2.4-1.1,2.4-2.4
			V2.4C22,1.1,20.9,0,19.6,0z M8.1,16.7l-5.2-5c-0.2-0.2-0.2-0.6,0-0.9L3.7,10C4,9.8,4.3,9.8,4.6,10l3.6,3.4c0.2,0.2,0.6,0.2,0.8,0
			l8.5-8.1c0.2-0.2,0.6-0.2,0.8,0l0.8,0.8c0.2,0.2,0.2,0.6,0,0.9L9,16.7C8.7,16.9,8.4,16.9,8.1,16.7z"/>
	</g>
	<path id="Rectangle_4538" class="st1" d="M290.6,244h22.8c0.3,0,0.6,0.3,0.6,0.6v22.8c0,0.3-0.3,0.6-0.6,0.6h-22.8
		c-0.3,0-0.6-0.3-0.6-0.6v-22.8C290,244.3,290.3,244,290.6,244z"/>
</g>
</svg>
