<?xml version="1.0" encoding="utf-8"?>
<!-- Generator: Adobe Illustrator 24.0.1, SVG Export Plug-In . SVG Version: 6.00 Build 0)  -->
<svg version="1.1" id="ic_staking_on" shape-rendering="geometricPrecision"
	 xmlns="http://www.w3.org/2000/svg" xmlns:xlink="http://www.w3.org/1999/xlink" x="0px" y="0px" viewBox="0 0 24 24"
	 style="enable-background:new 0 0 24 24;" xml:space="preserve">
<style type="text/css">
	.st0{fill:none;}
	.st1{fill:#FFFFFF;}
</style>
<path id="Rectangle_4527" class="st0" d="M0,0h24v24H0V0z"/>
<g id="Path18914">
	<path class="st1" d="M19.62088,12.88318h-6.05494V22.5h6.05494c0.41758,0,0.83517-0.29439,0.83517-0.78505l0,0v-8.14486
		C20.35165,13.17757,20.03846,12.88318,19.62088,12.88318z"/>
	<path class="st1" d="M3.64835,13.57009v8.14486c0,0.39252,0.31319,0.78505,0.83517,0.78505l0,0h6.05495v-9.61682H4.37912
		C3.96154,12.88318,3.64835,13.17757,3.64835,13.57009z"/>
	<path class="st1" d="M2.5,8.85981v2.35514C2.5,11.60748,2.81319,12,3.33516,12h7.2033V8.07477h-7.2033
		C2.91758,8.07477,2.5,8.46729,2.5,8.85981z"/>
	<path class="st1" d="M20.66483,8.07477h-7.2033V12h7.2033C21.08242,12,21.5,11.70561,21.5,11.21495V8.85981
		C21.5,8.46729,21.08242,8.07477,20.66483,8.07477z"/>
	<path class="st1" d="M5.84066,7.19159c0.20879,0.09813,0.20879,0.09813,0.62637,0.09813h10.85714
		c0.31319,0,0.52198,0,0.73077-0.09813c0.83517-0.49065,1.25275-1.37383,1.14835-2.35514c0-0.78505-0.31319-1.47196-0.73077-2.15888
		C17.95055,1.99065,17.01099,1.5,16.07143,1.5h-0.20879c-2.50549,0.19626-3.54945,2.45327-3.96703,3.92523
		C11.47802,3.95327,10.43406,1.69626,7.92857,1.5H7.71978c-0.93956,0-1.87912,0.39252-2.4011,1.17757
		C4.9011,3.26636,4.58791,4.0514,4.58791,4.83645C4.58791,5.81776,5.10989,6.70093,5.84066,7.19159z M16.07143,2.97196
		L16.07143,2.97196c0.62638,0,1.04396,0.19626,1.35714,0.58879c0.31318,0.39252,0.41758,0.88318,0.41758,1.37383
		c0,0.39252-0.1044,1.17757-0.73077,1.17757h-3.75824C13.56593,5.03271,14.2967,3.07009,16.07143,2.97196z M6.57143,3.56075
		C6.88461,3.16822,7.3022,2.97196,7.82418,2.97196h0.1044c1.77472,0.09813,2.50549,2.06075,2.71429,3.14019H6.78022
		c-0.62637,0-0.73077-0.78505-0.73077-1.17757C6.15385,4.44393,6.25824,3.95327,6.57143,3.56075z"/>
</g>
</svg>
