<?xml version="1.0" encoding="utf-8"?>
<!-- Generator: Adobe Illustrator 24.0.1, SVG Export Plug-In . SVG Version: 6.00 Build 0)  -->
<svg version="1.1" id="Layer_1" xmlns="http://www.w3.org/2000/svg" xmlns:xlink="http://www.w3.org/1999/xlink" x="0px" y="0px"
	 viewBox="0 0 24 24" style="enable-background:new 0 0 24 24;" xml:space="preserve">
<style type="text/css">
	.st0{fill-rule:evenodd;clip-rule:evenodd;fill:#FFC038;}
	.st1{fill:none;}
</style>
<title>ic-contact-arrow-down</title>
<g id="ic-arrow-down">
	<g id="ic-arrow-drop-down">
		<g id="Group_8822">
			<path id="Path_18879" class="st0" d="M11.6,16L4.8,9.6C4.5,9.4,4.5,9,4.8,8.8c0,0,0,0,0,0l0.5-0.6C5.5,8,5.9,8,6.1,8.2
				c0,0,0,0,0,0l5.5,5.1c0.2,0.2,0.6,0.2,0.8,0l5.5-5.1c0.2-0.2,0.6-0.2,0.8,0c0,0,0,0,0,0l0.5,0.6c0.2,0.2,0.2,0.6,0,0.8
				c0,0,0,0,0,0L12.4,16C12.2,16.2,11.8,16.2,11.6,16z"/>
		</g>
		<polygon id="Rectangle_4407" class="st1" points="0,0 24,0 24,24 0,24 		"/>
	</g>
</g>
</svg>
