<?xml version="1.0" encoding="utf-8"?>
<!-- Generator: Adobe Illustrator 24.0.1, SVG Export Plug-In . SVG Version: 6.00 Build 0)  -->
<svg version="1.1" id="Layer_1" xmlns="http://www.w3.org/2000/svg" xmlns:xlink="http://www.w3.org/1999/xlink" x="0px" y="0px"
	 viewBox="0 0 24 24" style="enable-background:new 0 0 24 24;" xml:space="preserve">
<style type="text/css">
	.st0{opacity:0.997;fill-rule:evenodd;clip-rule:evenodd;fill:#FFFFFF;enable-background:new    ;}
	.st1{fill:none;}
</style>
<g id="check_box" transform="translate(-420 -576)">
	<path id="checkbox" class="st0" d="M440.6,580V596c0,0.3-0.3,0.6-0.6,0.6H424c-0.3,0-0.6-0.3-0.6-0.6V580c0-0.3,0.3-0.6,0.6-0.6
		H440C440.3,579.4,440.6,579.7,440.6,580z M440.6,577h-17.1c-1.3,0-2.4,1.1-2.4,2.4v17.1c0,1.3,1.1,2.4,2.4,2.4h17.1
		c1.3,0,2.4-1.1,2.4-2.4v-17.1C443,578.1,441.9,577,440.6,577z"/>
	<path id="Rectangle_4539" class="st1" d="M420,576h24v24h-24V576z"/>
</g>
</svg>
