<?xml version="1.0" encoding="utf-8"?>
<!-- Generator: Adobe Illustrator 24.0.1, SVG Export Plug-In . SVG Version: 6.00 Build 0)  -->
<svg version="1.1" id="Layer_1" xmlns="http://www.w3.org/2000/svg" xmlns:xlink="http://www.w3.org/1999/xlink" x="0px" y="0px"
	 viewBox="0 0 24 24" style="enable-background:new 0 0 24 24;" xml:space="preserve">
<style type="text/css">
	.st0{fill:#FFC038;}
	.st1{fill:none;}
</style>
<title>ic-chevron-right</title>
<g id="ic_chevron_right">
	<g id="Group_8822">
		<path id="Path_18879" class="st0" d="M16,12.4l-6.4,6.8c-0.2,0.2-0.6,0.2-0.8,0c0,0,0,0,0,0l-0.6-0.5c-0.2-0.2-0.2-0.6,0-0.9
			l5.1-5.5c0.2-0.2,0.2-0.6,0-0.8L8.2,6.1c-0.2-0.2-0.2-0.6,0-0.8c0,0,0,0,0,0l0.6-0.5c0.2-0.2,0.6-0.2,0.8,0c0,0,0,0,0,0l6.4,6.9
			C16.2,11.8,16.2,12.2,16,12.4z"/>
	</g>
	<path id="Rectangle_4407" class="st1" d="M0,24V0h24v24H0z"/>
</g>
</svg>
