<?xml version="1.0" encoding="utf-8"?>
<!-- Generator: Adobe Illustrator 24.0.1, SVG Export Plug-In . SVG Version: 6.00 Build 0)  -->
<svg version="1.1" id="ic_error_sync" shape-rendering="geometricPrecision"
	 xmlns="http://www.w3.org/2000/svg" xmlns:xlink="http://www.w3.org/1999/xlink" x="0px" y="0px" viewBox="0 0 24 24"
	 style="enable-background:new 0 0 24 24;" xml:space="preserve">
<style type="text/css">
	.st0{fill:#FFFFFF;}
	.st1{fill:none;}
</style>
<g id="Group_8889">
	<g id="Group_8887">
		<path id="Path_18905" class="st0" d="M20,16.1c0.5-1.1,0.9-2.2,1-3.4c0-0.3-0.3-0.6-0.6-0.6h-0.8c-0.3,0-0.6,0.3-0.6,0.6
			c-0.1,0.8-0.3,1.6-0.6,2.4c-0.1,0.2-0.1,0.5,0.1,0.7l0.6,0.6C19.3,16.5,19.8,16.4,20,16.1z"/>
		<path id="Path_18906_2_" class="st0" d="M6.1,16l2.3,0C8.7,16,9,15.7,9,15.4v-0.8C9,14.3,8.7,14,8.4,14H3.6C3.3,14,3,14.3,3,14.6
			v4.8C3,19.7,3.3,20,3.6,20h0.8C4.7,20,5,19.7,5,19.4v-1.8c2.7,3.4,7.3,4.3,11.1,2.4c0.4-0.2,0.5-0.7,0.2-1l-0.6-0.6
			c-0.2-0.2-0.4-0.2-0.7-0.1C12.3,19.6,9.2,19,7.1,17L6.1,16z"/>
	</g>
	<g id="Group_8888">
		<path id="Path_18908" class="st0" d="M4,7.9C3.4,9,3.1,10.2,3,11.4C3,11.7,3.3,12,3.6,12h0.8C4.7,12,5,11.7,5,11.4
			c0.1-0.8,0.3-1.6,0.6-2.4c0.1-0.2,0.1-0.5-0.1-0.7L4.9,7.8C4.7,7.5,4.2,7.6,4,7.9z"/>
	</g>
</g>
<g id="Group_8890">
	<path id="Rectangle_4442" class="st0" d="M3.7,4.3l0.6-0.6c0.2-0.2,0.6-0.2,0.8,0l15.2,15.2c0.2,0.2,0.2,0.6,0,0.8l-0.6,0.6
		c-0.2,0.2-0.6,0.2-0.8,0L3.7,5.1C3.5,4.9,3.5,4.5,3.7,4.3z"/>
</g>
<path id="Rectangle_4443" class="st1" d="M0,0h24v24H0V0z"/>
<path id="Path_18906_1_" class="st0" d="M17.9,8l-2.3,0C15.3,8,15,8.3,15,8.6v0.8c0,0.3,0.3,0.6,0.6,0.6h4.8c0.3,0,0.6-0.3,0.6-0.6
	V4.6C21,4.3,20.7,4,20.4,4h-0.8C19.3,4,19,4.3,19,4.6v1.8C16.3,3,11.7,2.1,7.9,4c-0.4,0.2-0.5,0.7-0.2,1l0.6,0.6
	c0.2,0.2,0.4,0.2,0.7,0.1C11.7,4.4,14.8,5,16.9,7L17.9,8z"/>
</svg>
