<?xml version="1.0" encoding="utf-8"?>
<!-- Generator: Adobe Illustrator 24.0.1, SVG Export Plug-In . SVG Version: 6.00 Build 0)  -->
<svg version="1.1" id="Layer_1" xmlns="http://www.w3.org/2000/svg" xmlns:xlink="http://www.w3.org/1999/xlink" x="0px" y="0px"
	 viewBox="0 0 24 24" style="enable-background:new 0 0 24 24;" xml:space="preserve">
<style type="text/css">
	.st0{opacity:0.6;}
	.st1{fill:#FFC038;}
	.st2{fill:none;}
</style>
<g id="ic-expand" class="st0">
	<g id="Group_8821">
		<path id="Path_18876" class="st1" d="M20,18.6l-4.9-4.9c-0.2-0.2-0.6-0.2-0.8,0l-0.6,0.6c-0.2,0.2-0.2,0.6,0,0.8l4.9,4.9h-2
			c-0.3,0-0.6,0.3-0.6,0.6v0.8c0,0.3,0.3,0.6,0.6,0.6h4.8c0.3,0,0.6-0.3,0.6-0.6v-4.8c0-0.3-0.3-0.6-0.6-0.6h-0.8
			c-0.3,0-0.6,0.3-0.6,0.6C20,16.6,20,18.6,20,18.6z"/>
		<path id="Path_18878" class="st1" d="M16,2.6v0.8C16,3.7,16.3,4,16.6,4h2l-4.9,4.9c-0.2,0.2-0.2,0.6,0,0.8l0.6,0.6
			c0.2,0.2,0.6,0.2,0.8,0L20,5.4v2C20,7.7,20.3,8,20.6,8h0.8C21.7,8,22,7.7,22,7.4V2.6C22,2.3,21.7,2,21.4,2h-4.8
			C16.3,2,16,2.3,16,2.6z"/>
	</g>
	<path id="Rectangle_4404" class="st2" d="M0,0h24v24H0V0z"/>
</g>
<g id="Group_8821_1_" class="st0">
	<path id="Path_18876_1_" class="st1" d="M4,18.6l4.9-4.9c0.2-0.2,0.6-0.2,0.8,0l0.6,0.6c0.2,0.2,0.2,0.6,0,0.8L5.4,20h2
		C7.7,20,8,20.3,8,20.6v0.8C8,21.7,7.7,22,7.4,22H2.6C2.3,22,2,21.7,2,21.4v-4.8C2,16.3,2.3,16,2.6,16h0.8C3.7,16,4,16.3,4,16.6
		V18.6z"/>
	<path id="Path_18878_1_" class="st1" d="M8,2.6v0.8C8,3.7,7.7,4,7.4,4h-2l4.9,4.9c0.2,0.2,0.2,0.6,0,0.8l-0.6,0.6
		c-0.2,0.2-0.6,0.2-0.8,0L4,5.4v2C4,7.7,3.7,8,3.4,8H2.6C2.3,8,2,7.7,2,7.4V2.6C2,2.3,2.3,2,2.6,2h4.8C7.7,2,8,2.3,8,2.6z"/>
</g>
<path id="Rectangle_4404_1_" class="st2" d="M0,24h24"/>
</svg>
