<?xml version="1.0" encoding="utf-8"?>
<!-- Generator: Adobe Illustrator 24.0.1, SVG Export Plug-In . SVG Version: 6.00 Build 0)  -->
<svg version="1.1" id="Layer_1" xmlns="http://www.w3.org/2000/svg" xmlns:xlink="http://www.w3.org/1999/xlink" x="0px" y="0px"
	 viewBox="0 0 50 40" style="enable-background:new 0 0 50 40;" xml:space="preserve">
<style type="text/css">
	.st0{fill:#FFC038;}
	.st1{fill:none;}
</style>
<title>Folder</title>
<desc>Created with Sketch.</desc>
<g id="Folder">
	<g id="ic-folder" transform="translate(8.000000, 8.000000)">
		<path id="Path_18915" class="st0" d="M14.4,6.7l-1.6-2.5C12.6,4.1,12.4,4,12.2,4H2.6C2.3,4,2,4.3,2,4.6v14.8C2,19.7,2.3,20,2.6,20
			h18.8c0.3,0,0.6-0.3,0.6-0.6V7.6C22,7.3,21.7,7,21.4,7h-6.5C14.7,7,14.5,6.9,14.4,6.7z M4,6h7.1c0.2,0,0.4,0.1,0.5,0.3L12.1,7H4V6
			z M19.4,18H4.6C4.3,18,4,17.7,4,17.4V9.6C4,9.3,4.3,9,4.6,9h14.8C19.7,9,20,9.3,20,9.6v7.8C20,17.7,19.7,18,19.4,18z"/>
		<polygon id="Rectangle_4528" class="st1" points="0,0 24,0 24,24 0,24 		"/>
	</g>
</g>
</svg>
