<?xml version="1.0" encoding="utf-8"?>
<!-- Generator: Adobe Illustrator 24.0.1, SVG Export Plug-In . SVG Version: 6.00 Build 0)  -->
<svg version="1.1" id="ic_information" xmlns="http://www.w3.org/2000/svg" xmlns:xlink="http://www.w3.org/1999/xlink" x="0px"
	 y="0px" viewBox="0 0 30 30" style="enable-background:new 0 0 30 30;" xml:space="preserve">
<style type="text/css">
	.st0{fill:none;}
	.st1{fill:#FFFFFF;}
</style>
<path id="Rectangle_3651" class="st0" d="M0,0h30v30H0V0z"/>
<g id="Group_8281_1_">
	<path id="Path_18409_1_" class="st1" d="M15,28.5c-7.5,0-13.5-6-13.5-13.5S7.5,1.5,15,1.5s13.5,6,13.5,13.5S22.5,28.5,15,28.5
		L15,28.5z M15,3.6C8.7,3.6,3.6,8.7,3.6,15S8.7,26.4,15,26.4S26.4,21.3,26.4,15S21.3,3.6,15,3.6L15,3.6z"/>
</g>
<g>
	<g id="Artboard">
		<path id="_x3F_" class="st1" d="M15.6,21.5h-1.2c-0.3,0-0.6,0.3-0.6,0.6v1.2c0,0.3,0.3,0.6,0.6,0.6h1.2c0.3,0,0.6-0.3,0.6-0.6
			v-1.2C16.2,21.9,15.9,21.5,15.6,21.5z"/>
		<path class="st1" d="M14.1,19c0,0.3,0.2,0.6,0.6,0.6h0.6c0.3,0,0.6-0.3,0.6-0.6c0.1-0.6,0.1-1,0.2-1.3c0.1-0.4,0.3-0.8,0.5-1
			s0.6-0.7,1.3-1.4c1.1-0.9,1.9-1.7,2.2-2.4c0.3-0.7,0.5-1.4,0.5-2.2c0-1.4-0.5-2.5-1.6-3.4S16.8,5.9,15,5.9c-1.7,0-2.9,0.4-3.9,1.3
			c-0.8,0.7-1.5,1.9-1.7,3.2c-0.1,0.3,0.2,0.7,0.5,0.7l1,0.1c0.3,0,0.6-0.2,0.6-0.5c0.2-0.9,0.6-1.7,1-2.2C13.3,8,14.1,7.7,15,7.7
			c1,0,1.8,0.2,2.5,0.9s1,1.5,1,2.3c0,0.4-0.2,0.9-0.4,1.2c-0.2,0.3-0.7,0.8-1.5,1.6l-1.6,1.6c-0.4,0.5-0.6,0.9-0.8,1.5
			c-0.2,0.5-0.2,1.2-0.2,2V19z"/>
	</g>
</g>
</svg>
