<?xml version="1.0" encoding="utf-8"?>
<!-- Generator: Adobe Illustrator 24.0.1, SVG Export Plug-In . SVG Version: 6.00 Build 0)  -->
<svg version="1.1" id="ic_information" xmlns="http://www.w3.org/2000/svg" xmlns:xlink="http://www.w3.org/1999/xlink" x="0px"
	 y="0px" viewBox="0 0 30 30" style="enable-background:new 0 0 30 30;" xml:space="preserve">
<style type="text/css">
	.st0{fill:#FFFFFF;}
	.st1{fill:none;}
</style>
<g id="Group_8281">
	<path id="Path_18409" class="st0" d="M15,28C7.8,28,2,22.2,2,15S7.8,2,15,2s13,5.8,13,13S22.2,28,15,28L15,28z M15,4
		C8.9,4,4,8.9,4,15s4.9,11,11,11s11-4.9,11-11S21.1,4,15,4L15,4z"/>
</g>
<path id="Rectangle_3651" class="st1" d="M0,0h30v30H0V0z"/>
<g>
	<g id="Artboard">
		<path id="_x3F_" class="st0" d="M15.6,21.3h-1.2c-0.3,0-0.6,0.3-0.6,0.6v1.2c0,0.3,0.3,0.6,0.6,0.6h1.2c0.3,0,0.6-0.3,0.6-0.6
			v-1.2C16.2,21.6,15.9,21.3,15.6,21.3z"/>
		<path class="st0" d="M14.1,18.9c0,0.3,0.2,0.6,0.6,0.6h0.6c0.3,0,0.6-0.3,0.6-0.6c0.1-0.6,0.1-1,0.2-1.3c0.1-0.4,0.3-0.8,0.5-1
			s0.6-0.7,1.3-1.3c1.1-0.9,1.8-1.6,2.1-2.3s0.5-1.3,0.5-2.1c0-1.3-0.5-2.4-1.5-3.3s-2.3-1.4-4-1.4c-1.6,0-2.8,0.4-3.8,1.3
			c-0.8,0.7-1.4,1.8-1.6,3.1c-0.1,0.3,0.2,0.7,0.5,0.7l1,0.1c0.3,0,0.6-0.2,0.6-0.5c0.2-0.9,0.6-1.6,1-2.1C13.4,8.3,14.1,8,15,8
			c1,0,1.7,0.2,2.4,0.9c0.7,0.7,1,1.4,1,2.2c0,0.4-0.2,0.9-0.4,1.2c-0.2,0.3-0.7,0.8-1.4,1.5l-1.5,1.5c-0.4,0.5-0.6,0.9-0.8,1.4
			s-0.2,1.2-0.2,1.9V18.9z"/>
	</g>
</g>
</svg>
