<?xml version="1.0" encoding="utf-8"?>
<!-- Generator: Adobe Illustrator 24.0.1, SVG Export Plug-In . SVG Version: 6.00 Build 0)  -->
<svg version="1.1" id="Layer_1" xmlns="http://www.w3.org/2000/svg" xmlns:xlink="http://www.w3.org/1999/xlink" x="0px" y="0px"
	 viewBox="0 0 24 30" style="enable-background:new 0 0 24 30;" xml:space="preserve">
<style type="text/css">
	.st0{fill:#FFFFFF;}
</style>
<title>Master Active</title>
<desc>Created with Sketch.</desc>
<g>
	<path class="st0" d="M14.36125,22.05c0,0,0-0.1,0-0.2c0-1.6,0-3.3,0-4.9c0,0,0,0.1,0,0l-1.49912,3.7h-0.20901
		c-0.30144,0-0.88167,0-1.18311,0c0,0-1.42933-3.2-1.73077-3.6c0,0,0,0,0,0.1c0,1.6,0,3.2,0,4.8v0.1H8.5335c0-2,0-4.1,0-6h0.20096
		h1.60766l1.77178,3.42443l1.544-3.42443c0.50239,0,1.30622,0,1.80861,0c0,0.1,0,5.9,0,6H14.36125z"/>
</g>
<path class="st0" d="M21.19379,13.95c0-0.1,0-0.2,0-0.3v-2.1c0-0.5-0.40191-0.9-0.9043-0.9h-2.11005
	c-0.50239,0-0.90431,0.4-0.90431,0.9v2.1c0,0.5,0.40191,0.9,0.90431,0.9H20.189c0.70335,1.3,1.00478,2.8,1.00478,4.3
	c0,2.4-0.9043,4.7-2.71292,6.4c-1.70813,1.7-4.01914,2.7-6.43062,2.7c-0.70335,0-1.4067-0.1-2.11005-0.2
	c-0.30144,0-0.60287,0.2-0.70335,0.5s0.10048,0.6,0.40191,0.7c0.80383,0.2,1.60766,0.3,2.41148,0.3
	c2.8134,0,5.42584-1.1,7.33493-3.1s3.11483-4.6,3.11483-7.3C22.39953,17.15,21.99762,15.45,21.19379,13.95L21.19379,13.95z
	 M18.38039,11.85h1.50718v1.5h-1.50718V11.85z"/>
<path class="st0" d="M6.52393,23.95H4.41389l0,0c-1.00478-1.5-1.50718-3.2-1.50718-5c0-2.4,0.90431-4.7,2.71292-6.4
	s4.01914-2.7,6.43062-2.7c0.90431,0,1.80861,0.1,2.71292,0.4c0.30144,0.1,0.60287-0.1,0.70335-0.4
	c0.10048-0.3-0.10048-0.6-0.40191-0.7c-1.00478-0.3-2.00957-0.4-3.11483-0.4c-2.8134,0-5.42584,1.1-7.33493,3.1
	s-3.11484,4.6-3.11484,7.3c0,2.1,0.60287,4.1,1.80861,5.8v0.1v2.1c0,0.5,0.40191,0.9,0.90431,0.9h2.11005
	c0.50239,0,0.90431-0.4,0.90431-0.9v-2.1C7.25508,24.27754,7.25976,23.94244,6.52393,23.95L6.52393,23.95z M6.2225,26.65H4.71532
	v-1.5H6.2225C6.2225,25.15,6.2225,26.65,6.2225,26.65z"/>
</svg>
