<?xml version="1.0" encoding="utf-8"?>
<!-- Generator: Adobe Illustrator 24.0.1, SVG Export Plug-In . SVG Version: 6.00 Build 0)  -->
<svg version="1.1" id="Layer_1" xmlns="http://www.w3.org/2000/svg" xmlns:xlink="http://www.w3.org/1999/xlink" x="0px" y="0px"
	 viewBox="0 0 24 40" style="enable-background:new 0 0 24 40;" xml:space="preserve">
<style type="text/css">
	.st0{fill:#FFFFFF;}
</style>
<title>Address</title>
<desc>Created with Sketch.</desc>
<g id="group_8927">
	<path class="st0" d="M18.1,19.6013c0-3.4-2.8-6.2-6.3-6.1c-3.2,0.1-5.9,2.7-5.9,6c0,2.1,1,3.9,2.6,5c-1.5,0.5-2.8,1.3-4,2.5
		c-1.8,1.8-2.8,4-3,6.6c0,0.5,0.3,0.9,0.8,0.9l0,0c0.4,0,0.8-0.3,0.8-0.7c0.4-4.5,4.2-8.2,8.9-8.2
		C15.3,25.6013,18.1,22.9013,18.1,19.6013L18.1,19.6013z M12,24.0013c-2.4,0-4.4-2-4.4-4.4s2-4.4,4.4-4.4s4.4,2,4.4,4.4
		S14.4,24.0013,12,24.0013L12,24.0013z M15.5,29.6013h6.2c0.4,0,0.8,0.4,0.8,0.8l0,0c0,0.4-0.4,0.8-0.8,0.8h-6.2
		c-0.4,0-0.8-0.4-0.8-0.8l0,0C14.7,30.0013,15,29.6013,15.5,29.6013z M22.5,27.1013L22.5,27.1013c0,0.4-0.4,0.8-0.8,0.8h-6.2
		c-0.4,0-0.8-0.4-0.8-0.8l0,0c0-0.4,0.4-0.8,0.8-0.8h6.2C22.1,26.3013,22.5,26.6013,22.5,27.1013z M15.5,32.9013h6.2
		c0.4,0,0.8,0.4,0.8,0.8l0,0c0,0.4-0.4,0.8-0.8,0.8h-6.2c-0.4,0-0.8-0.4-0.8-0.8l0,0C14.7,33.3013,15,32.9013,15.5,32.9013z"/>
</g>
</svg>
