<?xml version="1.0" encoding="utf-8"?>
<!-- Generator: Adobe Illustrator 24.0.1, SVG Export Plug-In . SVG Version: 6.00 Build 0)  -->
<svg version="1.1" id="Layer_1" xmlns="http://www.w3.org/2000/svg" xmlns:xlink="http://www.w3.org/1999/xlink" x="0px" y="0px"
	 viewBox="0 0 24 40" style="enable-background:new 0 0 24 40;" xml:space="preserve">
<style type="text/css">
	.st0{fill:#808080;}
</style>
<title>Address</title>
<desc>Created with Sketch.</desc>
<g id="group_8927">
	<path class="st0" d="M18.39047,19.39184c0-3.5619-2.93333-6.49524-6.6-6.39048c-3.35238,0.10476-6.18095,2.82857-6.18095,6.28571
		c0,2.2,1.04762,4.08571,2.72381,5.23809C6.7619,25.04898,5.4,25.88707,4.14286,27.14422
		C2.25714,29.02993,1.20952,31.33469,1,34.0585c0,0.52381,0.31429,0.94286,0.8381,0.94286l0,0
		c0.41905,0,0.8381-0.31429,0.8381-0.73333c0.41905-4.71429,4.4-8.59048,9.32381-8.59048
		C15.45714,25.67755,18.39047,22.84898,18.39047,19.39184L18.39047,19.39184z M12,24.00136
		c-2.51429,0-4.60952-2.09524-4.60952-4.60952S9.48571,14.78231,12,14.78231s4.60952,2.09524,4.60952,4.60952
		S14.51429,24.00136,12,24.00136L12,24.00136z M15.66667,29.86803h6.49524c0.41905,0,0.83809,0.41905,0.83809,0.83809l0,0
		c0,0.41905-0.41905,0.83809-0.83809,0.83809h-6.49524c-0.41905,0-0.83809-0.41905-0.83809-0.83809l0,0
		C14.82857,30.28707,15.14286,29.86803,15.66667,29.86803z M23,27.24898L23,27.24898c0,0.41905-0.41905,0.83809-0.83809,0.83809
		h-6.49524c-0.41905,0-0.83809-0.41905-0.83809-0.83809l0,0c0-0.41905,0.41905-0.83809,0.83809-0.83809h6.49524
		C22.58095,26.41088,23,26.72517,23,27.24898z M15.66667,33.32517h6.49524c0.41905,0,0.83809,0.41905,0.83809,0.83809l0,0
		c0,0.41905-0.41905,0.8381-0.83809,0.8381h-6.49524c-0.41905,0-0.83809-0.41905-0.83809-0.8381l0,0
		C14.82857,33.74422,15.14286,33.32517,15.66667,33.32517z"/>
</g>
</svg>
