<?xml version="1.0" encoding="utf-8"?>
<!-- Generator: Adobe Illustrator 24.0.1, SVG Export Plug-In . SVG Version: 6.00 Build 0)  -->
<svg version="1.1" id="Layer_1" xmlns="http://www.w3.org/2000/svg" xmlns:xlink="http://www.w3.org/1999/xlink" x="0px" y="0px"
	 viewBox="0 0 24 40" style="enable-background:new 0 0 24 40;" xml:space="preserve">
<style type="text/css">
	.st0{fill:#808080;}
	.st1{fill:#FFFFFF;}
</style>
<title>Dashboard</title>
<desc>Created with Sketch.</desc>
<title>Dashboard</title>
<desc>Created with Sketch.</desc>
<g>
	<path class="st0" d="M9.10488,17.76381"/>
	<path class="st0" d="M19.88672,22.24373l0.09983,0.09955c0,0.09955,0,0.09955,0,0.19911c0,2.48884-0.07149,7.37464-0.09983,8.76071
		c0,0.19911,0,0.39821,0,0.39821c-0.06474,0.14663-0.20693,0.23356-0.30676,0.23356s-3.89344,0-5.79025,0
		c-0.09983,0-0.09257-0.134-0.09257-0.23356c0-0.09956,0-0.09955,0-0.19911c0-1.49331,0-3.08616,0-4.57946V26.8232
		c0,0,0-0.09955-0.09983-0.09955s-0.19966,0-0.39933,0c-0.99832,0-2.09647,0-3.09479,0c0,0,0,0-0.09983,0
		c0,0-0.09983,0-0.09983,0.09955c0,1.39375,0,2.9866,0,4.38036c0,0.19911,0,0.29866,0,0.59732c0,0.09955,0,0.19911-0.09983,0.19911
		c-1.99664,0-3.89344,0-5.89008,0c-0.19966,0-0.19966-0.19911-0.19966-0.29866c0-1.39375,0-3.18571,0-4.67902
		c0-1.09509,0-2.28973,0-3.38482c0-0.39821,0-0.79643,0-1.19464c0-0.09955,0-0.09955,0.09983-0.19911l8.28605-6.86919h0.09983
		L19.88672,22.24373z"/>
	<path class="st0" d="M17.59059,19.25712"/>
	<path class="st0" d="M10.1032,16.17096"/>
	<path class="st1" d="M22.9815,22.44284h-0.09983"/>
	<path class="st0" d="M21.58743,22.85134c0.29949,0.19911,0.29949,0.29866,0.69882,0.29866
		c0.09983,0,0.22722-0.02683,0.29949-0.09955c0.09939-0.1,0.42024-0.33907,0.42024-0.63774l-0.05792-0.1593
		c0,0-0.10274-0.13497-0.17939-0.21254c0,0-0.10779-0.11335-0.28276-0.28462L12.10339,12h-0.09983L1.42139,21.55714
		c-0.09983,0.09955-0.2995,0.29866-0.2995,0.29866c-0.09983,0.09955-0.11591,0.31685-0.11591,0.31685l0.03562,0.27028
		c0.10579,0.18471,0.16302,0.27179,0.26285,0.37134c0.09983,0.09955,0.21676,0.13662,0.3166,0.13662
		c0.2995,0,0.39933-0.09955,0.69882-0.29866l9.64355-8.12822c0.16478-0.11817,0.04256-0.03087,0.21533-0.15037L21.58743,22.85134z"
		/>
	<path class="st0" d="M18.38924,16.9674v-0.09955c0-0.69688,0-1.39375,0-2.09062c0-0.09955,0-0.29866,0-0.39822
		c0-0.09955,0-0.09955,0.09983-0.09955c0.49916,0,1.09815,0,1.69714,0c0.09983,0,0.19966,0,0.39933,0
		c0.09983,0,0.09983,0,0.09983,0.09955c0,0.59733,0,1.39375,0,2.09062l0,0c0,0.69688,0,1.39375,0,2.09062v0.09955v0.29866
		L18.38924,16.9674z"/>
</g>
</svg>
