<?xml version="1.0" encoding="utf-8"?>
<!-- Generator: Adobe Illustrator 24.0.1, SVG Export Plug-In . SVG Version: 6.00 Build 0)  -->
<svg version="1.1" id="Layer_1" xmlns="http://www.w3.org/2000/svg" xmlns:xlink="http://www.w3.org/1999/xlink" x="0px" y="0px"
	 viewBox="0 0 24 40" style="enable-background:new 0 0 24 40;" xml:space="preserve">
<style type="text/css">
	.st0{fill:none;}
	.st1{fill:#808080;}
</style>
<title>Privacy</title>
<desc>Created with Sketch.</desc>
<path id="Rectangle_4543" class="st0" d="M0,13.5h24v24H0C0,37.5,0,13.5,0,13.5z"/>
<g>
	<path class="st1" d="M23,25.04902c0,6.04393-4.92237,11.15-11.4157,10.94159C5.71935,35.7822,0.79699,30.98874,1.00645,24.7364
		c0.10473-5.6271,4.60817-10.73318,10.99678-10.73318C18.07763,14.00322,23,19.00509,23,25.04902z M12.00322,15.04528
		c-5.44602,0-9.94946,4.37664-10.0542,9.69112c0,5.83551,4.60817,10.10794,9.84473,10.21215
		c5.76021,0.10421,10.26366-4.68925,10.15893-10.21215C21.74323,19.52612,17.44925,15.04528,12.00322,15.04528z"/>
	<path class="st1" d="M11.79376,21.08921c1.98989,0,3.97979,0,5.96968,0c0.83785,0,1.78043,0.20841,2.61828,0.31262
		c0.20946,0,0.20946,0.10421,0.20946,0.31262c0.10473,0.31262,0,0.62523-0.10473,0.93785
		c-0.31419,1.25047-0.52366,2.50093-0.94258,3.7514c-0.20946,0.52103-0.52365,0.93785-1.15204,1.14626
		c-1.25678,0.31261-2.40882,0.41682-3.77032,0.10421c-0.41892-0.10421-0.73312-0.41682-0.94258-0.83364
		c-0.31419-0.83364-0.73312-1.7715-1.15204-2.70935c0-0.10421-0.10473-0.10421-0.10473-0.20841
		c-0.10473-0.31262-0.41892-0.41682-0.73312-0.41682s-0.52366,0.20841-0.62839,0.41682
		c-0.31419,0.72944-0.62839,1.56308-0.83785,2.29252c-0.31419,1.04206-1.04731,1.56309-2.19935,1.56309
		c-0.94258,0-1.88516-0.10421-2.82774-0.31262c-0.52366-0.10421-0.94258-0.41682-1.15204-0.93785
		c-0.31419-1.45888-0.62839-2.81355-0.94258-4.27243v-0.10421c0-0.52103,0-0.62523,0.52366-0.72944
		c1.15204-0.10421,1.88516-0.20841,2.61828-0.20841C8.12817,21.08921,10.01333,21.08921,11.79376,21.08921L11.79376,21.08921z
		 M8.12817,22.02706c-1.15204-0.10421-2.09462-0.10421-3.24667,0c-0.20946,0-0.20946,0.20841-0.20946,0.31262
		c0,1.14626,0.20946,2.18832,0.41892,3.33458c0.20946,0.62523,0.31419,0.62523,0.94258,0.62523
		c-0.20946-0.10421-0.52366-0.10421-0.52366-0.41682c-0.20946-0.83364-0.41892-1.8757-0.31419-2.81355
		c0.10473-0.41682,0.20946-0.62523,0.73312-0.72944C6.66193,22.23547,7.39505,22.23547,8.12817,22.02706z M17.55398,22.02706
		c-0.94258,0-1.98989-0.10421-2.93247,0c-0.20946,0-0.41892,0.10421-0.41892,0.31262c0,1.25047,0.20946,2.50093,0.62839,3.6472
		c0.10473,0.20841,0.52366,0.31262,0.73312,0.20841c-0.10473-0.10421-0.41893-0.10421-0.41893-0.41682
		c-0.20946-0.83364-0.31419-1.7715-0.31419-2.70935c0.10473-0.62523,0.20946-0.72944,0.83785-0.83364
		C16.40193,22.23547,16.92559,22.02706,17.55398,22.02706z"/>
</g>
</svg>
