<?xml version="1.0" encoding="utf-8"?>
<!-- Generator: Adobe Illustrator 24.0.1, SVG Export Plug-In . SVG Version: 6.00 Build 0)  -->
<svg version="1.1" id="Layer_1" xmlns="http://www.w3.org/2000/svg" xmlns:xlink="http://www.w3.org/1999/xlink" x="0px" y="0px"
	 viewBox="0 0 24 30" style="enable-background:new 0 0 24 30;" xml:space="preserve">
<style type="text/css">
	.st0{fill:#808080;}
</style>
<title>Master Active</title>
<desc>Created with Sketch.</desc>
<g>
	<path class="st0" d="M14.47369,22.19524c0,0,0-0.10476,0-0.20952c0-1.67619,0-3.45714,0-5.13334c0,0,0,0.10476,0,0
		l-1.57051,3.87619h-0.21896c-0.31579,0-0.92365,0-1.23945,0c0,0-1.49739-3.35238-1.81319-3.77143c0,0,0,0,0,0.10476
		c0,1.67619,0,3.35238,0,5.02858v0.10476H8.36842c0-2.09524,0-4.29524,0-6.28572h0.21053h1.68422l1.85615,3.5875l1.61752-3.5875
		c0.52631,0,1.36842,0,1.89474,0c0,0.10476,0,6.18096,0,6.28572H14.47369z"/>
</g>
<path class="st0" d="M21.63159,13.70952c0-0.10476,0-0.20952,0-0.31429v-2.2c0-0.52381-0.42105-0.94286-0.94736-0.94286H18.4737
	c-0.52631,0-0.94737,0.41905-0.94737,0.94286v2.2c0,0.52381,0.42105,0.94286,0.94737,0.94286h2.10526
	c0.73684,1.36191,1.05263,2.93333,1.05263,4.50476c0,2.51429-0.94736,4.92381-2.84211,6.70477
	c-1.78947,1.78095-4.21053,2.82857-6.73684,2.82857c-0.73684,0-1.47369-0.10476-2.21053-0.20952
	c-0.31579,0-0.63158,0.20952-0.73684,0.52381s0.10526,0.62857,0.42105,0.73334c0.84211,0.20952,1.68422,0.31428,2.52631,0.31428
	c2.94737,0,5.68422-1.15238,7.68422-3.24762S23,21.67143,23,18.84286C22.89475,17.0619,22.4737,15.28095,21.63159,13.70952
	L21.63159,13.70952z M18.68422,11.50952h1.57895v1.57143h-1.57895V11.50952z"/>
<path class="st0" d="M6.26316,24.18572H4.05264l0,0c-1.05263-1.57143-1.57895-3.35238-1.57895-5.2381
	c0-2.51429,0.94737-4.92381,2.84211-6.70477s4.21053-2.82857,6.73684-2.82857c0.94737,0,1.89474,0.10476,2.84211,0.41905
	c0.31579,0.10476,0.63158-0.10476,0.73684-0.41905C15.73685,9.1,15.52633,8.78571,15.21054,8.68095
	c-1.05263-0.31429-2.10526-0.41905-3.26316-0.41905c-2.94737,0-5.68422,1.15238-7.68422,3.24762S1,16.32857,1,19.15714
	c0,2.2,0.63158,4.29524,1.89474,6.07619v0.10476v2.2c0,0.52381,0.42105,0.94286,0.94737,0.94286h2.21053
	c0.52631,0,0.94737-0.41905,0.94737-0.94286v-2.2C7.02912,24.52885,7.03403,24.1778,6.26316,24.18572L6.26316,24.18572z
	 M5.94737,27.01429H4.36842v-1.57143h1.57895C5.94737,25.44286,5.94737,27.01429,5.94737,27.01429z"/>
</svg>
