<?xml version="1.0" encoding="utf-8"?>
<!-- Generator: Adobe Illustrator 24.0.1, SVG Export Plug-In . SVG Version: 6.00 Build 0)  -->
<svg version="1.1" id="Layer_1" xmlns="http://www.w3.org/2000/svg" xmlns:xlink="http://www.w3.org/1999/xlink" x="0px" y="0px"
	 viewBox="0 0 24 40" style="enable-background:new 0 0 24 40;" xml:space="preserve">
<style type="text/css">
	.st0{fill:#808080;}
	.st1{fill:#FFFFFF;}
</style>
<title>Dashboard</title>
<desc>Created with Sketch.</desc>
<title>Dashboard</title>
<desc>Created with Sketch.</desc>
<g>
	<path class="st0" d="M8.97301,17.57126"/>
	<path class="st0" d="M20.24493,22.25481l0.10437,0.10408c0,0.10408,0,0.10408,0,0.20816c0,2.60196-0.07474,7.70985-0.10437,9.15893
		c0,0.20816,0,0.41631,0,0.41631c-0.06769,0.1533-0.21634,0.24417-0.3207,0.24417s-4.07041,0-6.05344,0
		c-0.10437,0-0.09678-0.14009-0.09678-0.24417c0-0.10408,0-0.10408,0-0.20816c0-1.56118,0-3.22644,0-4.78762v-0.10408
		c0,0,0-0.10408-0.10437-0.10408s-0.20874,0-0.41748,0c-1.0437,0-2.19176,0-3.23546,0c0,0,0,0-0.10437,0
		c0,0-0.10437,0-0.10437,0.10408c0,1.4571,0,3.12236,0,4.57946c0,0.20816,0,0.31224,0,0.62448c0,0.10408,0,0.20816-0.10437,0.20816
		c-2.0874,0-4.07041,0-6.15781,0c-0.20874,0-0.20874-0.20816-0.20874-0.31224c0-1.4571,0-3.33052,0-4.8917
		c0-1.14487,0-2.39381,0-3.53867c0-0.41632,0-0.83263,0-1.24895c0-0.10408,0-0.10408,0.10437-0.20816l8.66268-7.18143h0.10437
		L20.24493,22.25481z"/>
	<path class="st0" d="M17.84443,19.13245"/>
	<path class="st0" d="M10.01671,15.906"/>
	<path class="st1" d="M22.9815,22.44284h-0.09983"/>
	<path class="st0" d="M22.02295,22.89003c0.3131,0.20816,0.3131,0.31224,0.73059,0.31224c0.10437,0,0.23755-0.02805,0.3131-0.10408
		c0.10391-0.10455,0.43934-0.35448,0.43934-0.66672l-0.06055-0.16654c0,0-0.10741-0.1411-0.18754-0.2222
		c0,0-0.11269-0.1185-0.29561-0.29756L12.10782,11.54545h-0.10437L0.94027,21.53701
		c-0.10437,0.10408-0.31311,0.31224-0.31311,0.31224c-0.10437,0.10408-0.12118,0.33125-0.12118,0.33125l0.03724,0.28256
		c0.1106,0.1931,0.17043,0.28414,0.2748,0.38822c0.10437,0.10407,0.22661,0.14283,0.33099,0.14283
		c0.31311,0,0.41748-0.10408,0.73058-0.31224l10.08189-8.49768c0.17227-0.12354,0.0445-0.03228,0.22511-0.1572L22.02295,22.89003z"
		/>
	<path class="st0" d="M18.67939,16.73864v-0.10408c0-0.72855,0-1.4571,0-2.18565c0-0.10408,0-0.31224,0-0.41632
		s0-0.10408,0.10437-0.10408c0.52185,0,1.14807,0,1.77428,0c0.10437,0,0.20873,0,0.41748,0c0.10437,0,0.10437,0,0.10437,0.10408
		c0,0.62448,0,1.4571,0,2.18565l0,0c0,0.72855,0,1.4571,0,2.18565v0.10408v0.31224L18.67939,16.73864z"/>
</g>
</svg>
