<?xml version="1.0" encoding="utf-8"?>
<!-- Generator: Adobe Illustrator 24.0.1, SVG Export Plug-In . SVG Version: 6.00 Build 0)  -->
<svg version="1.1" id="Layer_1" xmlns="http://www.w3.org/2000/svg" xmlns:xlink="http://www.w3.org/1999/xlink" x="0px" y="0px"
	 viewBox="0 0 24 40" style="enable-background:new 0 0 24 40;" xml:space="preserve">
<style type="text/css">
	.st0{fill:none;}
	.st1{fill:#FFFFFF;}
</style>
<title>Privacy</title>
<desc>Created with Sketch.</desc>
<path id="Rectangle_4543" class="st0" d="M0,13.5h24v24H0C0,37.5,0,13.5,0,13.5z"/>
<g>
	<path class="st1" d="M22.50308,25.04681c0,5.7709-4.7,10.6463-10.9,10.44731c-5.6-0.19899-10.3-4.77591-10.1-10.7458
		c0.1-5.3729,4.4-10.24831,10.5-10.24831C17.80308,14.5,22.50308,19.27591,22.50308,25.04681z M12.00308,15.49498
		c-5.2,0-9.5,4.17892-9.6,9.25333c0,5.5719,4.4,9.65132,9.4,9.75082c5.5,0.09949,9.8-4.47742,9.7-9.75082
		C21.30308,19.7734,17.20308,15.49498,12.00308,15.49498z"/>
	<path class="st1" d="M11.80308,21.26588c1.9,0,3.8,0,5.7,0c0.8,0,1.7,0.199,2.5,0.29849c0.2,0,0.2,0.0995,0.2,0.29849
		c0.1,0.29849,0,0.59699-0.1,0.89548c-0.3,1.19398-0.5,2.38796-0.9,3.58193c-0.2,0.49749-0.5,0.89548-1.1,1.09448
		c-1.2,0.29849-2.3,0.39799-3.6,0.0995c-0.4-0.0995-0.7-0.39799-0.9-0.79598c-0.3-0.79598-0.7-1.69147-1.1-2.58695
		c0-0.0995-0.1-0.0995-0.1-0.199c-0.1-0.29849-0.4-0.39799-0.7-0.39799s-0.5,0.199-0.6,0.39799
		c-0.3,0.69649-0.6,1.49247-0.8,2.18896c-0.3,0.99498-1,1.49247-2.1,1.49247c-0.9,0-1.8-0.0995-2.7-0.29849
		c-0.5-0.0995-0.9-0.39799-1.1-0.89548c-0.3-1.39297-0.6-2.68645-0.9-4.07943v-0.0995c0-0.49749,0-0.59699,0.5-0.69649
		c1.1-0.0995,1.8-0.199,2.5-0.199C8.30308,21.26588,10.10308,21.26588,11.80308,21.26588L11.80308,21.26588z M8.30308,22.16136
		c-1.1-0.0995-2-0.0995-3.1,0c-0.2,0-0.2,0.199-0.2,0.29849c0,1.09448,0.2,2.08946,0.4,3.18394c0.2,0.59699,0.3,0.59699,0.9,0.59699
		c-0.2-0.0995-0.5-0.0995-0.5-0.39799c-0.2-0.79598-0.4-1.79097-0.3-2.68645c0.1-0.39799,0.2-0.59699,0.7-0.69649
		C6.90308,22.36036,7.60308,22.36036,8.30308,22.16136z M17.30308,22.16136c-0.9,0-1.9-0.0995-2.8,0c-0.2,0-0.4,0.0995-0.4,0.29849
		c0,1.19398,0.2,2.38796,0.6,3.48244c0.1,0.199,0.5,0.29849,0.7,0.199c-0.1-0.0995-0.4-0.0995-0.4-0.39799
		c-0.2-0.79598-0.3-1.69147-0.3-2.58695c0.1-0.59699,0.2-0.69649,0.8-0.79599
		C16.20308,22.36036,16.70308,22.16136,17.30308,22.16136z"/>
</g>
</svg>
