<?xml version="1.0" encoding="utf-8"?>
<!-- Generator: Adobe Illustrator 24.0.1, SVG Export Plug-In . SVG Version: 6.00 Build 0)  -->
<svg version="1.1" id="Layer_1" xmlns="http://www.w3.org/2000/svg" xmlns:xlink="http://www.w3.org/1999/xlink" x="0px" y="0px"
	 viewBox="0 0 24 40" style="enable-background:new 0 0 24 40;" xml:space="preserve">
<style type="text/css">
	.st0{fill:#FFFFFF;}
	.st1{fill:#808080;}
</style>
<title>Settings</title>
<desc>Created with Sketch.</desc>
<path class="st0" d="M22.01345,21.87894H20.435c-0.19732-0.98655-0.59196-1.77584-1.08524-2.56506l1.08524-1.08518
	c0.29595-0.29595,0.29595-0.6906,0-0.98655l-1.97309-1.9731c-0.29595-0.29595-0.6906-0.29595-0.98655,0l-1.08524,1.08518
	c-0.78923-0.49327-1.57845-0.88786-2.565-1.08518v-1.57851c0-0.39458-0.39464-0.69054-0.78923-0.69054h-2.86101
	c-0.39458,0-0.5919,0.29595-0.5919,0.69054v1.57851c-0.98655,0.19732-1.77577,0.5919-2.56506,1.08518l-1.08518-1.08518
	c-0.29595-0.29595-0.6906-0.29595-0.98655,0l-1.9731,1.9731c-0.29595,0.29595-0.29595,0.69059,0,0.98655l1.18387,1.08518
	c-0.49327,0.78922-0.88792,1.67714-1.08524,2.56506H1.5919C1.19732,21.87894,1,22.17488,1,22.56947v2.86101
	c0,0.39464,0.29595,0.6906,0.5919,0.6906h1.57851c0.19732,0.98655,0.5919,1.77577,1.08518,2.565l-1.08518,1.08524
	c-0.29595,0.29595-0.29595,0.69054,0,0.98655l1.9731,1.9731c0.29595,0.29595,0.6906,0.29595,0.98655,0l1.18387-1.08524
	c0.78923,0.49327,1.67708,0.88792,2.565,1.08524v1.57845c0,0.39464,0.29595,0.69059,0.5919,0.69059h2.86101
	c0.39464,0,0.6906-0.29595,0.6906-0.69059v-1.57845c0.98655-0.19732,1.67714-0.59196,2.565-1.08524l1.08524,1.08524
	c0.29595,0.29595,0.69053,0.29595,0.98655,0l1.97309-1.9731c0.29595-0.29601,0.29595-0.69059,0-0.98655l-1.08524-1.08524
	c0.49327-0.78923,0.88792-1.67714,1.08524-2.565h1.57845c0.39464,0,0.78923-0.29595,0.78923-0.6906v-2.86101
	C22.92105,22.00719,22.46728,21.85919,22.01345,21.87894z M11.85202,27.92648c-2.29867,0-4.15339-1.85471-4.15339-4.15339
	c0-2.2888,1.85471-4.15339,4.15339-4.15339s4.15339,1.86459,4.15339,4.15339C16.00541,26.07176,14.15069,27.92648,11.85202,27.92648
	z"/>
<path class="st1" d="M15.7,21.5L15.7,21.5z"/>
</svg>
