<?xml version="1.0" encoding="utf-8"?>
<!-- Generator: Adobe Illustrator 24.0.1, SVG Export Plug-In . SVG Version: 6.00 Build 0)  -->
<svg version="1.1" id="Layer_1" xmlns="http://www.w3.org/2000/svg" xmlns:xlink="http://www.w3.org/1999/xlink" x="0px" y="0px"
	 viewBox="0 0 24 40" style="enable-background:new 0 0 24 40;" xml:space="preserve">
<style type="text/css">
	.st0{fill:none;}
	.st1{fill:#808080;}
</style>
<title>Receive off</title>
<desc>Created with Sketch.</desc>
<path id="Rectangle_4413" class="st0" d="M0.05,12.09341h24v24h-24C0.05,36.09341,0.05,12.09341,0.05,12.09341z"/>
<path id="Rectangle_4408" class="st0" d="M0.37,12.09341h24v24h-24C0.37,36.09341,0.37,12.09341,0.37,12.09341z"/>
<g id="Group_8834_1_">
	<path class="st1" d="M0.53286,26.60013c0.07717,0.56203,0.17344,1.11584,0.34826,1.65182
		c0.36382,0.98715,0.90196,1.89782,1.58768,2.68682c0.82073,0.94331,1.79438,1.73548,2.8783,2.34182
		c1.11165,0.63396,2.30956,1.09552,3.55435,1.36955c0.49376,0.11332,0.99292,0.20056,1.49549,0.26136
		c0.26632,0,0.53264,0.05227,0.8092,0.06273l0,0h1.32136c1.86209-0.08525,3.68795-0.55469,5.36737-1.38
		c1.09273-0.53144,2.09547-1.23727,2.97049-2.09091c0.71796-0.68959,1.32006-1.49485,1.78229-2.38364
		c0.35625-0.69189,0.60505-1.43607,0.7375-2.20591c0.06293-0.39037,0.12244-0.78716,0.11404-1.18269l-0.00136-0.1555
		c-0.0396-0.57739-0.5303-1.01269-1.09601-0.97227c-0.5657,0.04042-0.96762,0.5464-0.97239,1.12055
		c-0.0286,0.19301-0.04449,0.40061-0.05721,0.58875c-0.05986,0.48868-0.10691,0.95125-0.29177,1.40616
		c-0.36344,0.86152-0.89694,1.63735-1.56719,2.27909c-0.71143,0.6934-1.52768,1.26528-2.41736,1.69364
		c-2.24028,1.1245-4.77348,1.49072-7.23161,1.04546c-0.80284-0.14302-1.58893-0.37075-2.34566-0.67954
		c-1.01889-0.40915-1.96394-0.98859-2.79636-1.71455c-0.60934-0.5387-1.12532-1.17843-1.52622-1.89227
		c-0.46727-0.81095-0.58474-1.74871-0.70677-2.67636c0.0049-0.04516-0.02879-0.22275-0.03369-0.26791
		c-0.10443-0.56746-0.60611-0.80909-1.1621-0.70251c-0.34315,0.06579-0.7935,0.37995-0.78363,0.76915
		C0.47636,25.64192,0.53944,26.50883,0.53286,26.60013"/>
	<path class="st1" d="M9.71848,24.1102l0.96285,0.98273l0.54288,0.56455c0.17799,0.18098,0.41495,0.28888,0.6658,0.30318
		c0.29491,0.0164,0.58241-0.09792,0.78872-0.31364l1.0243-1.04545l2.70417-2.77045c0.24081-0.21463,0.36962-0.5317,0.34827-0.85727
		c0.00097-0.55376-0.42128-1.01223-0.96285-1.04545c-0.29625-0.02533-0.58735,0.09042-0.78872,0.31363l-1.95643,2.09091
		l-0.0717,0.06273c-0.00521-0.03465-0.00521-0.0699,0-0.10455c0-1.04545,0-2.16409,0-3.24091s0-2.15364,0-3.24091
		c0-0.52273,0-1.04545,0-1.58909c0.01009-0.07281,0.01009-0.14673,0-0.21955c-0.0396-0.57738-0.5303-1.01269-1.09601-0.97227
		c-0.56572,0.04042-0.99221,0.54125-0.95261,1.11864c0,0.26136,0,0.51227,0,0.77364c0,2.45333,0,4.91712,0,7.39136v0.10455
		l-0.0717-0.06273L8.94,20.37793c-0.3981-0.41022-1.04665-0.41339-1.44857-0.00708c-0.11481,0.11607-0.20108,0.2582-0.25178,0.4148
		c-0.12614,0.36944-0.02556,0.78007,0.25607,1.04546C8.23323,22.60474,8.98098,23.35747,9.71848,24.1102z"/>
</g>
</svg>
