<?xml version="1.0" encoding="utf-8"?>
<!-- Generator: Adobe Illustrator 24.0.1, SVG Export Plug-In . SVG Version: 6.00 Build 0)  -->
<svg version="1.1" id="Layer_1" xmlns="http://www.w3.org/2000/svg" xmlns:xlink="http://www.w3.org/1999/xlink" x="0px" y="0px"
	 viewBox="0 0 24 40" style="enable-background:new 0 0 24 40;" xml:space="preserve">
<style type="text/css">
	.st0{fill:#808080;}
</style>
<title>Settings</title>
<desc>Created with Sketch.</desc>
<path class="st0" d="M22.46861,21.78252h-1.6502c-0.20629-1.03139-0.61887-1.85656-1.13457-2.68165l1.13457-1.13451
	c0.3094-0.3094,0.3094-0.72199,0-1.03139l-2.06278-2.06279c-0.3094-0.3094-0.72199-0.3094-1.03139,0l-1.13457,1.13451
	c-0.8251-0.51569-1.6502-0.92822-2.68159-1.13451v-1.65026c0-0.41252-0.41258-0.72193-0.8251-0.72193h-2.99106
	c-0.41252,0-0.6188,0.3094-0.6188,0.72193v1.65026c-1.03139,0.20629-1.85649,0.6188-2.68165,1.13451l-1.13451-1.13451
	c-0.3094-0.3094-0.72199-0.3094-1.03139,0l-2.06279,2.06279c-0.3094,0.3094-0.3094,0.72198,0,1.03139l1.23768,1.13451
	c-0.51569,0.82509-0.92828,1.75337-1.13457,2.68165H1.1188c-0.41252,0-0.6188,0.3094-0.6188,0.72192v2.99106
	c0,0.41258,0.3094,0.72199,0.6188,0.72199h1.65026c0.20629,1.03139,0.6188,1.85649,1.13451,2.68159l-1.13451,1.13457
	c-0.3094,0.3094-0.3094,0.72193,0,1.03139l2.06279,2.06279c0.3094,0.3094,0.72199,0.3094,1.03139,0l1.23768-1.13457
	c0.8251,0.51569,1.75331,0.92828,2.68159,1.13457v1.6502c0,0.41258,0.3094,0.72198,0.6188,0.72198h2.99106
	c0.41258,0,0.72199-0.30941,0.72199-0.72198v-1.6502c1.03139-0.20629,1.75337-0.61887,2.68159-1.13457l1.13457,1.13457
	c0.3094,0.3094,0.72192,0.3094,1.03139,0l2.06277-2.06279c0.3094-0.30946,0.3094-0.72198,0-1.03139l-1.13457-1.13457
	c0.51569-0.8251,0.92828-1.75337,1.13457-2.68159h1.6502c0.41258,0,0.8251-0.3094,0.8251-0.72199v-2.99106
	C23.41747,21.9166,22.94307,21.76188,22.46861,21.78252z M11.84529,28.10495c-2.40316,0-4.34218-1.93902-4.34218-4.34218
	c0-2.39284,1.93902-4.34218,4.34218-4.34218s4.34218,1.94934,4.34218,4.34218
	C16.18748,26.16593,14.24845,28.10495,11.84529,28.10495z"/>
<path class="st0" d="M15.7,21.5L15.7,21.5z"/>
</svg>
