<?xml version="1.0" encoding="utf-8"?>
<!-- Generator: Adobe Illustrator 24.0.1, SVG Export Plug-In . SVG Version: 6.00 Build 0)  -->
<svg version="1.1" id="Layer_1" xmlns="http://www.w3.org/2000/svg" xmlns:xlink="http://www.w3.org/1999/xlink" x="0px" y="0px"
	 viewBox="0 0 30 30" style="enable-background:new 0 0 30 30;" xml:space="preserve">
<style type="text/css">
	.st0{opacity:0.7;}
	.st1{opacity:0.79;}
	.st2{fill:#FFFFFF;}
	.st3{opacity:0.79;fill:none;}
</style>
<g id="ic_pending" class="st0">
	<g id="Group_8850" class="st1">
		<path id="Path_18903" class="st2" d="M15,27C8.4,27,3,21.6,3,15S8.4,3,15,3s12,5.4,12,12C27,21.6,21.6,27,15,27z M15,6
			c-5,0-9,4-9,9s4,9,9,9s9-4,9-9C24,10,20,6,15,6z"/>
	</g>
	<g id="Group_8851" class="st1">
		<path id="Path_18904" class="st2" d="M20.4,18h-6.3c-0.3,0-0.6-0.3-0.6-0.6V9.6c0-0.3,0.3-0.6,0.6-0.6h1.8c0.3,0,0.6,0.3,0.6,0.6
			v4.8c0,0.3,0.3,0.6,0.6,0.6h3.3c0.3,0,0.6,0.3,0.6,0.6v1.8C21,17.7,20.7,18,20.4,18z"/>
	</g>
	<path id="Rectangle_4429" class="st3" d="M0,0h30v30H0V0z"/>
</g>
</svg>
