<?xml version="1.0" encoding="utf-8"?>
<!-- Generator: Adobe Illustrator 24.0.1, SVG Export Plug-In . SVG Version: 6.00 Build 0)  -->
<svg version="1.1" id="Layer_1" xmlns="http://www.w3.org/2000/svg" xmlns:xlink="http://www.w3.org/1999/xlink" x="0px" y="0px"
	 viewBox="0 0 28 24" style="enable-background:new 0 0 28 24;" xml:space="preserve">
<style type="text/css">
	.st0{fill:#FFFFFF;}
</style>
<title>Sub Menu Locked Copy 2</title>
<desc>Created with Sketch.</desc>
<path class="st0" d="M9.8,22.3h13c0.9,0,1.6-0.6,1.8-1.4H8C8.2,21.7,8.9,22.3,9.8,22.3z"/>
<path class="st0" d="M22.3,7.7c0-4.3-4.6-7.6-9.2-5.2c-1.7,1-2.8,2.9-2.8,4.9V10H9.1C8.5,10,8,10.5,8,11.1v9.1h16.7v-9.1
	c0-0.6-0.5-1.1-1.1-1.1h-1.3l0,0V7.7L22.3,7.7z M17.1,16.3v1.4h-1.5v-1.4c-0.7-0.4-1-1.3-0.4-2.2c0.1-0.1,0.1-0.2,0.2-0.2
	c1.2-0.8,2.4,0,2.4,1.2C17.8,15.5,17.5,16,17.1,16.3z M19.6,10h-6.7V7.4c0-1,0.5-1.8,1.3-2.4c2.5-1.6,5.2,0,5.4,2.3
	C19.6,7.3,19.6,10,19.6,10z"/>
</svg>
