<?xml version="1.0" encoding="utf-8"?>
<!-- Generator: Adobe Illustrator 24.0.1, SVG Export Plug-In . SVG Version: 6.00 Build 0)  -->
<svg version="1.1" id="Layer_1" xmlns="http://www.w3.org/2000/svg" xmlns:xlink="http://www.w3.org/1999/xlink" x="0px" y="0px"
	 viewBox="0 0 28 24" style="enable-background:new 0 0 28 24;" xml:space="preserve">
<style type="text/css">
	.st0{fill:#FFFFFF;}
</style>
<title>Sub Menu Locked</title>
<desc>Created with Sketch.</desc>
<path class="st0" d="M14.8,4.8c2.7-1.7,5.5,0.2,5.5,2.8h2.7c0-4.4-4.7-7.8-9.4-5.3c-1.8,1-2.9,2.9-2.9,4.9v2.6H9.7
	c-0.6,0-1.2,0.5-1.2,1.2v9.3h17v-9.3c0-0.6-0.5-1.2-1.2-1.2H23h-2.7h-6.7V7.3C13.6,6.2,14.1,5.3,14.8,4.8z M15.8,14.1
	c0.1-0.1,0.1-0.2,0.2-0.2c1.2-0.8,2.4,0.1,2.4,1.2c0,0.5-0.3,1-0.7,1.3V18h-1.6v-1.5C15.6,15.9,15.2,15,15.8,14.1z"/>
<path class="st0" d="M10.4,22.5h13.3c0.9,0,1.6-0.6,1.8-1.4H8.6C8.8,21.9,9.6,22.5,10.4,22.5z"/>
</svg>
