<?xml version="1.0" encoding="utf-8"?>
<!-- Generator: Adobe Illustrator 24.0.1, SVG Export Plug-In . SVG Version: 6.00 Build 0)  -->
<svg version="1.1" id="Layer_1" xmlns="http://www.w3.org/2000/svg" xmlns:xlink="http://www.w3.org/1999/xlink" x="0px" y="0px"
	 viewBox="0 0 28 24" style="enable-background:new 0 0 28 24;" xml:space="preserve">
<style type="text/css">
	.st0{fill:none;}
	.st1{fill:#FFFFFF;}
</style>
<title>Sub Menu Locked Copy</title>
<desc>Created with Sketch.</desc>
<g>
	<path class="st0" d="M9.57138,4.56879C8.95029,4.95697,8.5621,5.6557,8.5621,6.43208v2.01856h5.20168V6.43208
		C13.60851,4.56879,11.51231,3.32659,9.57138,4.56879z"/>
	<path class="st1" d="M6.15535,18h10.09282c0.69873,0,1.24219-0.46582,1.39747-1.08692H4.75788
		C4.91316,17.53418,5.45662,18,6.15535,18z"/>
	<path class="st1" d="M15.85999,6.66499c0-3.33839-3.57131-5.90042-7.14261-4.03713
		C7.39754,3.40423,6.54354,4.87933,6.54354,6.43208v2.01856H5.61189c-0.46582,0-0.85401,0.38819-0.85401,0.85401v7.06498h12.96539
		V9.30465c0-0.46582-0.38819-0.85401-0.85401-0.85401h-1.00928l0,0V6.66499L15.85999,6.66499z M11.82286,13.34177v1.08692H10.6583
		v-1.08692c-0.54346-0.31055-0.77637-1.00928-0.31055-1.70802c0.07764-0.07764,0.07764-0.15527,0.15527-0.15527
		c0.93164-0.6211,1.86329,0,1.86329,0.93164C12.36632,12.72068,12.13341,13.10886,11.82286,13.34177z M13.76379,8.45064H8.5621
		V6.43208c0-0.77637,0.38818-1.39747,1.00928-1.86329c1.94093-1.24219,4.03713,0,4.1924,1.78565
		C13.76379,6.35444,13.76379,8.45064,13.76379,8.45064z"/>
</g>
<g id="_x38_823">
	<path class="st1" d="M25.24212,12.03963v0.13518c-0.00488,0.13972-0.01873,0.25938-0.04503,0.40554
		c-0.13508,0.85615-0.45027,1.62217-1.03563,2.29808c-0.81049,0.94627-1.6287,1.47761-2.88947,1.56773
		c-0.0638,0.00851-0.18803,0.01852-0.27872,0.02517c-0.17963,0.01317-0.18768,0.01468-0.36779,0.01468
		c-0.09005,0-0.41872-0.00765-0.51649-0.03047c-0.85552-0.09012-1.62099-0.4506-2.2964-0.99133
		c-0.85552-0.72097-1.39585-1.62218-1.62099-2.70362c-0.45028-2.34314,1.03563-4.68628,3.37706-5.27207
		c2.38646-0.58579,4.77291,0.81109,5.49335,3.15423c0.09006,0.31542,0.12653,0.52647,0.17156,0.84189l0.00855,0.23956
		C25.24212,11.81433,25.24212,11.94951,25.24212,12.03963 M20.64931,16.09507c2.2964,0,4.18755-1.89254,4.18755-4.19062
		s-1.89115-4.19062-4.18755-4.19062s-4.18755,1.89254-4.18755,4.19062S18.35291,16.09507,20.64931,16.09507z"/>
	<path class="st1" d="M25.24212,12.08469c0-0.09012,0-0.2253,0-0.31542C25.24212,11.85939,25.24212,11.94951,25.24212,12.08469z"/>
	<path class="st1" d="M20.69434,15.68952c-2.07126,0-3.78231-1.66724-3.78231-3.74001s1.66602-3.78507,3.78231-3.78507
		c2.07126,0,3.73728,1.66723,3.73728,3.78507C24.43162,13.97723,22.76561,15.68952,20.69434,15.68952z M18.75816,13.07602
		l-0.8105,0.36048c0.04503-0.04506,0,0,0.04503-0.04506c1.35082-1.35181,2.70165-2.70362,4.05247-4.01037
		c0.04503-0.04506,0.09006-0.13518,0.18011-0.18024l0,0c0.04503,0.54073,0.13508,1.12651,0.18011,1.66724c0,0,0,0,0.04503,0
		c0.36022-0.27036,0.72044-0.49566,1.08066-0.76603c0.04503-0.04506,0-0.04506,0-0.09012
		c-0.76547-1.17157-2.25137-1.75735-3.6022-1.44193c-1.89115,0.4506-3.01684,2.34314-2.47651,4.23568
		c0.45028,1.75736,2.25137,2.8388,3.96242,2.3882c1.35082-0.31542,2.20635-1.21663,2.56656-2.56844
		c0.04503-0.13518,0.09006-0.27036,0.09006-0.4506c-1.08066,0.72097-2.20634,1.44193-3.287,2.1629
		c0.04503-0.76603,0.13508-1.53205,0.18011-2.29808c0,0-0.04503,0-0.04503,0.04506
		c-0.58536,0.27036-1.17071,0.54072-1.71104,0.81109L18.75816,13.07602z M19.34352,12.44518L19.34352,12.44518
		c0.67541-0.27036,1.3058-0.58578,1.98121-0.90121c-0.04503,0.72097-0.09006,1.44193-0.18011,2.20796c0,0,0.04503,0,0.04503-0.04506
		c0.94558-0.63085,1.89115-1.26169,2.83673-1.84748c0.04503-0.04506,0.04503-0.04506,0.04503-0.09012
		c-0.04503-0.49566-0.13508-0.94627-0.36022-1.35181c-0.04503-0.04506-0.04503-0.04506-0.09006,0
		c-0.4953,0.36048-0.94558,0.67591-1.44088,0.99133l-0.04503,0.04506c-0.04503-0.49566-0.09005-1.03639-0.18011-1.57711
		C21.09959,10.73288,20.24407,11.58903,19.34352,12.44518z"/>
</g>
</svg>
