<?xml version="1.0" encoding="utf-8"?>
<!-- Generator: Adobe Illustrator 24.0.1, SVG Export Plug-In . SVG Version: 6.00 Build 0)  -->
<svg version="1.1" id="ic-transaction-staked" xmlns="http://www.w3.org/2000/svg" xmlns:xlink="http://www.w3.org/1999/xlink"
	 x="0px" y="0px" viewBox="0 0 24 24" style="enable-background:new 0 0 24 24;" xml:space="preserve">
<style type="text/css">
	.st0{fill:none;stroke:#FFFFFF;stroke-width:2;stroke-miterlimit:10;}
	.st1{fill:#FFFFFF;}
	.st2{fill:#808080;}
</style>
<title>contract-icon-reward</title>
<ellipse class="st0" cx="11.94976" cy="12" rx="10.04785" ry="10"/>
<g>
	<path class="st1" d="M13.35646,9.7h-0.80383c-0.20096,0-0.30144,0.1-0.30144,0.3v0.5c0,0.2,0.10048,0.3,0.30144,0.3h0.80383V9.9
		V9.7z"/>
	<path class="st2" d="M13.35646,9.7"/>
	<path class="st1" d="M14.86364,13.2v-0.5c0-0.2-0.10048-0.3-0.30144-0.3h-0.20096h-1.00478h-0.10048H13.1555h-0.80383
		c-0.20096,0-0.30144,0.1-0.30144,0.3v0.5c0,0.2,0.10048,0.3,0.30144,0.3h0.40191h0.40191h0.10048h0.10048h1.20574
		C14.66268,13.5,14.86364,13.4,14.86364,13.2z"/>
	<path class="st1" d="M14.96412,14.6v-0.5c0-0.2-0.10048-0.3-0.30144-0.3h-0.20096h-1.20574H13.1555h-0.10048h-0.40191
		c-0.20096,0-0.30144,0.1-0.30144,0.3v0.5c0,0.2,0.10048,0.3,0.30144,0.3h0.40191h0.10048h0.10048h1.30622
		C14.76316,14.9,14.96412,14.7,14.96412,14.6z"/>
	<path class="st1" d="M14.86364,11.8v-0.4c-0.20096,0.2-0.40191,0.4-0.70335,0.4h-0.50239c0,0,0,0-0.10048,0h-0.10048
		c0,0-0.10048-0.1-0.10048-0.2V11h-0.80383h-0.20096c-0.20096,0-0.30144,0.1-0.30144,0.3v0.5c0,0.2,0.10048,0.3,0.30144,0.3h0.20096
		h0.80383h0.10048h0.10048h1.00478C14.76316,12.1,14.86364,12,14.86364,11.8z"/>
	<path class="st2" d="M13.65789,9.5L13.65789,9.5"/>
	<path class="st1" d="M13.45694,9.8L13.45694,9.8L13.45694,9.8c0,0,0,0,0,0.1v0.9v0.1V11v0.6c0,0,0,0.1,0.10048,0.1h0.50239
		c0.30144,0,0.60287-0.2,0.70335-0.5v-0.1V11l0,0v-0.5c0,0,0-0.1,0.10048-0.1h0.50239c0,0,0.10048,0,0.10048,0.1
		c0,0.3,0.10048,0.6,0.30144,0.9c0.20096,0.3,0.40191,0.5,0.70335,0.6l0.9043,0.4l0,0c0,0,0.10048,0,0,0.1c0,0,0,0-0.10048,0
		l-0.9043-0.4c-0.30144-0.1-0.60287-0.4-0.70335-0.7c-0.20096-0.3-0.30144-0.6-0.30144-0.9h-0.40191V11c0,0.1,0,0.1,0,0.2v0.1v0.5
		c0,0.1-0.10048,0.3-0.20096,0.4c0.20096,0.1,0.30144,0.2,0.30144,0.5v0.5c0,0.1-0.10048,0.3-0.20096,0.4
		c0.20096,0.1,0.30144,0.2,0.30144,0.5v0.5c0,0.1-0.10048,0.2-0.10048,0.3h1.80861c0.10048,0,0.30144,0,0.40191-0.1l0.50239-0.4
		c0.10048-0.1,0.20096-0.2,0.20096-0.3l0.40191-1.3v1.4c0,0.1,0.10048,0.1,0.10048,0.1l3.61723,0.4L22.5,10.2l-4.01914,0.4
		c-0.10048,0-0.10048,0.1-0.10048,0.1v1.4l-0.40191-1.3c0-0.1-0.10048-0.2-0.20096-0.3L16.27033,9
		c-0.10048-0.1-0.20096-0.2-0.20096-0.2c-0.10048,0,0,0-0.10048-0.1c-0.10048,0-0.30144,0-0.30144,0
		c-0.10048,0-1.80861,0.8-1.80861,0.8L13.45694,9.8"/>
</g>
<g>
	<path class="st1" d="M10.54306,9.6L10.54306,9.6L10.54306,9.6L10.54306,9.6h0.80383c0.20096,0,0.30144,0.1,0.30144,0.3v0.5
		c0,0.2-0.10048,0.3-0.30144,0.3h-0.80383V9.8"/>
	<path class="st1" d="M8.93541,13v-0.5c0-0.2,0.10048-0.3,0.30144-0.3H9.4378h1.00479h0.10048h0.10048h0.80383
		c0.20096,0,0.30144,0.1,0.30144,0.3V13c0,0.2-0.10048,0.3-0.30144,0.3h-0.40191h-0.40191h-0.10048h-0.10048H9.23684
		C9.03589,13.3,8.93541,13.2,8.93541,13z"/>
	<path class="st1" d="M8.83493,14.4v-0.6c0-0.2,0.10048-0.3,0.30144-0.3h0.20096h1.20574h0.10048h0.10048h0.40191
		c0.20096,0,0.30144,0.1,0.30144,0.3v0.5c0,0.2-0.10048,0.3-0.30144,0.3h-0.40191h-0.10048h-0.10048H9.23684
		C9.03589,14.6,8.83493,14.5,8.83493,14.4z"/>
	<path class="st1" d="M9.03589,11.7v-0.4c0.20096,0.2,0.40191,0.4,0.70335,0.4h0.50239c0,0,0,0,0.10048,0h0.10048
		c0,0,0.10048-0.1,0.10048-0.2v-0.7h0.80383h0.20096c0.20096,0,0.30144,0.1,0.30144,0.3v0.5c0,0.2-0.10048,0.3-0.30144,0.3h-0.20096
		h-0.80383h-0.10048h-0.10048H9.33732C9.13636,11.9,9.03589,11.9,9.03589,11.7z"/>
	<path class="st1" d="M7.42823,11.9c0.30144-0.1,0.60287-0.4,0.70335-0.7c0.20096-0.3,0.30144-0.6,0.30144-0.9h0.40191v0.5
		c0,0.1,0,0.1,0,0.2v0.1v0.5c0,0.1,0.10048,0.3,0.20096,0.4c-0.20096,0.1-0.30144,0.2-0.30144,0.5V13c0,0.1,0.10048,0.3,0.20096,0.4
		c-0.20096,0.1-0.30144,0.2-0.30144,0.5v0.5c0,0.1,0.10048,0.2,0.10048,0.3H6.82536c-0.10048,0-0.30144,0-0.40191-0.1l-0.50239-0.4
		C5.82057,14.1,5.7201,14,5.7201,13.9l-0.40191-1.3V14c0,0.1-0.10048,0.1-0.10048,0.1l-3.61722,0.3L1.5,10.1l3.7177,0.3
		c0.10048,0,0.10048,0.1,0.10048,0.1v1.4l0.40191-1.3c0-0.1,0.10048-0.2,0.20096-0.3l1.60766-1.5L8.0311,8.5
		c0,0,0.10048,0,0.20096,0s0.20096,0,0.30144,0.1l1.50718,0.7c0,0,0.40191,0.2,0.40191,0.3c0,0,0,0,0,0.1v0.9v0.1v0.1v0.6
		c0,0,0,0.1-0.10048,0.1H9.73923c-0.30144,0-0.60287-0.2-0.70335-0.5v-0.1v-0.1v-0.5c0,0,0-0.1-0.10048-0.1H8.43301
		c0,0-0.10048,0-0.10048,0.1c0,0.3-0.10048,0.6-0.30144,0.9c-0.20096,0.3-0.40191,0.5-0.70335,0.6l-0.90431,0.4
		c0,0-0.10048,0.1,0,0.1L7.42823,11.9z"/>
</g>
<path class="st2" d="M13.45694,9.7"/>
<path class="st2" d="M13.45694,9.8"/>
</svg>
