<?xml version="1.0" encoding="utf-8"?>
<!-- Generator: Adobe Illustrator 24.0.1, SVG Export Plug-In . SVG Version: 6.00 Build 0)  -->
<svg version="1.1" id="ic-transaction-staked" xmlns="http://www.w3.org/2000/svg" xmlns:xlink="http://www.w3.org/1999/xlink"
	 x="0px" y="0px" viewBox="0 0 24 24" style="enable-background:new 0 0 24 24;" xml:space="preserve">
<style type="text/css">
	.st0{fill:#FFFFFF;}
	.st1{fill:none;}
	.st2{fill:#808080;}
</style>
<g>
	<path class="st0" d="M18.3,13L18.3,13L18.3,13z"/>
</g>
<path class="st1" d="M10.2,5.8l-0.6-1C9.5,4.5,9.2,4.2,8.9,4.1C8.8,4.1,8.6,4,8.5,4C8.3,4,8.1,4,8,4.1C7.3,4.5,7,5.2,7.3,5.8H10.2z"
	/>
<path class="st1" d="M16.9,4.9c-0.1-0.3-0.4-0.6-0.7-0.7C16,4.1,15.6,4,15.3,4.1s-0.6,0.3-0.8,0.6l-0.6,1h2.9
	C17,5.5,17,5.2,16.9,4.9z"/>
<rect x="5.9" y="10.1" class="st1" width="12.3" height="9.6"/>
<rect x="3.6" y="7.1" class="st1" width="17" height="1.6"/>
<g id="Path18914">
	<path class="st2" d="M19.21978,12.83803h-5.73626V22.5h5.73626c0.39561,0,0.79121-0.29577,0.79121-0.78873v-8.1831
		C19.91209,13.1338,19.61539,12.83803,19.21978,12.83803z"/>
	<path class="st2" d="M4.08791,13.52817v8.1831c0,0.39437,0.2967,0.78873,0.79121,0.78873l0,0c2.86813,0,5.73626,0,8.6044,0
		c0-3.25352,0-6.40845,0-9.66197c-2.86813,0-5.73626,0-8.6044,0C4.38461,12.83803,4.08791,13.1338,4.08791,13.52817z"/>
	<path class="st2" d="M3,8.79578v2.3662c0,0.39437,0.2967,0.78873,0.79121,0.78873h6.82418V8.00704H3.79121
		C3.3956,8.00704,3,8.40141,3,8.79578z"/>
	<path class="st2" d="M20.20879,8.00704h-6.82418v3.84507h6.82418c0.3956,0,0.79121-0.29578,0.79121-0.78873v-2.2676
		C21,8.40141,20.6044,8.00704,20.20879,8.00704z"/>
	<path class="st2" d="M6.16483,7.21831C6.36264,7.3169,6.46154,7.3169,6.75824,7.3169h10.28571c0.2967,0,0.4945,0,0.69231-0.09859
		c0.79121-0.59155,1.28572-1.47887,1.18681-2.3662c0-0.78873-0.2967-1.47887-0.69231-2.16901
		C17.73626,1.99296,16.84615,1.5,15.95604,1.5h-0.1978C13.38461,1.69718,12.3956,3.96479,12,5.44366
		C11.60439,3.96479,10.61538,1.69718,8.24176,1.5h-0.1978c-0.89011,0-1.78022,0.39437-2.27473,1.1831
		C5.27472,3.37324,5.07692,4.06338,5.07692,4.85211C4.97802,5.73944,5.47253,6.62676,6.16483,7.21831z M15.85714,2.88028h0.0989
		c0.49451,0,0.89011,0.19718,1.18681,0.59155s0.3956,0.88732,0.3956,1.38028c0,0.39437-0.0989,1.1831-0.69231,1.1831H13.2857
		C13.48352,4.9507,14.17582,3.07746,15.85714,2.88028z M6.85714,3.47183c0.2967-0.39437,0.69231-0.59155,1.18681-0.59155h0.0989
		c1.68132,0.09859,2.37363,2.07042,2.57143,3.15493H7.15385c-0.59341,0-0.69231-0.78873-0.69231-1.1831
		C6.46154,4.35916,6.56044,3.8662,6.85714,3.47183z"/>
</g>
<path class="st0" d="M13.7098,15.92841c-0.9-1.1-2-1.9-2.5-2.3c-0.4-0.3-0.4,0-0.4,0.1c0.1,0.5,0.3,1.5-1.1,3.1
	c-1.7,2.3-0.5,3.9,0.7,4.7c0.5,0.4,1.2,0.3,1.2,0.3c0.1,0,0.3,0,0.3-0.1c-0.7-0.4-2.3-1.6-0.1-4.8c0,0-0.1,1.2,0.4,1.6
	c0.3,0.1,0.8-0.4,0.8-0.4s1.1,2.3-0.5,3.3c-0.1,0-0.1,0.1-0.3,0.1c0.1,0.1,0.3,0.1,0.3,0.1c0.8,0,1.7-0.5,2.3-1.7
	C15.6098,18.62841,14.8098,17.02841,13.7098,15.92841z"/>
</svg>
