<?xml version="1.0" encoding="utf-8"?>
<!-- Generator: Adobe Illustrator 24.0.1, SVG Export Plug-In . SVG Version: 6.00 Build 0)  -->
<svg version="1.1" id="ic-transaction-mint" xmlns="http://www.w3.org/2000/svg" xmlns:xlink="http://www.w3.org/1999/xlink"
	 x="0px" y="0px" viewBox="0 0 24 24" style="enable-background:new 0 0 24 24;" xml:space="preserve">
<style type="text/css">
	.st0{fill:none;}
	.st1{fill:#FFFFFF;}
</style>
<path id="Rectangle_4408" class="st0" d="M0,0h24v24H0V0z"/>
<g id="_x38_823_1_">
	<path class="st1" d="M22.5,12.27377v0.3109c-0.01121,0.32135-0.04308,0.59655-0.10356,0.93271
		c-0.31067,1.96905-1.03559,3.73083-2.38185,5.28535c-1.86405,2.17632-3.74585,3.39836-6.64548,3.60563
		c-0.14672,0.01956-0.43244,0.04259-0.64103,0.05788C12.31495,22.49653,12.29644,22.5,11.88221,22.5
		c-0.20712,0-0.96302-0.01758-1.18788-0.07007c-1.96761-0.20727-3.72811-1.03634-5.28148-2.27995
		c-1.96761-1.65815-3.21031-3.73083-3.72811-6.21806C0.64915,8.54293,4.06658,3.15395,9.45162,1.8067
		c5.4886-1.34725,10.9772,1.86542,12.63414,7.2544c0.20712,0.72544,0.291,1.21082,0.39456,1.93626L22.5,11.54833
		C22.5,11.7556,22.5,12.0665,22.5,12.27377 M11.93703,21.60085c5.28149,0,9.63094-4.35264,9.63094-9.63799
		s-4.34946-9.63799-9.63094-9.63799s-9.63094,4.35264-9.63094,9.63799S6.65555,21.60085,11.93703,21.60085z"/>
	<path class="st1" d="M22.5,12.3774c0-0.20727,0-0.51817,0-0.72544C22.5,11.85923,22.5,12.0665,22.5,12.3774z"/>
	<path class="st1" d="M12.04059,20.66814c-4.76369,0-8.69892-3.83447-8.69892-8.60165s3.83167-8.70528,8.69892-8.70528
		c4.76369,0,8.59536,3.83447,8.59536,8.70528C20.63595,16.73004,16.80428,20.66814,12.04059,20.66814z M7.58757,14.65736
		l-1.86405,0.82907c0.10356-0.10363,0,0,0.10356-0.10363c3.10676-3.10903,6.21351-6.21806,9.32027-9.22345
		c0.10356-0.10363,0.20712-0.3109,0.41423-0.41454l0,0c0.10356,1.24361,0.31068,2.59086,0.41423,3.83447c0,0,0,0,0.10356,0
		c0.82847-0.62181,1.65694-1.13998,2.4854-1.76178c0.10356-0.10363,0-0.10363,0-0.20727
		c-1.7605-2.69449-5.17793-4.04174-8.28468-3.3163c-4.34946,1.03634-6.93842,5.38898-5.69572,9.74162
		c1.03559,4.04174,5.17793,6.52896,9.11315,5.49262c3.10676-0.72544,5.07437-2.79813,5.90284-5.90716
		c0.10356-0.3109,0.20712-0.62181,0.20712-1.03634c-2.4854,1.65815-5.07437,3.3163-7.55977,4.97445
		c0.10356-1.76178,0.31068-3.52357,0.41423-5.28535c0,0-0.10356,0-0.10356,0.10363
		c-1.34626,0.62181-2.69252,1.24361-3.93522,1.86542L7.58757,14.65736z M8.93383,13.20648L8.93383,13.20648
		c1.55338-0.62181,3.0032-1.34725,4.55657-2.07269c-0.10356,1.65815-0.20712,3.3163-0.41423,5.07808c0,0,0.10356,0,0.10356-0.10363
		c2.17473-1.45088,4.34946-2.90176,6.52419-4.24901c0.10356-0.10363,0.10356-0.10363,0.10356-0.20727
		c-0.10356-1.13998-0.31067-2.17632-0.82847-3.10903c-0.10356-0.10363-0.10356-0.10363-0.20712,0
		c-1.13914,0.82907-2.17473,1.55451-3.31387,2.27995l-0.10356,0.10363c-0.10356-1.13998-0.20712-2.38359-0.41423-3.6272
		C12.97261,9.26837,11.005,11.23742,8.93383,13.20648z"/>
</g>
</svg>
