<?xml version="1.0" encoding="utf-8"?>
<!-- Generator: Adobe Illustrator 24.0.1, SVG Export Plug-In . SVG Version: 6.00 Build 0)  -->
<svg version="1.1" id="Layer_1" xmlns="http://www.w3.org/2000/svg" xmlns:xlink="http://www.w3.org/1999/xlink" x="0px" y="0px"
	 viewBox="0 0 24 24" style="enable-background:new 0 0 24 24;" xml:space="preserve">
<style type="text/css">
	.st0{fill:none;}
	.st1{fill:#FFFFFF;}
</style>
<title>Artboard</title>
<desc>Created with Sketch.</desc>
<g id="Artboard">
	<g id="ic-update" transform="translate(2.000000, 2.000000)">
		<path class="st0" d="M0,0v20h20V0H0z M18,7.9c0,0.3-0.3,0.6-0.6,0.6h-3.8c-0.3,0-0.6-0.3-0.6-0.6V7.1c0-0.3,0.3-0.6,0.6-0.6h1.3
			c-1.5-2-4.1-3-6.5-2.3S4.2,7,4,9.5c-0.2,2.5,1.2,4.9,3.5,5.9c2.1,1,4.6,0.6,6.3-0.8c0.3-0.2,0.6-0.2,0.8,0l0.6,0.6
			c0.3,0.3,0.3,0.6,0,0.9C13.8,17.3,11.9,18,10,18c-5.3,0-9.6-5.2-7.4-11.3V6.6C5.7,0.9,12.5,0.7,16,4.7V4.1c0-0.3,0.3-0.6,0.6-0.6
			h0.8c0.3,0,0.6,0.3,0.6,0.6V7.9z"/>
		<path class="st1" d="M18.00576,4.22185v3.76669c0,0.29737-0.30021,0.59474-0.60043,0.59474h-3.80274
			c-0.30022,0-0.60043-0.29737-0.60043-0.59474V7.19555c0-0.29737,0.30022-0.59474,0.60043-0.59474h1.30094
			c-1.50108-1.98247-4.10296-2.9737-6.50469-2.27984S4.19582,7.09643,3.99567,9.57451
			c-0.20014,2.47808,1.20086,4.85705,3.50252,5.84828c2.10151,0.99123,4.60332,0.59474,6.30454-0.79299
			c0.30022-0.19825,0.60043-0.19825,0.80058,0l0.60043,0.59474c0.30022,0.29737,0.30022,0.59474,0,0.89211
			C13.80274,17.30614,11.90137,18,10,18c-5.30382,0-9.60692-5.15442-7.40533-11.20094l0.14593-0.35627
			c3.10223-5.65003,9.76121-5.59114,13.26373-1.6262V4.22185c0-0.29737,0.30022-0.59474,0.60043-0.59474h0.80058
			C17.70555,3.62711,18.00576,3.92448,18.00576,4.22185z"/>
	</g>
</g>
</svg>
