<?xml version="1.0" encoding="utf-8"?>
<!-- Generator: Adobe Illustrator 24.0.1, SVG Export Plug-In . SVG Version: 6.00 Build 0)  -->
<svg version="1.1" id="ic_unlock_staking" xmlns="http://www.w3.org/2000/svg" xmlns:xlink="http://www.w3.org/1999/xlink" x="0px"
	 y="0px" viewBox="0 0 24 24" style="enable-background:new 0 0 24 24;" xml:space="preserve">
<style type="text/css">
	.st0{fill:none;}
	.st1{fill:#FFFFFF;}
</style>
<g id="Group_8891">
	<path id="Rectangle_4445" class="st0" d="M0,0h24v24H0V0z"/>
</g>
<g>
	<path class="st0" d="M6.4347,4.56879C5.79796,4.95697,5.4,5.6557,5.4,6.43208v2.01856h5.33266V6.43208
		C10.57347,4.56879,8.42449,3.32659,6.4347,4.56879z"/>
	<path class="st1" d="M2.93265,18H13.2796c0.71633,0,1.27347-0.46582,1.43265-1.08692H1.5C1.65918,17.53418,2.21633,18,2.93265,18z"
		/>
	<path class="st1" d="M12.88164,6.66499c0-3.33839-3.66123-5.90042-7.32245-4.03713
		C4.20612,3.40423,3.33061,4.87933,3.33061,6.43208v2.01856h-0.9551C1.89796,8.45064,1.5,8.83883,1.5,9.30465v7.06498h13.29185
		V9.30465c0-0.46582-0.39796-0.85401-0.87551-0.85401h-1.03469l0,0V6.66499L12.88164,6.66499z M8.74286,13.34177v1.08692H7.54898
		v-1.08692c-0.55714-0.31055-0.79592-1.00928-0.31837-1.70802c0.07959-0.07764,0.07959-0.15527,0.15918-0.15527
		c0.9551-0.6211,1.91021,0,1.91021,0.93164C9.3,12.72068,9.06123,13.10886,8.74286,13.34177z M10.73266,8.45064H5.4V6.43208
		c0-0.77637,0.39796-1.39747,1.03469-1.86329c1.9898-1.24219,4.13878,0,4.29796,1.78565
		C10.73266,6.35444,10.73266,8.45064,10.73266,8.45064z"/>
</g>
<g id="_x38_823_1_">
	<path class="st1" d="M22.5,12.03963v0.13518c-0.005,0.13972-0.0192,0.25938-0.04616,0.40554
		c-0.13848,0.85615-0.46161,1.62217-1.06171,2.29808c-0.8309,0.94627-1.66971,1.47761-2.96222,1.56773
		c-0.0654,0.00851-0.19276,0.01852-0.28574,0.02517c-0.18415,0.01317-0.1924,0.01468-0.37705,0.01468
		c-0.09232,0-0.42926-0.00765-0.5295-0.03047c-0.87706-0.09012-1.6618-0.4506-2.35422-0.99133
		c-0.87706-0.72097-1.431-1.62218-1.6618-2.70362c-0.46161-2.34314,1.06171-4.68628,3.46209-5.27207
		c2.44654-0.58579,4.89309,0.81109,5.63167,3.15423c0.09232,0.31542,0.12971,0.52647,0.17587,0.84189L22.5,11.72421
		C22.5,11.81433,22.5,11.94951,22.5,12.03963 M17.79156,16.09507c2.35422,0,4.29299-1.89254,4.29299-4.19062
		s-1.93877-4.19062-4.29299-4.19062s-4.29299,1.89254-4.29299,4.19062S15.43734,16.09507,17.79156,16.09507z"/>
	<path class="st1" d="M22.5,12.08469c0-0.09012,0-0.2253,0-0.31542C22.5,11.85939,22.5,11.94951,22.5,12.08469z"/>
	<path class="st1" d="M17.83772,15.68952c-2.12341,0-3.87754-1.66724-3.87754-3.74001s1.70796-3.78507,3.87754-3.78507
		c2.12341,0,3.83138,1.66723,3.83138,3.78507C21.6691,13.97723,19.96113,15.68952,17.83772,15.68952z M15.85279,13.07602
		l-0.8309,0.36048c0.04616-0.04506,0,0,0.04616-0.04506c1.38484-1.35181,2.76967-2.70362,4.15451-4.01037
		c0.04616-0.04506,0.09232-0.13518,0.18464-0.18024l0,0c0.04616,0.54073,0.13848,1.12651,0.18464,1.66724c0,0,0,0,0.04616,0
		c0.36929-0.27036,0.73858-0.49566,1.10787-0.76603c0.04616-0.04506,0-0.04506,0-0.09012
		c-0.78474-1.17157-2.30806-1.75735-3.6929-1.44193c-1.93877,0.4506-3.0928,2.34314-2.53887,4.23568
		c0.46161,1.75736,2.30806,2.8388,4.06218,2.3882c1.38484-0.31542,2.2619-1.21663,2.63119-2.56844
		c0.04616-0.13518,0.09232-0.27036,0.09232-0.4506c-1.10787,0.72097-2.2619,1.44193-3.36977,2.1629
		c0.04616-0.76603,0.13848-1.53205,0.18464-2.29808c0,0-0.04616,0-0.04616,0.04506c-0.6001,0.27036-1.20019,0.54072-1.75413,0.81109
		L15.85279,13.07602z M16.45288,12.44518L16.45288,12.44518c0.69242-0.27036,1.33867-0.58578,2.03109-0.90121
		c-0.04616,0.72097-0.09232,1.44193-0.18464,2.20796c0,0,0.04616,0,0.04616-0.04506
		c0.96939-0.63085,1.93877-1.26169,2.90816-1.84748c0.04616-0.04506,0.04616-0.04506,0.04616-0.09012
		c-0.04616-0.49566-0.13848-0.94627-0.36929-1.35181c-0.04616-0.04506-0.04616-0.04506-0.09232,0
		c-0.50777,0.36048-0.96939,0.67591-1.47716,0.99133l-0.04616,0.04506c-0.04616-0.49566-0.09232-1.03639-0.18464-1.57711
		C18.25317,10.73288,17.37611,11.58903,16.45288,12.44518z"/>
</g>
</svg>
