<?xml version="1.0" encoding="utf-8"?>
<!-- Generator: Adobe Illustrator 24.0.1, SVG Export Plug-In . SVG Version: 6.00 Build 0)  -->
<svg version="1.1" id="Group_9077" xmlns="http://www.w3.org/2000/svg" xmlns:xlink="http://www.w3.org/1999/xlink" x="0px" y="0px"
	 viewBox="0 0 24 24" style="enable-background:new 0 0 24 24;" xml:space="preserve">
<style type="text/css">
	.st0{fill:none;}
	.st1{fill:#FFFFFF;}
	.st2{fill:#030303;}
</style>
<path id="Rectangle_3656" class="st0" d="M0,0h24v24H0V0z"/>
<g>
	<path class="st1" d="M2.37285,12.33987c-0.3514-0.00063-0.70281-0.00127-1.05421-0.00186
		c-0.24062-0.00722-0.29077-0.07234-0.31682-0.303c-0.00462-0.04089,0.00104-0.08345,0.00103-0.12527
		C1.00269,11.27731,1,11.2385,1.62001,11.24029c0.36884,0.00003,0.73769,0.00004,1.10653,0.00005
		c0.15995,0.00361,0.32244-0.00936,0.47929,0.01441c0.29042,0.04401,0.39159-0.07858,0.47177-0.35342
		c0.79909-2.73898,4.06537-3.79205,6.33713-2.0566c0.28963,0.22126,0.50824,0.482,0.78169,0.74892
		c0.21728,0.35512,0.44079,0.71995,0.55536,1.13125c0.06464,0.23207,0.06125,0.55272,0.21508,0.67066
		c0.15264,0.11703,0.44389,0.06575,0.69885,0.0614c0.17466-0.00298,0.23237-0.07458,0.25654-0.21834
		c0.10182-0.60564,0.36414-1.14247,0.71789-1.63958c1.12065-1.35545,2.54971-1.89012,4.26413-1.45194
		c1.48863,0.38047,2.42881,1.37605,2.86046,2.84162c0.02849,0.09672,0.01435,0.25035,0.14638,0.25023
		c0.28086-0.00026,0.54297-0.01935,0.83483-0.02565c0.40725,0.00612,0.75924,0.01983,1.1354,0.02724
		c0.51461,0.02888,0.51461,0.02888,0.5146,0.55839c0,0.11581-0.00929,0.23253,0.0021,0.34722
		c0.01598,0.16088-0.06608,0.20241-0.20482,0.19264c-0.35938,0.00052-0.71876,0.00095-1.07812,0.00124
		c-0.22402-0.00209-0.44805-0.0054-0.67208-0.00576c-0.52338-0.00084-0.52196,0.00004-0.63322,0.50184
		c-0.03429,0.15467-0.0787,0.30713-0.11848,0.4606c-0.02191,0.04695-0.04612,0.09299-0.06539,0.14099
		c-0.75236,1.87404-2.69414,2.91661-4.66612,2.44789c-1.59203-0.37841-2.59198-1.40225-3.00589-2.97366
		c-0.06391-0.24263-0.17993-0.36678-0.41733-0.40818c-0.34931-0.06092-0.59257,0.10353-0.69266,0.47705
		c-0.43743,1.63228-1.83561,2.84331-3.44406,2.98308c-1.82159,0.15829-3.46412-0.74598-3.97411-1.86653
		c-0.04039-0.08874-0.21099-0.57511-0.24202-0.67871c-0.05486-0.29957-0.1827-0.61775-0.23275-0.91811
		c-0.02567-0.15406-0.12559-0.17036-0.25439-0.16779C2.98874,12.33889,2.68077,12.33795,2.37285,12.33987z M7.54209,14.89565
		c1.3652,0.05643,2.91503-1.0452,2.93124-2.90899c0.01386-1.59391-1.33556-2.89739-2.9233-2.89987
		c-1.61387-0.00252-2.94874,1.31439-2.94735,2.90769C4.60409,13.60857,5.90913,14.89663,7.54209,14.89565z M13.54682,12.003
		c0.0094,1.64814,1.29282,2.90033,2.96479,2.89263c1.59653-0.00735,2.90648-1.32817,2.89348-2.9175
		c-0.01304-1.594-1.35057-2.89786-2.966-2.89132C14.84148,9.09327,13.53772,10.40781,13.54682,12.003z"/>
	<path class="st2" d="M8.56555,13.41864c-0.74069-0.00087-1.28877-0.5447-1.28993-1.27992
		c-0.00118-0.75056,0.55236-1.29404,1.31281-1.28894c0.73639,0.00494,1.27686,0.55468,1.27395,1.29579
		C9.85949,12.87916,9.30905,13.41951,8.56555,13.41864z"/>
	<path class="st2" d="M16.59494,11.99503c0.00304,0.74131-0.53719,1.29121-1.27349,1.29626
		c-0.76054,0.00523-1.31435-0.53813-1.31329-1.28849c0.00104-0.73538,0.54891-1.2794,1.28947-1.28039
		C16.04134,10.72142,16.59193,11.26154,16.59494,11.99503z"/>
</g>
</svg>
