<?xml version="1.0" encoding="utf-8"?>
<!-- Generator: Adobe Illustrator 24.0.1, SVG Export Plug-In . SVG Version: 6.00 Build 0)  -->
<svg version="1.1" id="Layer_1" xmlns:serif="http://www.serif.com/"
	 xmlns="http://www.w3.org/2000/svg" xmlns:xlink="http://www.w3.org/1999/xlink" x="0px" y="0px" viewBox="0 0 2000 2000"
	 style="enable-background:new 0 0 2000 2000;" xml:space="preserve">
<style type="text/css">
	.st0{fill:url(#Path_19032_2_);}
	.st1{fill:url(#Rectangle_4749_1_);}
	.st2{fill:url(#Rectangle_4750_1_);}
	.st3{fill:url(#Rectangle_4751_1_);}
	.st4{fill:url(#Rectangle_4752_1_);}
	.st5{fill:url(#Path_19033_1_);}
	.st6{fill:none;}
	.st7{fill:url(#Path_19032_3_);}
	.st8{fill:#FFFFFF;}
	.st9{fill:#010101;}
</style>
<g id="Group_9086">
	<g id="Group_9085">
		<g id="Group_9083">
			
				<linearGradient id="Path_19032_2_" gradientUnits="userSpaceOnUse" x1="0.1556" y1="1999.9725" x2="0.8574" y2="1999.9725" gradientTransform="matrix(-1472.7941 -1472.7941 -1472.7941 1472.7941 2947316 -2943779.25)">
				<stop  offset="0" style="stop-color:#FBAF3C"/>
				<stop  offset="0.44" style="stop-color:#B7874F"/>
				<stop  offset="1" style="stop-color:#1C2C7C"/>
			</linearGradient>
			<path id="Path_19032" class="st0" d="M1047.9,737.5c-184.8-32.1-342.5,125.7-310.4,310.4c19,109.4,105.2,195.6,214.6,214.6
				c184.8,32.1,342.5-125.7,310.4-310.4C1243.5,842.7,1157.3,756.5,1047.9,737.5z M1039,1235.5c-162.5,25.6-300.2-112.1-274.6-274.6
				C780.4,860,860,780.4,961,764.5c162.5-25.6,300.2,112.1,274.6,274.6C1219.6,1140,1140,1219.6,1039,1235.5z"/>
			
				<linearGradient id="Rectangle_4749_1_" gradientUnits="userSpaceOnUse" x1="3.588344e-03" y1="1999.796" x2="0.9884" y2="1999.796" gradientTransform="matrix(-1472.7941 -1472.7941 -1472.7941 1472.7941 2947316 -2943779.25)">
				<stop  offset="0" style="stop-color:#FBAF3C"/>
				<stop  offset="0.44" style="stop-color:#B7874F"/>
				<stop  offset="1" style="stop-color:#1C2C7C"/>
			</linearGradient>
			<path id="Rectangle_4749" class="st1" d="M1661.6,1120h36.9c0.9,0,1.6,0.7,1.6,1.6v76.9c0,0.9-0.7,1.6-1.6,1.6h-36.9
				c-0.9,0-1.6-0.7-1.6-1.6v-76.9C1660,1120.7,1660.7,1120,1661.6,1120z"/>
			
				<linearGradient id="Rectangle_4750_1_" gradientUnits="userSpaceOnUse" x1="2.770905e-03" y1="1999.728" x2="0.9937" y2="1999.728" gradientTransform="matrix(-1472.7941 -1472.7941 -1472.7941 1472.7941 2947316 -2943779.25)">
				<stop  offset="0" style="stop-color:#FBAF3C"/>
				<stop  offset="0.44" style="stop-color:#B7874F"/>
				<stop  offset="1" style="stop-color:#1C2C7C"/>
			</linearGradient>
			<path id="Rectangle_4750" class="st2" d="M1661.6,880h36.9c0.9,0,1.6,0.7,1.6,1.6v156.9c0,0.9-0.7,1.6-1.6,1.6h-36.9
				c-0.9,0-1.6-0.7-1.6-1.6V881.6C1660,880.7,1660.7,880,1661.6,880z"/>
			
				<linearGradient id="Rectangle_4751_1_" gradientUnits="userSpaceOnUse" x1="6.725458e-03" y1="2000.2169" x2="0.9976" y2="2000.2169" gradientTransform="matrix(-1472.7941 -1472.7941 -1472.7941 1472.7941 2947316 -2943779.25)">
				<stop  offset="0" style="stop-color:#FBAF3C"/>
				<stop  offset="0.44" style="stop-color:#B7874F"/>
				<stop  offset="1" style="stop-color:#1C2C7C"/>
			</linearGradient>
			<path id="Rectangle_4751" class="st3" d="M301.6,960h36.9c0.9,0,1.6,0.7,1.6,1.6v156.9c0,0.9-0.7,1.6-1.6,1.6h-36.9
				c-0.9,0-1.6-0.7-1.6-1.6V961.6C300,960.7,300.7,960,301.6,960z"/>
			
				<linearGradient id="Rectangle_4752_1_" gradientUnits="userSpaceOnUse" x1="9.228670e-02" y1="2000.149" x2="0.9779" y2="2000.149" gradientTransform="matrix(-1472.7941 -1472.7941 -1472.7941 1472.7941 2947316 -2943779.25)">
				<stop  offset="0" style="stop-color:#FBAF3C"/>
				<stop  offset="0.44" style="stop-color:#B7874F"/>
				<stop  offset="1" style="stop-color:#1C2C7C"/>
			</linearGradient>
			<path id="Rectangle_4752" class="st4" d="M311.7,800h16.6c6.5,0,11.7,5.2,11.7,11.7v56.6c0,6.5-5.2,11.7-11.7,11.7h-16.6
				c-6.5,0-11.7-5.2-11.7-11.7v-56.6C300,805.2,305.2,800,311.7,800z"/>
			
				<linearGradient id="Path_19033_1_" gradientUnits="userSpaceOnUse" x1="7.391340e-05" y1="1999.9725" x2="0.9999" y2="1999.9725" gradientTransform="matrix(-1472.7941 -1472.7941 -1472.7941 1472.7941 2947316 -2943779.25)">
				<stop  offset="0" style="stop-color:#FBAF3C"/>
				<stop  offset="0.44" style="stop-color:#B7874F"/>
				<stop  offset="1" style="stop-color:#1C2C7C"/>
			</linearGradient>
			<path id="Path_19033" class="st5" d="M1900.6,1420h-199.1c-0.9,0-1.6-0.7-1.6-1.6v-136.9c0-0.9-0.7-1.6-1.6-1.6h-36.9
				c-0.9,0-1.6,0.7-1.6,1.6v176.9c0,0.9,0.7,1.6,1.6,1.6h151.1c1.3,0,2,1.5,1.2,2.6l-292.7,346c-0.6,0.7-1.8,0.7-2.4,0l-292.7-346
				c-0.9-1-0.1-2.6,1.2-2.6h131.1c0.9,0,1.6-0.7,1.6-1.6v-36.9c0-0.9-0.7-1.6-1.6-1.6h-83.2c-1.5,0-2.1-2-0.8-2.9
				c228.5-151,294.7-456.6,145.6-687.1c-127.8-197.7-377.2-279.7-597-196.4c-0.6,0.2-1.3,0.1-1.7-0.4L481.2,131.4
				c-0.6-0.7-1.7-0.7-2.4,0l-380.6,446c-0.9,1-0.1,2.6,1.2,2.6h199.1c0.9,0,1.6,0.7,1.6,1.6v136.9c0,0.9,0.7,1.6,1.6,1.6h36.9
				c0.9,0,1.6-0.7,1.6-1.6V541.6c0-0.9-0.7-1.6-1.6-1.6H187.3c-1.3,0-2-1.5-1.2-2.6l292.7-346c0.6-0.7,1.8-0.7,2.4,0l292.7,346
				c0.9,1,0.1,2.6-1.2,2.6H641.6c-0.9,0-1.6,0.7-1.6,1.6v36.9c0,0.9,0.7,1.6,1.6,1.6h83.2c1.5,0,2.1,2,0.8,2.9
				C497.2,733.9,430.9,1039.5,580,1270c127.8,197.7,377.2,279.7,597,196.4c0.6-0.2,1.3-0.1,1.7,0.4l340.1,401.8
				c0.6,0.7,1.7,0.7,2.4,0l380.6-446C1902.7,1421.6,1902,1420,1900.6,1420z M540.3,982.1c9.2-239.8,202-432.6,441.8-441.8
				c271.4-10.4,487.9,206.2,477.6,477.6c-9.2,239.8-202,432.6-441.8,441.8C746.5,1470,530,1253.5,540.3,982.1z"/>
		</g>
	</g>
</g>
<rect id="Rectangle_4753" class="st6" width="2000" height="2000"/>
<g id="Group_9086_1_">
	<g id="Group_9085_1_">
		<g id="Group_9083_1_">
			
				<linearGradient id="Path_19032_3_" gradientUnits="userSpaceOnUse" x1="0.1566" y1="1999.9714" x2="0.8584" y2="1999.9714" gradientTransform="matrix(-1472.7941 -1472.7941 -1472.7941 1472.7941 2947316 -2943779.25)">
				<stop  offset="0" style="stop-color:#FBAF3C"/>
				<stop  offset="1" style="stop-color:#000A42"/>
			</linearGradient>
			<path id="Path_19032_1_" class="st7" d="M1000,730.3c-147.4,0-266.7,119.3-266.7,266.7s119.3,266.7,266.7,266.7
				s266.7-119.3,266.7-266.7S1147.4,730.3,1000,730.3z M1000,1235.7c-131.9,0-238.6-106.7-238.6-238.6S868.1,758.4,1000,758.4
				s238.6,106.7,238.6,238.6S1131.9,1235.7,1000,1235.7z"/>
		</g>
	</g>
</g>
<g id="Group_8935">
	<g id="Group_8934">
		<path id="Path_18928" class="st8" d="M1002,734.5c-146.3,0-265.5,119.2-265.5,265.5s119.2,265.5,265.5,265.5
			s265.5-119.2,265.5-265.5S1148.3,734.5,1002,734.5z"/>
	</g>
</g>
<g>
	<path class="st9" d="M1269.7,1000c0,149-121.9,273.7-279.1,270.9c-143.6-5.4-265.5-124.6-260.1-279.1
		C733.2,853.7,844.3,729,998.7,729C1147.8,729,1269.7,851,1269.7,1000z M998.7,753.4c-132.8,0-243.9,108.4-246.6,238.4
		c0,143.6,113.8,249.3,241.1,252c140.9,2.7,252-116.5,249.3-252C1239.9,864.5,1134.2,753.4,998.7,753.4z"/>
	<path class="st9" d="M996,902.4c48.8,0,97.5,0,146.3,0c21.7,0,43.4,5.4,65,8.1c5.4,0,5.4,2.7,5.4,8.1c2.7,8.1,0,16.3-2.7,24.4
		c-8.1,29.8-13.5,62.3-24.4,92.1c-5.4,13.5-13.5,24.4-27.1,27.1c-29.8,8.1-59.6,10.8-92.1,2.7c-10.8-2.7-19-10.8-24.4-21.7
		c-8.1-21.7-19-43.4-27.1-67.7c0-2.7-2.7-2.7-2.7-5.4c-2.7-8.1-10.8-10.8-19-10.8c-8.1,0-13.5,5.4-16.3,10.8
		c-8.1,19-16.3,37.9-21.7,56.9c-8.1,27.1-24.4,40.6-54.2,40.6c-24.4,0-46.1-2.7-70.4-8.1c-13.5-2.7-24.4-10.8-27.1-24.4
		c-8.1-35.2-16.3-70.4-24.4-105.7v-2.7c0-13.5,0-16.3,13.5-19c27.1-2.7,46.1-5.4,65-5.4C903.9,902.4,950,902.4,996,902.4L996,902.4z
		 M903.9,926.8c-27.1-2.7-51.5-2.7-78.6,0c-5.4,0-5.4,5.4-5.4,8.1c0,27.1,5.4,54.2,10.8,81.3c5.4,16.3,8.1,16.3,24.4,16.3
		c-5.4-2.7-13.5-2.7-13.5-10.8c-5.4-21.7-10.8-46.1-8.1-70.4c2.7-10.8,5.4-16.3,19-19C868.7,929.5,887.6,929.5,903.9,926.8z
		 M1136.9,926.8c-24.4,0-48.8-2.7-73.2,0c-5.4,0-10.8,2.7-10.8,8.1c0,29.8,5.4,62.3,16.3,89.4c2.7,5.4,13.5,8.1,19,5.4
		c-2.7-2.7-10.8-2.7-10.8-10.8c-5.4-21.7-8.1-43.4-8.1-67.7c2.7-16.3,5.4-19,21.7-21.7C1107.1,929.5,1120.7,926.8,1136.9,926.8z"/>
</g>
</svg>
