<?xml version="1.0" encoding="utf-8"?>
<!-- Generator: Adobe Illustrator 24.0.1, SVG Export Plug-In . SVG Version: 6.00 Build 0)  -->
<svg version="1.1" id="Layer_1" xmlns:serif="http://www.serif.com/"
	 xmlns="http://www.w3.org/2000/svg" xmlns:xlink="http://www.w3.org/1999/xlink" x="0px" y="0px" viewBox="0 0 2000 2000"
	 style="enable-background:new 0 0 2000 2000;" xml:space="preserve">
<style type="text/css">
	.st0{fill-rule:evenodd;clip-rule:evenodd;fill:#111A4A;}
	.st1{fill:url(#Path_18999_1_);}
	.st2{fill:none;}
</style>
<g id="ic_empty_dark_peers">
	<g id="Group_9049">
		<g id="Group_9048">
			<g id="Ellipse_633" transform="matrix(1,0,0,1,38,38)">
				<circle class="st0" cx="962" cy="962" r="240"/>
			</g>
			<g id="Ellipse_634" transform="matrix(1,0,0,1,42,8)">
				<circle class="st0" cx="958" cy="312" r="160"/>
			</g>
			<g id="Ellipse_635" transform="matrix(1,0,0,1,42,76)">
				<circle class="st0" cx="958" cy="1604" r="160"/>
			</g>
			<g id="Ellipse_636" transform="matrix(1,0,0,1,12.555,25)">
				<circle class="st0" cx="398.5" cy="635" r="160"/>
			</g>
			<g id="Ellipse_637" transform="matrix(1,0,0,1,71.445,59)">
				<circle class="st0" cx="1517.5" cy="1281" r="160"/>
			</g>
			<g id="Ellipse_638" transform="matrix(1,0,0,1,12.555,59)">
				<circle class="st0" cx="398.5" cy="1281" r="160"/>
			</g>
			<g id="Ellipse_639" transform="matrix(1,0,0,1,71.445,25)">
				<circle class="st0" cx="1517.5" cy="635" r="160"/>
			</g>
		</g>
		
			<linearGradient id="Path_18999_1_" gradientUnits="userSpaceOnUse" x1="0" y1="0.00437" x2="1" y2="0.00437" gradientTransform="matrix(1105.19995 -1494.55798 1494.55798 1105.19995 463.0332 1712.34766)">
			<stop  offset="0" style="stop-color:#20328D"/>
			<stop  offset="1" style="stop-color:#FBB03B"/>
		</linearGradient>
		<path id="Path_18999" class="st1" d="M1678.90002,1184.09998c-17.90002-10.30005-37.5-17.40002-57.80005-21.09998
			c-7.09998-1.30005-12.19995-7.5-12.19995-14.69995V974.90002c0-8.20001-6.69995-14.90002-14.90002-14.90002h-10.19995
			c-8.19995,0-14.90002,6.70001-14.90002,14.90002v173.5c0,7.19995-5.09998,13.40002-12.19995,14.69995
			c-40.80005,7.5-77.90002,28.90002-104.80005,60.40002c-4.69995,5.5-12.59998,7-18.90002,3.30005l-187.09998-108
			c-6.5-3.80005-9.19995-11.80005-6.30005-18.69995c27.09998-64,27.09998-136.40002,0-200.40002
			c-2.90002-6.90002-0.19995-14.90002,6.30005-18.70001l187.09998-108c6.30005-3.59998,14.19995-2.20001,18.90002,3.29999
			c26.90002,31.59998,64,52.90002,104.80005,60.40002c7.09998,1.29999,12.19995,7.5,12.19995,14.70001v13.59998
			c0,8.20001,6.69995,14.90002,14.90002,14.90002H1594c8.19995,0,14.90002-6.70001,14.90002-14.90002v-13.5
			c0-7.20001,5.19995-13.40002,12.30005-14.70001c84.59998-15.40002,147.90002-90,147.90002-177.09998
			c0-98.79999-81.30005-180-180-180c-53.09998,0-103.40002,23.5-137.40002,63.70001c-4.69995,5.5-12.59998,6.90002-18.80005,3.29999
			L1176,398.39999c-6.19995-3.60001-9-11.10001-6.59998-17.89999c7-19.5,10.59998-40.10001,10.59998-60.79999
			c0-98.7-81.30005-180-180-180s-180,81.3-180,180C820,340.5,823.59998,361,830.59998,380.5
			C833,387.29999,830.19995,394.79999,824,398.39999L567.20001,546.79999C561,550.39996,553,549,548.40002,543.5
			c-34-40.20001-84.29999-63.70001-137.39999-63.70001c-98.69998,0-180,81.20001-180,180
			c0,87.09998,63.29999,161.70001,147.89999,177.10004c7.10001,1.29999,12.29999,7.5,12.29999,14.70001v173.50006
			c0,8.19995,6.70001,14.90002,14.89999,14.90002h10.20001c8.20001,0,14.89999-6.69995,14.89999-14.90002V851.5
			c0-7.20001,5.10001-13.40002,12.20001-14.70001c40.79999-7.5,77.90002-28.90002,104.79999-60.40002
			c4.70001-5.5,12.59998-7,18.90002-3.29999l187.10004,108c6.5,3.70001,9.20001,11.79999,6.29999,18.70001
			c-27.09998,64-27.09998,136.50006,0,200.50006c2.90002,6.90002,0.20001,14.90002-6.29999,18.69995L567.1001,1227
			c-6.29999,3.59998-14.20001,2.19995-18.90002-3.30005c-26.90002-31.59998-64-52.90002-104.79999-60.40002
			c-7.10001-1.30005-12.20001-7.5-12.20001-14.69995V1135c0-8.19995-6.70001-14.90002-14.89999-14.90002H406
			c-8.20001,0-14.89999,6.69995-14.89999,14.90002v13.5c0,7.19995-5.20001,13.40002-12.29999,14.69995
			c-84.60001,15.40002-147.89999,90-147.89999,177.09998c0,98.80005,81.20001,180,180,180
			c53.10001,0,103.40002-23.5,137.40002-63.69995c4.70001-5.5,12.59998-6.90002,18.79999-3.30005L824,1601.59998
			c6.20001,3.59998,9,11.09998,6.59998,17.90002c-7,19.5-10.59998,40.09998-10.59998,60.80005c0,98.69995,81.29999,180,180,180
			s180-81.30005,180-180c0-20.80005-3.59998-41.30005-10.59998-60.80005c-2.40002-6.80005,0.40002-14.30005,6.59998-17.90002
			l256.80005-148.40002C1439,1449.59998,1447,1451,1451.6001,1456.5c34,40.09998,84.19995,63.59998,137.30005,63.59998
			c98.80005,0,180-81.30005,180-180C1769,1275.80005,1734.59998,1216.19995,1678.90002,1184.09998z M1000,1220
			c-120.70001,0-220-99.30005-220-220s99.29999-220,220-220s220,99.29999,220,220
			C1219.90002,1120.59998,1120.59998,1219.90002,1000,1220z M1518.90002,538.79999C1540.20007,526.5,1564.30005,520,1588.90002,520
			c76.80005,0,140,63.20001,140,140s-63.19995,140-140,140s-140-63.20001-140-140c0-12.20001,1.59998-24.40002,4.80005-36.20001
			C1463.30005,587.90002,1486.69995,557.29999,1518.90002,538.79999z M1000,180c76.80005,0,140,63.2,140,140s-63.19995,140-140,140
			s-140-63.20001-140-140C860.09998,243.2,923.20001,180.10001,1000,180z M532.29999,730c-25,43.29999-71.29999,70-121.20001,70
			c-63.20001,0-118.89999-42.70001-135.20001-103.70001c-9.70001-35.79999-4.70001-74.09998,14-106.20001
			c38.39999-66.5,124.70001-89.60001,191.20001-51.20001C547.59998,577.20001,570.70001,663.5,532.29999,730z M587.09998,738.5
			c-6.29999-3.59998-9-11.20001-6.59998-18c12.40002-34.29999,13.90002-71.70001,4.40002-107.09998
			c-1.29999-4.70001-2.79999-9.29999-4.40002-13.79999c-2.5-6.79999,0.20001-14.5,6.5-18.09998L844.20001,433
			c6.29999-3.60001,14.20001-2.20001,18.90002,3.39999C889.90002,468.10001,926.90002,489.5,967.70001,497
			C974.79999,498.29999,980,504.5,980,511.70001v33.40002c0,8.20001,6.70001,14.90002,14.90002,14.90002h10.20001
			c8.20001,0,14.90002-6.70001,14.90002-14.90002v-33.39999c0-7.20001,5.20001-13.39999,12.29999-14.70001
			c40.80005-7.5,77.80005-28.89999,104.59998-60.60001c4.69995-5.5,12.59998-7,18.90002-3.39999L1412.90002,581.5
			c6.30005,3.59998,9,11.29999,6.5,18.09998c-1.69995,4.5-3.09998,9.20001-4.40002,13.79999c-9.5,35.40002-8,72.70001,4.40002,107
			c2.40002,6.79999-0.30005,14.40002-6.59998,18l-186.80005,108c-6.5,3.70001-14.69995,2.09998-19.30005-3.79999
			C1164.5,787.29999,1101.8999,751.19995,1032.8999,742.29999c-7.40002-0.90002-12.90002-7.29999-12.90002-14.79999v-72.59998
			c0-8.20001-6.70001-14.90002-14.90002-14.90002h-10.20001c-8.20001,0-14.90002,6.70001-14.90002,14.90002V727.5
			c0,7.5-5.5,13.79999-12.90002,14.79999c-69,8.79999-131.70001,45-173.79999,100.29999c-4.5,5.90002-12.79999,7.5-19.29999,3.79999
			L587.09998,738.5z M481.10001,1461.19995C459.80002,1473.5,435.70001,1480,411.10001,1480c-76.80002,0-140-63.19995-140-140
			s63.20001-140,140-140s139.99997,63.19995,139.99997,140c0,12.19995-1.59998,24.40002-4.79999,36.19995
			C536.70001,1412.09998,513.29999,1442.69995,481.10001,1461.19995z M1000,1820c-76.79999,0-140-63.19995-140-140
			s63.20001-140,140-140s140,63.19995,140,140C1139.90002,1756.80005,1076.80005,1819.90002,1000,1820z M1136.90002,1563.59998
			C1110.09998,1532,1073.09998,1510.5,1032.30005,1503c-7.09998-1.30005-12.29999-7.5-12.29999-14.69995v-33.40002
			c0-8.19995-6.70001-14.90002-14.90002-14.90002h-10.20001C986.70001,1440,980,1446.69995,980,1454.90002v33.40002
			c0,7.19995-5.20001,13.40002-12.29999,14.69995c-40.79999,7.5-77.79999,28.90002-104.59998,60.59998
			c-4.70001,5.5-12.59998,7-18.90002,3.40002l-257.10004-148.40002c-6.29999-3.59998-9-11.30005-6.5-18.09998
			c1.70001-4.5,3.09998-9.19995,4.40002-13.80005c9.5-35.40002,8-72.69995-4.40002-107
			c-2.40002-6.80005,0.29999-14.40002,6.59998-18l186.90002-107.90002c6.5-3.69995,14.70001-2.09998,19.29999,3.80005
			c42.20001,55.30005,104.79999,91.40002,173.70001,100.19995C974.5,1258.69995,980,1265.09998,980,1272.59998v72.59998
			c0,8.19995,6.70001,14.90002,14.90002,14.90002h10.20001c8.20001,0,14.90002-6.69995,14.90002-14.90002v-72.59998
			c0-7.5,5.49994-13.80005,12.89996-14.80005c69-8.80005,131.69995-45,173.80005-100.30005
			c4.5-5.90002,12.80005-7.5,19.30005-3.80005l186.80005,107.90002c6.30005,3.59998,9,11.19995,6.59998,18
			c-12.40002,34.30005-13.90002,71.69995-4.40002,107.09998c1.30005,4.69995,2.80005,9.30005,4.40002,13.80005
			c2.5,6.80005-0.19995,14.5-6.5,18.09998l-257.09998,148.40002C1149.5,1570.59998,1141.59998,1569.09998,1136.90002,1563.59998z
			 M1710.09998,1410c-38.40002,66.5-124.69995,89.59998-191.19995,51.19995S1429.30005,1336.5,1467.70007,1270
			c25.09998-42.80005,71.19995-69.19995,120.80005-69.19995c76.80005,0,140,63.19995,140,140
			C1728.40002,1365.09998,1722.09998,1388.90002,1710.09998,1410z"/>
	</g>
	<rect id="Rectangle_4705" class="st2" width="2000" height="2000"/>
</g>
</svg>
