<?xml version="1.0" encoding="utf-8"?>
<!-- Generator: Adobe Illustrator 24.0.1, SVG Export Plug-In . SVG Version: 6.00 Build 0)  -->
<svg version="1.1" id="ic-transaction-received" xmlns="http://www.w3.org/2000/svg" xmlns:xlink="http://www.w3.org/1999/xlink"
	 x="0px" y="0px" viewBox="0 0 24 24" style="enable-background:new 0 0 24 24;" xml:space="preserve">
<style type="text/css">
	.st0{fill:none;}
	.st1{fill:#FCFCFC;}
</style>
<path id="Rectangle_4413" class="st0" d="M0,0h24v24H0V0z"/>
<title>Receive off</title>
<desc>Created with Sketch.</desc>
<g id="Group_8834_2_">
	<path class="st1" d="M1.03143,14.48708c0.07381,0.5376,0.1659,1.06733,0.33312,1.58c0.348,0.94423,0.86274,1.81531,1.51865,2.57
		c0.78505,0.9023,1.71636,1.66002,2.75316,2.24c1.06332,0.60639,2.20914,1.04789,3.39981,1.31
		c0.47229,0.10839,0.94975,0.19184,1.43047,0.25c0.25474,0,0.50948,0.05,0.77402,0.06l0,0h1.26391
		c1.78113-0.08154,3.5276-0.53057,5.13401-1.32c1.04522-0.50834,2.00436-1.18348,2.84134-2
		c0.68674-0.65961,1.26267-1.42986,1.7048-2.28c0.34076-0.66181,0.57874-1.37363,0.70544-2.11
		c0.06019-0.3734,0.11712-0.75294,0.10908-1.13127l-0.0013-0.14874c-0.03788-0.55229-0.50724-0.96866-1.04836-0.93
		c-0.54111,0.03866-0.92555,0.52264-0.93011,1.07183c-0.02736,0.18462-0.04256,0.38319-0.05472,0.56315
		c-0.05726,0.46743-0.10226,0.90989-0.27908,1.34502c-0.34764,0.82406-0.85794,1.56616-1.49905,2.18
		c-0.6805,0.66325-1.46126,1.21027-2.31226,1.62c-2.14288,1.07561-4.56594,1.42591-6.91719,1
		c-0.76793-0.1368-1.51985-0.35463-2.24368-0.65c-0.97459-0.39136-1.87855-0.94561-2.67478-1.64
		c-0.58285-0.51528-1.07639-1.1272-1.45986-1.81c-0.44695-0.77569-0.55932-1.67268-0.67604-2.56
		c0.00469-0.0432-0.02754-0.21306-0.03223-0.25626c-0.09989-0.54279-0.57976-0.77391-1.11157-0.67196
		c-0.32823,0.06293-0.759,0.36343-0.74956,0.73571C0.97738,13.57054,1.03772,14.39975,1.03143,14.48708"/>
	<path class="st1" d="M14.12853,3.27441l-0.92099-0.94l-0.51928-0.54c-0.17025-0.17311-0.39691-0.27632-0.63685-0.29
		c-0.28209-0.01569-0.55709,0.09366-0.75443,0.3l-0.97977,1l-2.5866,2.65c-0.23034,0.2053-0.35355,0.50858-0.33313,0.82
		c-0.00093,0.52968,0.40296,0.96822,0.92099,1c0.28337,0.02423,0.56181-0.08649,0.75443-0.3l1.87137-2l0.06858-0.06
		c0.00498,0.03314,0.00498,0.06686,0,0.1c0,1,0,2.07,0,3.1s0,2.06,0,3.1c0,0.5,0,1,0,1.52c-0.00965,0.06965-0.00965,0.14035,0,0.21
		c0.03788,0.55228,0.50724,0.96866,1.04836,0.93s0.94907-0.51772,0.91119-1.07c0-0.25,0-0.49,0-0.74c0-2.34667,0-4.70333,0-7.07
		v-0.1l0.06858,0.06l1.83218,1.89c0.38079,0.39239,1.00114,0.39542,1.38559,0.00677
		c0.10982-0.11102,0.19234-0.24697,0.24083-0.39677c0.12066-0.35338,0.02445-0.74615-0.24494-1
		C15.5492,4.71441,14.83396,3.99441,14.12853,3.27441z"/>
</g>
</svg>
