<?xml version="1.0" encoding="utf-8"?>
<!-- Generator: Adobe Illustrator 24.0.1, SVG Export Plug-In . SVG Version: 6.00 Build 0)  -->
<svg version="1.1" id="ic-transaction-staked" xmlns="http://www.w3.org/2000/svg" xmlns:xlink="http://www.w3.org/1999/xlink"
	 x="0px" y="0px" viewBox="0 0 24 24" style="enable-background:new 0 0 24 24;" xml:space="preserve">
<style type="text/css">
	.st0{fill:#FFFFFF;}
	.st1{fill:none;}
	.st2{fill:#5AD88C;}
</style>
<g>
	<path class="st0" d="M18.3,13L18.3,13L18.3,13z"/>
</g>
<path class="st1" d="M10.2,5.8l-0.6-1C9.5,4.5,9.2,4.2,8.9,4.1C8.8,4.1,8.6,4,8.5,4C8.3,4,8.1,4,8,4.1C7.3,4.5,7,5.2,7.3,5.8H10.2z"
	/>
<path class="st1" d="M16.9,4.9c-0.1-0.3-0.4-0.6-0.7-0.7C16,4.1,15.6,4,15.3,4.1s-0.6,0.3-0.8,0.6l-0.6,1h2.9
	C17,5.5,17,5.2,16.9,4.9z"/>
<rect x="5.9" y="10.1" class="st1" width="12.3" height="9.6"/>
<rect x="3.6" y="7.1" class="st1" width="17" height="1.6"/>
<g id="Path18914">
	<path class="st0" d="M19.21978,12.83803h-5.73626V22.5h5.73626c0.39561,0,0.79121-0.29577,0.79121-0.78873v-8.1831
		C19.91209,13.1338,19.61539,12.83803,19.21978,12.83803z"/>
	<path class="st0" d="M4.08791,13.52817v8.1831c0,0.39437,0.2967,0.78873,0.79121,0.78873l0,0c2.86813,0,5.73626,0,8.6044,0
		c0-3.25352,0-6.40845,0-9.66197c-2.86813,0-5.73626,0-8.6044,0C4.38461,12.83803,4.08791,13.1338,4.08791,13.52817z"/>
	<path class="st0" d="M3,8.79578v2.3662c0,0.39437,0.2967,0.78873,0.79121,0.78873h6.82418V8.00704H3.79121
		C3.3956,8.00704,3,8.40141,3,8.79578z"/>
	<path class="st0" d="M20.20879,8.00704h-6.82418v3.84507h6.82418c0.3956,0,0.79121-0.29578,0.79121-0.78873V8.79578
		C21,8.40141,20.6044,8.00704,20.20879,8.00704z"/>
	<path class="st0" d="M6.16483,7.21831C6.36264,7.3169,6.49772,7.32098,6.75824,7.3169h10.28571c0.2967,0,0.4945,0,0.69231-0.09859
		c0.79121-0.59155,1.28572-1.47887,1.18681-2.3662c0-0.78873-0.2967-1.47887-0.69231-2.16901
		C17.73626,1.99296,16.84615,1.5,15.95604,1.5h-0.1978C13.38461,1.69718,12.3956,3.96479,12,5.44366
		C11.60439,3.96479,10.61538,1.69718,8.24176,1.5h-0.1978c-0.89011,0-1.78022,0.39437-2.27473,1.1831
		C5.27472,3.37324,5.07692,4.06338,5.07692,4.85211C4.97802,5.73944,5.47253,6.62676,6.16483,7.21831z M15.85714,2.88028h0.0989
		c0.49451,0,0.89011,0.19718,1.18681,0.59155c0.2967,0.39437,0.3956,0.88732,0.3956,1.38028c0,0.39437-0.0989,1.1831-0.69231,1.1831
		h-3.56044C13.48352,4.9507,14.17582,3.07746,15.85714,2.88028z M6.85714,3.47183c0.2967-0.39437,0.69231-0.59155,1.18681-0.59155
		h0.0989c1.68132,0.09859,2.37363,2.07042,2.57143,3.15493H7.15385c-0.59341,0-0.69231-0.78873-0.69231-1.1831
		C6.46154,4.35916,6.56044,3.8662,6.85714,3.47183z"/>
</g>
<path class="st2" d="M15.5,18.99341l-1.1-0.6l1-0.2c0.2,0,0.3-0.2,0.2-0.4c0-0.2-0.2-0.3-0.4-0.2l-1.6,0.4l-1.1-0.6l1.1-0.6l1.6,0.4
	h0.1c0.1,0,0.3-0.1,0.3-0.2c0-0.2-0.1-0.3-0.2-0.4l-1-0.2l1.1-0.6c0.2-0.1,0.2-0.3,0.1-0.4c-0.1-0.1-0.3-0.2-0.4-0.1l-1.1,0.6
	l0.3-0.9c0-0.2-0.1-0.3-0.2-0.4c-0.2,0-0.4,0.1-0.4,0.2l-0.4,1.5l-1.1,0.6v-1.2l1.2-1.1c0.1-0.1,0.1-0.3,0-0.4
	c-0.1-0.1-0.3-0.1-0.5,0l-0.7,0.7v-1.2c0-0.2-0.1-0.3-0.3-0.3s-0.3,0.1-0.3,0.3v1.2l-0.8-0.8c-0.1-0.1-0.3-0.1-0.5,0
	c-0.1,0.1-0.1,0.3,0,0.4l1.2,1.1v1.2l-1.1-0.6l-0.4-1.5c0-0.2-0.2-0.3-0.4-0.2c-0.2,0-0.3,0.2-0.2,0.4l0.3,0.9l-1.1-0.6
	c-0.2-0.1-0.4,0-0.4,0.1c-0.1,0.1,0,0.3,0.1,0.4l1.1,0.6l-1,0.2c-0.2,0-0.3,0.2-0.2,0.4c0,0.1,0.2,0.2,0.3,0.2h0.1l1.6-0.4l1.1,0.6
	l-1.1,0.6l-1.6-0.4c-0.2,0-0.4,0.1-0.4,0.2c0,0.2,0.1,0.3,0.2,0.4l1,0.2l-1.1,0.6c-0.2,0.1-0.2,0.3-0.1,0.4c0.1,0.1,0.2,0.2,0.3,0.2
	s0.1,0,0.2,0l1-0.6l-0.3,1c0,0.2,0.1,0.3,0.2,0.4h0.1c0.1,0,0.3-0.1,0.3-0.2l0.4-1.5l1.1-0.6v1.2l-1.2,1.1c-0.1,0.1-0.1,0.3,0,0.4
	s0.3,0.1,0.5,0l0.7-0.7v1.2c0,0.2,0.1,0.3,0.3,0.3s0.3-0.1,0.3-0.3v-1.2l0.7,0.7c0.1,0.1,0.1,0.1,0.2,0.1c0.1,0,0.2,0,0.2-0.1
	c0.1-0.1,0.1-0.3,0-0.4l-1.2-1.1v-1.3l1.1,0.6l0.4,1.5c0,0.1,0.2,0.2,0.3,0.2H14c0.2,0,0.3-0.2,0.2-0.4v-0.9l1.1,0.6
	c0.1,0,0.1,0,0.2,0c0.1,0,0.2-0.1,0.3-0.2C15.8,19.29341,15.7,19.09341,15.5,18.99341z"/>
</svg>
