<?xml version="1.0" encoding="utf-8"?>
<!-- Generator: Adobe Illustrator 24.0.1, SVG Export Plug-In . SVG Version: 6.00 Build 0)  -->
<svg version="1.1" id="ic_warnig_3" xmlns="http://www.w3.org/2000/svg" xmlns:xlink="http://www.w3.org/1999/xlink" x="0px"
	 y="0px" viewBox="0 0 24 24" style="enable-background:new 0 0 24 24;" xml:space="preserve">
<style type="text/css">
	.st0{fill:none;}
	.st1{fill:none;stroke:#F84444;stroke-width:1.8;}
	.st2{fill:#F84444;}
</style>
<path id="Rectangle_4412" class="st0" d="M0.6,0h22.8C23.7,0,24,0.3,24,0.6V24H0V0.6C0,0.3,0.3,0,0.6,0z"/>
<g id="Ellipse_650" transform="translate(2 2)">
	<circle class="st0" cx="10" cy="10" r="10"/>
	<circle class="st1" cx="10" cy="10" r="9.1"/>
</g>
<path id="Rectangle_4758" class="st2" d="M11.6,6h0.6c0.3,0,0.6,0.3,0.6,0.6v6.8c0,0.3-0.3,0.6-0.6,0.6h-0.6c-0.3,0-0.6-0.3-0.6-0.6
	V6.6C11,6.3,11.3,6,11.6,6z"/>
<path id="Rectangle_4759" class="st2" d="M11.6,16h0.6c0.3,0,0.6,0.3,0.6,0.6v0.8c0,0.3-0.3,0.6-0.6,0.6h-0.6
	c-0.3,0-0.6-0.3-0.6-0.6v-0.8C11,16.3,11.3,16,11.6,16z"/>
</svg>
