<?xml version="1.0" encoding="utf-8"?>
<!-- Generator: Adobe Illustrator 24.0.1, SVG Export Plug-In . SVG Version: 6.00 Build 0)  -->
<svg version="1.1" id="ic_staking_on" shape-rendering="geometricPrecision"
	 xmlns="http://www.w3.org/2000/svg" xmlns:xlink="http://www.w3.org/1999/xlink" x="0px" y="0px" viewBox="0 0 24 24"
	 style="enable-background:new 0 0 24 24;" xml:space="preserve">
<style type="text/css">
	.st0{fill:none;}
	.st1{fill:#808080;}
</style>
<path id="Rectangle_4527" class="st0" d="M0,0h24v24H0V0z"/>
<g id="Path18914">
	<path class="st1" d="M19.21978,12.88318h-5.73626V22.5h5.73626c0.39561,0,0.79121-0.29439,0.79121-0.78505l0,0v-8.14486
		C19.91209,13.17757,19.61539,12.88318,19.21978,12.88318z"/>
	<path class="st1" d="M4.08791,13.57009v8.14486c0,0.39252,0.2967,0.78505,0.79121,0.78505l0,0h5.73626v-9.61682H4.78022
		C4.38461,12.88318,4.08791,13.17757,4.08791,13.57009z"/>
	<path class="st1" d="M3,8.85981v2.35514C3,11.60748,3.2967,12,3.79121,12h6.82418V8.07477H3.79121
		C3.3956,8.07477,3,8.46729,3,8.85981z"/>
	<path class="st1" d="M20.20879,8.07477h-6.82418V12h6.82418C20.60439,12,21,11.70561,21,11.21495V8.85981
		C21,8.46729,20.6044,8.07477,20.20879,8.07477z"/>
	<path class="st1" d="M6.16483,7.19159c0.1978,0.09813,0.1978,0.09813,0.59341,0.09813h10.28571c0.2967,0,0.4945,0,0.69231-0.09813
		c0.79121-0.49065,1.18681-1.37383,1.08791-2.35514c0-0.78505-0.2967-1.47196-0.69231-2.15888
		C17.63736,1.99065,16.74725,1.5,15.85714,1.5h-0.1978c-2.37363,0.19626-3.36264,2.45327-3.75824,3.92523
		C11.50549,3.95327,10.51648,1.69626,8.14286,1.5h-0.1978c-0.89011,0-1.78022,0.39252-2.27473,1.17757
		C5.27472,3.26636,4.97802,4.0514,4.97802,4.83645C4.97802,5.81776,5.47253,6.70093,6.16483,7.19159z M15.85714,2.97196
		L15.85714,2.97196c0.59341,0,0.98901,0.19626,1.28571,0.58879s0.3956,0.88318,0.3956,1.37383
		c0,0.39252-0.0989,1.17757-0.69231,1.17757h-3.56044C13.48352,5.03271,14.17582,3.07009,15.85714,2.97196z M6.85714,3.56075
		c0.2967-0.39252,0.69231-0.58878,1.18681-0.58878h0.0989c1.68132,0.09813,2.37363,2.06075,2.57143,3.14019H7.05494
		c-0.59341,0-0.69231-0.78505-0.69231-1.17757C6.46154,4.44393,6.56044,3.95327,6.85714,3.56075z"/>
</g>
</svg>
