<?xml version="1.0" encoding="utf-8"?>
<!-- Generator: Adobe Illustrator 24.0.1, SVG Export Plug-In . SVG Version: 6.00 Build 0)  -->
<svg version="1.1" id="ic-transaction-staked" xmlns="http://www.w3.org/2000/svg" xmlns:xlink="http://www.w3.org/1999/xlink"
	 x="0px" y="0px" viewBox="0 0 24 24" style="enable-background:new 0 0 24 24;" xml:space="preserve">
<style type="text/css">
	.st0{fill:none;}
	.st1{fill:#FFFFFF;}
</style>
<title>ic-transaction-staked</title>
<path id="Rectangle_4527" class="st0" d="M0,0h24v24H0V0z"/>
<g id="Path18914">
	<path class="st1" d="M19.21978,12.83803h-5.73626V22.5h5.73626c0.39561,0,0.79121-0.29577,0.79121-0.78873l0,0v-8.1831
		C19.91209,13.1338,19.61539,12.83803,19.21978,12.83803z"/>
	<path class="st1" d="M4.08791,13.52817v8.1831c0,0.39437,0.2967,0.69014,0.79121,0.69014l0,0h5.73626v-9.66197H4.78022
		C4.38461,12.83803,4.08791,13.1338,4.08791,13.52817z"/>
	<path class="st1" d="M3,8.79577v2.3662c0,0.39437,0.2967,0.78873,0.79121,0.78873h6.82418V8.00704H3.79121
		C3.3956,8.00704,3,8.30282,3,8.79577z"/>
	<path class="st1" d="M20.20879,8.00704h-6.82418v3.84507h6.82418c0.3956,0,0.79121-0.29577,0.79121-0.78873V8.79577
		C21,8.30282,20.6044,8.00704,20.20879,8.00704z"/>
	<path class="st1" d="M6.16483,7.11972c0.1978,0.09859,0.28731,0.09937,0.59341,0.09859h10.28571c0.2967,0,0.4945,0,0.69231-0.09859
		c0.79121-0.49296,1.28572-1.38028,1.18681-2.26761c0-0.78873-0.2967-1.47887-0.69231-2.16901
		C17.73626,1.99296,16.84615,1.5,15.95604,1.5h-0.1978C13.38461,1.69718,12.3956,3.96479,12,5.44366
		C11.60439,3.96479,10.61538,1.69718,8.24176,1.5h-0.1978c-0.89011,0-1.78022,0.49296-2.27473,1.1831
		C5.27472,3.27465,5.07692,4.06338,5.07692,4.85211C4.97802,5.73944,5.37363,6.62676,6.16483,7.11972z M15.85714,2.88028h0.0989
		c0.49451,0,0.89011,0.19718,1.18681,0.59155c0.2967,0.39437,0.3956,0.88732,0.3956,1.38028c0,0.39437-0.0989,1.1831-0.69231,1.1831
		h-3.56044C13.48352,4.9507,14.17582,2.97887,15.85714,2.88028z M6.85714,3.47183c0.2967-0.39437,0.69231-0.59155,1.18681-0.59155
		h0.0989c1.68132,0.09859,2.37363,2.07042,2.57143,3.15493H7.15385c-0.59341,0-0.69231-0.78873-0.69231-1.1831
		C6.46154,4.35916,6.56044,3.8662,6.85714,3.47183z"/>
</g>
</svg>
